# MagicaVoxel @ Ephtracy

# group
o Ammo_Shell

# material
mtllib SH_Items-3-Ammo_Shell.mtl
usemtl palette

# normals
vn -1 0 0
vn 1 0 0
vn 0 0 1
vn 0 0 -1
vn 0 -1 0
vn 0 1 0

# texcoords
vt 0.146484 0.5
vt 0.404297 0.5

# verts
v -0.15 -0.15 0.15
v -0.15 -0.15 0.05
v -0.15 -0.15 -0.05
v -0.15 -0.15 -0.15
v -0.15 -0.05 0.15
v -0.15 -0.05 0.05
v -0.15 -0.05 -0.05
v -0.15 -0.05 -0.15
v -0.15 0.15 0.05
v -0.15 0.15 -0.05
v -0.05 -0.05 0.15
v -0.05 -0.05 0.05
v -0.05 -0.05 -0.05
v -0.05 -0.05 -0.15
v -0.05 0.05 0.15
v -0.05 0.05 0.05
v -0.05 0.05 -0.05
v -0.05 0.05 -0.15
v -0.05 -0.15 0.05
v -0.05 -0.15 -0.05
v -0.05 -0.05 0.05
v -0.05 -0.05 -0.05
v -0.05 0.05 0.05
v -0.05 0.05 -0.05
v -0.05 0.15 0.05
v -0.05 0.15 -0.05
v 0.05 -0.05 0.15
v 0.05 -0.05 0.05
v 0.05 -0.05 -0.05
v 0.05 -0.05 -0.15
v 0.05 0.05 0.15
v 0.05 0.05 0.05
v 0.05 0.05 -0.15
v 0.15 -0.15 0.15
v 0.15 -0.15 0.05
v 0.15 -0.15 -0.05
v 0.15 -0.15 -0.15
v 0.15 -0.05 0.15
v 0.15 -0.05 0.05
v 0.15 -0.05 -0.05
v 0.15 -0.05 -0.15
v -0.15 -0.15 0.15
v -0.15 -0.05 0.15
v -0.05 -0.05 0.15
v -0.05 0.05 0.15
v 0.05 -0.15 0.15
v 0.05 -0.05 0.15
v 0.05 0.05 0.15
v 0.15 -0.15 0.15
v 0.15 -0.05 0.15
v -0.15 -0.05 0.05
v -0.15 0.15 0.05
v -0.05 -0.05 0.05
v -0.05 0.05 0.05
v -0.05 0.15 0.05
v -0.05 -0.15 -0.05
v -0.05 -0.05 -0.05
v 0.05 -0.15 -0.05
v 0.05 -0.05 -0.05
v 0.15 -0.15 -0.05
v 0.15 -0.05 -0.05
v -0.05 -0.15 0.05
v -0.05 -0.05 0.05
v 0.05 -0.15 0.05
v 0.05 -0.05 0.05
v 0.15 -0.15 0.05
v 0.15 -0.05 0.05
v -0.15 -0.05 -0.05
v -0.15 0.15 -0.05
v -0.05 -0.05 -0.05
v -0.05 0.05 -0.05
v -0.05 0.15 -0.05
v -0.15 -0.15 -0.15
v -0.15 -0.05 -0.15
v -0.05 -0.05 -0.15
v -0.05 0.05 -0.15
v 0.05 -0.15 -0.15
v 0.05 -0.05 -0.15
v 0.05 0.05 -0.15
v 0.15 -0.15 -0.15
v 0.15 -0.05 -0.15
v -0.15 -0.15 0.15
v 0.05 -0.15 0.15
v 0.15 -0.15 0.15
v -0.15 -0.15 0.05
v -0.05 -0.15 0.05
v 0.05 -0.15 0.05
v 0.15 -0.15 0.05
v -0.15 -0.15 -0.05
v -0.05 -0.15 -0.05
v 0.05 -0.15 -0.05
v 0.15 -0.15 -0.05
v -0.15 -0.15 -0.15
v 0.05 -0.15 -0.15
v 0.15 -0.15 -0.15
v -0.05 -0.05 0.05
v 0.05 -0.05 0.05
v -0.05 -0.05 -0.05
v 0.05 -0.05 -0.05
v -0.15 -0.05 0.15
v -0.05 -0.05 0.15
v 0.05 -0.05 0.15
v 0.15 -0.05 0.15
v -0.15 -0.05 0.05
v -0.05 -0.05 0.05
v 0.05 -0.05 0.05
v 0.15 -0.05 0.05
v -0.15 -0.05 -0.05
v -0.05 -0.05 -0.05
v 0.05 -0.05 -0.05
v 0.15 -0.05 -0.05
v -0.15 -0.05 -0.15
v -0.05 -0.05 -0.15
v 0.05 -0.05 -0.15
v 0.15 -0.05 -0.15
v -0.05 0.05 0.15
v 0.05 0.05 0.15
v -0.05 0.05 0.05
v 0.05 0.05 0.05
v -0.05 0.05 -0.05
v -0.05 0.05 -0.15
v 0.05 0.05 -0.15
v -0.15 0.15 0.05
v -0.05 0.15 0.05
v -0.15 0.15 -0.05
v -0.05 0.15 -0.05

# faces
f 5/1/1 2/1/1 1/1/1
f 6/2/1 3/2/1 2/2/1
f 6/1/1 2/1/1 5/1/1
f 7/1/1 4/1/1 3/1/1
f 7/2/1 3/2/1 6/2/1
f 8/1/1 4/1/1 7/1/1
f 9/1/1 7/1/1 6/1/1
f 10/1/1 7/1/1 9/1/1
f 15/2/1 12/2/1 11/2/1
f 16/2/1 12/2/1 15/2/1
f 17/1/1 14/1/1 13/1/1
f 18/1/1 14/1/1 17/1/1
f 19/2/2 20/2/2 21/2/2
f 21/2/2 20/2/2 22/2/2
f 23/1/2 24/1/2 25/1/2
f 25/1/2 24/1/2 26/1/2
f 27/2/2 28/2/2 31/2/2
f 29/1/2 30/1/2 32/1/2
f 31/2/2 28/2/2 32/2/2
f 28/1/2 29/1/2 32/1/2
f 32/1/2 30/1/2 33/1/2
f 34/2/2 35/2/2 38/2/2
f 38/2/2 35/2/2 39/2/2
f 36/2/2 37/2/2 40/2/2
f 40/2/2 37/2/2 41/2/2
f 44/1/3 43/1/3 42/1/3
f 46/1/3 44/1/3 42/1/3
f 47/2/3 45/2/3 44/2/3
f 47/1/3 44/1/3 46/1/3
f 48/2/3 45/2/3 47/2/3
f 49/2/3 47/2/3 46/2/3
f 50/2/3 47/2/3 49/2/3
f 53/1/3 52/1/3 51/1/3
f 54/1/3 52/1/3 53/1/3
f 55/1/3 52/1/3 54/1/3
f 58/1/3 57/1/3 56/1/3
f 59/1/3 57/1/3 58/1/3
f 60/2/3 59/2/3 58/2/3
f 61/2/3 59/2/3 60/2/3
f 62/1/4 63/1/4 64/1/4
f 64/1/4 63/1/4 65/1/4
f 64/2/4 65/2/4 66/2/4
f 66/2/4 65/2/4 67/2/4
f 68/1/4 69/1/4 70/1/4
f 70/1/4 69/1/4 71/1/4
f 71/1/4 69/1/4 72/1/4
f 73/1/4 74/1/4 75/1/4
f 73/1/4 75/1/4 77/1/4
f 75/1/4 76/1/4 77/1/4
f 77/1/4 76/1/4 78/1/4
f 78/1/4 76/1/4 79/1/4
f 77/2/4 78/2/4 80/2/4
f 80/2/4 78/2/4 81/2/4
f 85/1/5 83/1/5 82/1/5
f 86/1/5 83/1/5 85/1/5
f 87/2/5 84/2/5 83/2/5
f 87/1/5 83/1/5 86/1/5
f 88/2/5 84/2/5 87/2/5
f 89/2/5 86/2/5 85/2/5
f 90/2/5 86/2/5 89/2/5
f 93/1/5 90/1/5 89/1/5
f 93/1/5 91/1/5 90/1/5
f 94/2/5 92/2/5 91/2/5
f 94/1/5 91/1/5 93/1/5
f 95/2/5 92/2/5 94/2/5
f 98/1/5 97/1/5 96/1/5
f 99/1/5 97/1/5 98/1/5
f 100/1/6 101/1/6 104/1/6
f 104/1/6 101/1/6 105/1/6
f 102/2/6 103/2/6 106/2/6
f 106/2/6 103/2/6 107/2/6
f 108/1/6 109/1/6 112/1/6
f 112/1/6 109/1/6 113/1/6
f 110/2/6 111/2/6 114/2/6
f 114/2/6 111/2/6 115/2/6
f 116/2/6 117/2/6 118/2/6
f 118/2/6 117/2/6 119/2/6
f 118/1/6 119/1/6 120/1/6
f 120/1/6 119/1/6 121/1/6
f 121/1/6 119/1/6 122/1/6
f 123/1/6 124/1/6 125/1/6
f 125/1/6 124/1/6 126/1/6
