# MagicaVoxel @ Ephtracy

# group
o Ammo_Small

# material
mtllib SH_Items-2-Ammo_Small.mtl
usemtl palette

# normals
vn -1 0 0
vn 1 0 0
vn 0 0 1
vn 0 0 -1
vn 0 -1 0
vn 0 1 0

# texcoords
vt 0.337891 0.5
vt 0.373047 0.5
vt 0.529297 0.5

# verts
v -0.25 -0.1 0.15
v -0.25 -0.1 -0.15
v -0.25 0.1 0.15
v -0.25 0.1 -0.15
v 0.25 -0.1 0.15
v 0.25 -0.1 -0.15
v 0.25 0.1 0.15
v 0.25 0.1 -0.15
v -0.25 -0.1 0.15
v -0.25 0.1 0.15
v -0.15 0 0.15
v -0.15 0.1 0.15
v -0.05 0 0.15
v -0.05 0.1 0.15
v 0.05 0 0.15
v 0.05 0.1 0.15
v 0.15 0 0.15
v 0.15 0.1 0.15
v 0.25 -0.1 0.15
v 0.25 0.1 0.15
v -0.25 -0.1 -0.15
v -0.25 0.1 -0.15
v 0.25 -0.1 -0.15
v 0.25 0.1 -0.15
v -0.25 -0.1 0.15
v 0.25 -0.1 0.15
v -0.25 -0.1 -0.15
v 0.25 -0.1 -0.15
v -0.25 0.1 0.15
v -0.15 0.1 0.15
v -0.05 0.1 0.15
v 0.05 0.1 0.15
v 0.15 0.1 0.15
v 0.25 0.1 0.15
v -0.15 0.1 0.05
v -0.05 0.1 0.05
v 0.05 0.1 0.05
v 0.15 0.1 0.05
v -0.15 0.1 -0.05
v -0.05 0.1 -0.05
v 0.05 0.1 -0.05
v 0.15 0.1 -0.05
v -0.25 0.1 -0.15
v 0.25 0.1 -0.15

# faces
f 3/3/1 2/3/1 1/3/1
f 4/3/1 2/3/1 3/3/1
f 5/3/2 6/3/2 7/3/2
f 7/3/2 6/3/2 8/3/2
f 11/3/3 10/3/3 9/3/3
f 12/3/3 10/3/3 11/3/3
f 13/3/3 11/3/3 9/3/3
f 13/2/3 12/2/3 11/2/3
f 14/2/3 12/2/3 13/2/3
f 15/3/3 13/3/3 9/3/3
f 15/1/3 14/1/3 13/1/3
f 16/1/3 14/1/3 15/1/3
f 17/3/3 15/3/3 9/3/3
f 17/2/3 16/2/3 15/2/3
f 18/2/3 16/2/3 17/2/3
f 19/3/3 17/3/3 9/3/3
f 19/3/3 18/3/3 17/3/3
f 20/3/3 18/3/3 19/3/3
f 21/3/4 22/3/4 23/3/4
f 23/3/4 22/3/4 24/3/4
f 27/3/5 26/3/5 25/3/5
f 28/3/5 26/3/5 27/3/5
f 29/3/6 30/3/6 35/3/6
f 30/2/6 31/2/6 35/2/6
f 31/1/6 32/1/6 36/1/6
f 35/2/6 31/2/6 36/2/6
f 32/2/6 33/2/6 37/2/6
f 36/1/6 32/1/6 37/1/6
f 33/3/6 34/3/6 38/3/6
f 37/2/6 33/2/6 38/2/6
f 35/1/6 36/1/6 39/1/6
f 29/3/6 35/3/6 39/3/6
f 36/2/6 37/2/6 40/2/6
f 39/1/6 36/1/6 40/1/6
f 37/1/6 38/1/6 41/1/6
f 40/2/6 37/2/6 41/2/6
f 38/3/6 34/3/6 42/3/6
f 41/1/6 38/1/6 42/1/6
f 29/3/6 39/3/6 43/3/6
f 40/3/6 41/3/6 43/3/6
f 41/3/6 42/3/6 43/3/6
f 39/3/6 40/3/6 43/3/6
f 42/3/6 34/3/6 44/3/6
f 43/3/6 42/3/6 44/3/6
