# MagicaVoxel @ Ephtracy

# group
o Ammo_Long

# material
mtllib SH_Items-1-Ammo_Long.mtl
usemtl palette

# normals
vn -1 0 0
vn 1 0 0
vn 0 0 1
vn 0 0 -1
vn 0 -1 0
vn 0 1 0

# texcoords
vt 0.373047 0.5
vt 0.978516 0.5
vt 0.982422 0.5

# verts
v -0.2 -0.2 0
v -0.2 -0.2 -0.1
v -0.2 -0.1 0
v -0.2 -0.1 -0.1
v 0 -0.2 0.1
v 0 -0.2 0
v 0 -0.1 0
v 0 0 0.1
v 0 0 0
v 0 0.1 0.1
v 0 0.1 0
v 0 0.2 0.1
v 0 0.2 0
v 0.1 -0.2 0.1
v 0.1 -0.2 0
v 0.1 -0.1 0
v 0.1 0 0.1
v 0.1 0 0
v 0.1 0.1 0.1
v 0.1 0.1 0
v 0.1 0.2 0.1
v 0.1 0.2 0
v 0.2 -0.2 0
v 0.2 -0.2 -0.1
v 0.2 -0.1 0
v 0.2 -0.1 -0.1
v 0 -0.2 0.1
v 0 0 0.1
v 0 0.1 0.1
v 0 0.2 0.1
v 0.1 -0.2 0.1
v 0.1 0 0.1
v 0.1 0.1 0.1
v 0.1 0.2 0.1
v -0.2 -0.2 0
v -0.2 -0.1 0
v -0.1 -0.2 0
v -0.1 -0.1 0
v 0 -0.2 0
v 0 -0.1 0
v 0.1 -0.2 0
v 0.1 -0.1 0
v 0.2 -0.2 0
v 0.2 -0.1 0
v 0 -0.1 0
v 0 0 0
v 0 0.1 0
v 0 0.2 0
v 0.1 -0.1 0
v 0.1 0 0
v 0.1 0.1 0
v 0.1 0.2 0
v -0.2 -0.2 -0.1
v -0.2 -0.1 -0.1
v -0.1 -0.2 -0.1
v -0.1 -0.1 -0.1
v 0 -0.2 -0.1
v 0 -0.1 -0.1
v 0.2 -0.2 -0.1
v 0.2 -0.1 -0.1
v 0 -0.2 0.1
v 0.1 -0.2 0.1
v -0.2 -0.2 0
v -0.1 -0.2 0
v 0 -0.2 0
v 0.1 -0.2 0
v 0.2 -0.2 0
v -0.2 -0.2 -0.1
v -0.1 -0.2 -0.1
v 0 -0.2 -0.1
v 0.2 -0.2 -0.1
v -0.2 -0.1 0
v -0.1 -0.1 0
v 0 -0.1 0
v 0.1 -0.1 0
v 0.2 -0.1 0
v -0.2 -0.1 -0.1
v -0.1 -0.1 -0.1
v 0 -0.1 -0.1
v 0.2 -0.1 -0.1
v 0 0.2 0.1
v 0.1 0.2 0.1
v 0 0.2 0
v 0.1 0.2 0

# faces
f 3/2/1 2/2/1 1/2/1
f 4/2/1 2/2/1 3/2/1
f 7/1/1 6/1/1 5/1/1
f 8/1/1 7/1/1 5/1/1
f 9/1/1 7/1/1 8/1/1
f 10/3/1 9/3/1 8/3/1
f 11/3/1 9/3/1 10/3/1
f 12/2/1 11/2/1 10/2/1
f 13/2/1 11/2/1 12/2/1
f 14/1/2 15/1/2 16/1/2
f 14/1/2 16/1/2 17/1/2
f 17/1/2 16/1/2 18/1/2
f 17/3/2 18/3/2 19/3/2
f 19/3/2 18/3/2 20/3/2
f 19/2/2 20/2/2 21/2/2
f 21/2/2 20/2/2 22/2/2
f 23/1/2 24/1/2 25/1/2
f 25/1/2 24/1/2 26/1/2
f 31/1/3 28/1/3 27/1/3
f 32/3/3 29/3/3 28/3/3
f 32/1/3 28/1/3 31/1/3
f 33/2/3 30/2/3 29/2/3
f 33/3/3 29/3/3 32/3/3
f 34/2/3 30/2/3 33/2/3
f 37/2/3 36/2/3 35/2/3
f 38/2/3 36/2/3 37/2/3
f 39/3/3 38/3/3 37/3/3
f 40/3/3 38/3/3 39/3/3
f 43/1/3 42/1/3 41/1/3
f 44/1/3 42/1/3 43/1/3
f 45/1/4 46/1/4 49/1/4
f 46/3/4 47/3/4 50/3/4
f 49/1/4 46/1/4 50/1/4
f 47/2/4 48/2/4 51/2/4
f 50/3/4 47/3/4 51/3/4
f 51/2/4 48/2/4 52/2/4
f 53/2/4 54/2/4 55/2/4
f 55/2/4 54/2/4 56/2/4
f 55/3/4 56/3/4 57/3/4
f 57/3/4 56/3/4 58/3/4
f 57/1/4 58/1/4 59/1/4
f 59/1/4 58/1/4 60/1/4
f 65/1/5 62/1/5 61/1/5
f 66/1/5 62/1/5 65/1/5
f 68/2/5 64/2/5 63/2/5
f 69/3/5 65/3/5 64/3/5
f 69/2/5 64/2/5 68/2/5
f 70/1/5 67/1/5 66/1/5
f 70/3/5 65/3/5 69/3/5
f 70/1/5 66/1/5 65/1/5
f 71/1/5 67/1/5 70/1/5
f 72/2/6 73/2/6 77/2/6
f 73/3/6 74/3/6 78/3/6
f 77/2/6 73/2/6 78/2/6
f 75/1/6 76/1/6 79/1/6
f 78/3/6 74/3/6 79/3/6
f 74/1/6 75/1/6 79/1/6
f 79/1/6 76/1/6 80/1/6
f 81/2/6 82/2/6 83/2/6
f 83/2/6 82/2/6 84/2/6
