# MagicaVoxel @ Ephtracy

# group
o UpperArm_L

# material
mtllib SH_Soldier-7-UpperArm_L.mtl
usemtl palette

# normals
vn -1 0 0
vn 1 0 0
vn 0 0 1
vn 0 0 -1
vn 0 -1 0
vn 0 1 0

# texcoords
vt 0.115234 0.5
vt 0.341797 0.5
vt 0.955078 0.5

# verts
v -0.2 -0.1 0.1
v -0.2 -0.1 0
v -0.2 -0.1 -0.1
v -0.2 0.1 0.1
v -0.2 0.1 0
v -0.2 0.1 -0.1
v 0.2 -0.1 0.1
v 0.2 -0.1 -0.1
v 0.2 0.1 0.1
v 0.2 0.1 -0.1
v -0.2 -0.1 0.1
v -0.2 0.1 0.1
v 0 0 0.1
v 0 0.1 0.1
v 0.1 0 0.1
v 0.1 0.1 0.1
v 0.2 -0.1 0.1
v 0.2 0.1 0.1
v -0.2 -0.1 -0.1
v -0.2 0.1 -0.1
v -0.1 -0.1 -0.1
v -0.1 0.1 -0.1
v 0 0 -0.1
v 0 0.1 -0.1
v 0.1 0 -0.1
v 0.1 0.1 -0.1
v 0.2 -0.1 -0.1
v 0.2 0.1 -0.1
v -0.2 -0.1 0.1
v 0.2 -0.1 0.1
v -0.2 -0.1 0
v -0.1 -0.1 0
v -0.2 -0.1 -0.1
v -0.1 -0.1 -0.1
v 0.2 -0.1 -0.1
v -0.2 0.1 0.1
v 0 0.1 0.1
v 0.1 0.1 0.1
v 0.2 0.1 0.1
v -0.2 0.1 0
v -0.1 0.1 0
v -0.2 0.1 -0.1
v -0.1 0.1 -0.1
v 0 0.1 -0.1
v 0.1 0.1 -0.1
v 0.2 0.1 -0.1

# faces
f 4/2/1 2/2/1 1/2/1
f 5/3/1 3/3/1 2/3/1
f 5/2/1 2/2/1 4/2/1
f 6/3/1 3/3/1 5/3/1
f 7/2/2 8/2/2 9/2/2
f 9/2/2 8/2/2 10/2/2
f 13/2/3 12/2/3 11/2/3
f 14/2/3 12/2/3 13/2/3
f 15/2/3 13/2/3 11/2/3
f 15/1/3 14/1/3 13/1/3
f 16/1/3 14/1/3 15/1/3
f 17/2/3 15/2/3 11/2/3
f 17/2/3 16/2/3 15/2/3
f 18/2/3 16/2/3 17/2/3
f 19/3/4 20/3/4 21/3/4
f 21/3/4 20/3/4 22/3/4
f 21/2/4 22/2/4 23/2/4
f 23/2/4 22/2/4 24/2/4
f 21/2/4 23/2/4 25/2/4
f 23/1/4 24/1/4 25/1/4
f 25/1/4 24/1/4 26/1/4
f 21/2/4 25/2/4 27/2/4
f 25/2/4 26/2/4 27/2/4
f 27/2/4 26/2/4 28/2/4
f 31/2/5 30/2/5 29/2/5
f 32/2/5 30/2/5 31/2/5
f 33/3/5 32/3/5 31/3/5
f 34/2/5 30/2/5 32/2/5
f 34/3/5 32/3/5 33/3/5
f 35/2/5 30/2/5 34/2/5
f 36/2/6 37/2/6 40/2/6
f 40/2/6 37/2/6 41/2/6
f 40/3/6 41/3/6 42/3/6
f 41/2/6 37/2/6 43/2/6
f 42/3/6 41/3/6 43/3/6
f 37/1/6 38/1/6 44/1/6
f 43/2/6 37/2/6 44/2/6
f 38/2/6 39/2/6 45/2/6
f 44/1/6 38/1/6 45/1/6
f 45/2/6 39/2/6 46/2/6
