# MagicaVoxel @ Ephtracy

# group
o MP-18 Mag

# material
mtllib Weapons-3-MP-18 Mag.mtl
usemtl palette

# normals
vn -1 0 0
vn 1 0 0
vn 0 0 1
vn 0 0 -1
vn 0 -1 0
vn 0 1 0

# texcoords
vt 0.951172 0.5
vt 0.990234 0.5

# verts
v -0.45 -0.05 -0.15
v -0.45 -0.05 -0.35
v -0.45 0.05 -0.15
v -0.45 0.05 -0.35
v -0.35 -0.25 0.05
v -0.35 -0.25 -0.05
v -0.35 -0.25 -0.45
v -0.35 -0.15 0.05
v -0.35 -0.15 -0.05
v -0.35 -0.15 -0.15
v -0.35 -0.15 -0.45
v -0.35 -0.15 -0.55
v -0.35 -0.05 -0.15
v -0.35 -0.05 -0.35
v -0.35 0.05 -0.15
v -0.35 0.05 -0.35
v -0.35 0.15 -0.05
v -0.35 0.15 -0.15
v -0.35 0.15 -0.45
v -0.35 0.15 -0.55
v -0.35 0.25 -0.15
v -0.35 0.25 -0.45
v -0.25 -0.25 0.15
v -0.25 -0.25 0.05
v -0.25 -0.15 0.15
v -0.25 -0.15 0.05
v -0.15 -0.25 0.25
v -0.15 -0.25 0.15
v -0.15 -0.15 0.25
v -0.15 -0.15 0.15
v -0.05 -0.25 0.35
v -0.05 -0.25 0.25
v -0.05 -0.15 0.35
v -0.05 -0.15 0.25
v 0.05 -0.25 0.45
v 0.05 -0.25 0.35
v 0.05 -0.15 0.45
v 0.05 -0.15 0.35
v 0.15 -0.25 0.55
v 0.15 -0.25 0.45
v 0.15 -0.15 0.55
v 0.15 -0.15 0.45
v -0.15 -0.25 -0.15
v -0.15 -0.25 -0.45
v -0.15 -0.15 -0.05
v -0.15 -0.15 -0.15
v -0.15 -0.15 -0.45
v -0.15 -0.15 -0.55
v -0.15 0.15 -0.05
v -0.15 0.15 -0.15
v -0.15 0.15 -0.45
v -0.15 0.15 -0.55
v -0.15 0.25 -0.15
v -0.15 0.25 -0.45
v -0.05 -0.25 -0.05
v -0.05 -0.25 -0.15
v -0.05 -0.15 -0.05
v -0.05 -0.15 -0.15
v 0.05 -0.25 0.05
v 0.05 -0.25 -0.05
v 0.05 -0.15 0.05
v 0.05 -0.15 -0.05
v 0.15 -0.25 0.15
v 0.15 -0.25 0.05
v 0.15 -0.15 0.15
v 0.15 -0.15 0.05
v 0.25 -0.25 0.25
v 0.25 -0.25 0.15
v 0.25 -0.15 0.25
v 0.25 -0.15 0.15
v 0.35 -0.25 0.35
v 0.35 -0.25 0.25
v 0.35 -0.15 0.35
v 0.35 -0.15 0.25
v 0.45 -0.25 0.55
v 0.45 -0.25 0.35
v 0.45 -0.15 0.55
v 0.45 -0.15 0.35
v 0.15 -0.25 0.55
v 0.15 -0.15 0.55
v 0.25 -0.25 0.55
v 0.25 -0.15 0.55
v 0.45 -0.25 0.55
v 0.45 -0.15 0.55
v 0.05 -0.25 0.45
v 0.05 -0.15 0.45
v 0.15 -0.25 0.45
v 0.15 -0.15 0.45
v -0.05 -0.25 0.35
v -0.05 -0.15 0.35
v 0.05 -0.25 0.35
v 0.05 -0.15 0.35
v -0.15 -0.25 0.25
v -0.15 -0.15 0.25
v -0.05 -0.25 0.25
v -0.05 -0.15 0.25
v -0.25 -0.25 0.15
v -0.25 -0.15 0.15
v -0.15 -0.25 0.15
v -0.15 -0.15 0.15
v -0.35 -0.25 0.05
v -0.35 -0.15 0.05
v -0.25 -0.25 0.05
v -0.25 -0.15 0.05
v -0.35 -0.15 -0.05
v -0.35 0.15 -0.05
v -0.25 -0.15 -0.05
v -0.15 -0.15 -0.05
v -0.15 0.15 -0.05
v -0.45 -0.05 -0.15
v -0.45 0.05 -0.15
v -0.35 -0.05 -0.15
v -0.35 0.05 -0.15
v -0.35 0.15 -0.15
v -0.35 0.25 -0.15
v -0.15 0.15 -0.15
v -0.15 0.25 -0.15
v 0.35 -0.25 0.35
v 0.35 -0.15 0.35
v 0.45 -0.25 0.35
v 0.45 -0.15 0.35
v 0.25 -0.25 0.25
v 0.25 -0.15 0.25
v 0.35 -0.25 0.25
v 0.35 -0.15 0.25
v 0.15 -0.25 0.15
v 0.15 -0.15 0.15
v 0.25 -0.25 0.15
v 0.25 -0.15 0.15
v 0.05 -0.25 0.05
v 0.05 -0.15 0.05
v 0.15 -0.25 0.05
v 0.15 -0.15 0.05
v -0.05 -0.25 -0.05
v -0.05 -0.15 -0.05
v 0.05 -0.25 -0.05
v 0.05 -0.15 -0.05
v -0.15 -0.25 -0.15
v -0.15 -0.15 -0.15
v -0.05 -0.25 -0.15
v -0.05 -0.15 -0.15
v -0.45 -0.05 -0.35
v -0.45 0.05 -0.35
v -0.35 -0.05 -0.35
v -0.35 0.05 -0.35
v -0.35 -0.25 -0.45
v -0.35 -0.15 -0.45
v -0.35 0.15 -0.45
v -0.35 0.25 -0.45
v -0.15 -0.25 -0.45
v -0.15 -0.15 -0.45
v -0.15 0.15 -0.45
v -0.15 0.25 -0.45
v -0.35 -0.15 -0.55
v -0.35 0.15 -0.55
v -0.15 -0.15 -0.55
v -0.15 0.15 -0.55
v 0.15 -0.25 0.55
v 0.25 -0.25 0.55
v 0.45 -0.25 0.55
v 0.05 -0.25 0.45
v 0.15 -0.25 0.45
v 0.25 -0.25 0.45
v -0.05 -0.25 0.35
v 0.05 -0.25 0.35
v 0.15 -0.25 0.35
v 0.35 -0.25 0.35
v 0.45 -0.25 0.35
v -0.15 -0.25 0.25
v -0.05 -0.25 0.25
v 0.05 -0.25 0.25
v 0.25 -0.25 0.25
v 0.35 -0.25 0.25
v -0.25 -0.25 0.15
v -0.15 -0.25 0.15
v -0.05 -0.25 0.15
v 0.15 -0.25 0.15
v 0.25 -0.25 0.15
v -0.35 -0.25 0.05
v -0.25 -0.25 0.05
v -0.15 -0.25 0.05
v 0.05 -0.25 0.05
v 0.15 -0.25 0.05
v -0.35 -0.25 -0.05
v -0.25 -0.25 -0.05
v -0.05 -0.25 -0.05
v 0.05 -0.25 -0.05
v -0.15 -0.25 -0.15
v -0.05 -0.25 -0.15
v -0.35 -0.25 -0.45
v -0.15 -0.25 -0.45
v -0.35 -0.15 -0.45
v -0.15 -0.15 -0.45
v -0.35 -0.15 -0.55
v -0.15 -0.15 -0.55
v -0.45 -0.05 -0.15
v -0.35 -0.05 -0.15
v -0.45 -0.05 -0.35
v -0.35 -0.05 -0.35
v 0.15 -0.15 0.55
v 0.25 -0.15 0.55
v 0.45 -0.15 0.55
v 0.05 -0.15 0.45
v 0.15 -0.15 0.45
v 0.25 -0.15 0.45
v -0.05 -0.15 0.35
v 0.05 -0.15 0.35
v 0.15 -0.15 0.35
v 0.35 -0.15 0.35
v 0.45 -0.15 0.35
v -0.15 -0.15 0.25
v -0.05 -0.15 0.25
v 0.05 -0.15 0.25
v 0.25 -0.15 0.25
v 0.35 -0.15 0.25
v -0.25 -0.15 0.15
v -0.15 -0.15 0.15
v -0.05 -0.15 0.15
v 0.15 -0.15 0.15
v 0.25 -0.15 0.15
v -0.35 -0.15 0.05
v -0.25 -0.15 0.05
v -0.15 -0.15 0.05
v 0.05 -0.15 0.05
v 0.15 -0.15 0.05
v -0.35 -0.15 -0.05
v -0.25 -0.15 -0.05
v -0.15 -0.15 -0.05
v -0.05 -0.15 -0.05
v 0.05 -0.15 -0.05
v -0.15 -0.15 -0.15
v -0.05 -0.15 -0.15
v -0.45 0.05 -0.15
v -0.35 0.05 -0.15
v -0.45 0.05 -0.35
v -0.35 0.05 -0.35
v -0.35 0.15 -0.05
v -0.15 0.15 -0.05
v -0.35 0.15 -0.15
v -0.15 0.15 -0.15
v -0.35 0.15 -0.45
v -0.15 0.15 -0.45
v -0.35 0.15 -0.55
v -0.15 0.15 -0.55
v -0.35 0.25 -0.15
v -0.15 0.25 -0.15
v -0.35 0.25 -0.45
v -0.15 0.25 -0.45

# faces
f 3/2/1 2/2/1 1/2/1
f 4/2/1 2/2/1 3/2/1
f 8/1/1 6/1/1 5/1/1
f 9/2/1 7/2/1 6/2/1
f 9/1/1 6/1/1 8/1/1
f 10/2/1 7/2/1 9/2/1
f 11/2/1 7/2/1 10/2/1
f 13/2/1 10/2/1 9/2/1
f 13/1/1 11/1/1 10/1/1
f 14/1/1 11/1/1 13/1/1
f 15/2/1 13/2/1 9/2/1
f 16/1/1 11/1/1 14/1/1
f 17/2/1 15/2/1 9/2/1
f 18/1/1 16/1/1 15/1/1
f 18/2/1 15/2/1 17/2/1
f 19/2/1 12/2/1 11/2/1
f 19/1/1 16/1/1 18/1/1
f 19/1/1 11/1/1 16/1/1
f 20/2/1 12/2/1 19/2/1
f 21/2/1 19/2/1 18/2/1
f 22/2/1 19/2/1 21/2/1
f 25/1/1 24/1/1 23/1/1
f 26/1/1 24/1/1 25/1/1
f 29/1/1 28/1/1 27/1/1
f 30/1/1 28/1/1 29/1/1
f 33/1/1 32/1/1 31/1/1
f 34/1/1 32/1/1 33/1/1
f 37/1/1 36/1/1 35/1/1
f 38/1/1 36/1/1 37/1/1
f 41/1/1 40/1/1 39/1/1
f 42/1/1 40/1/1 41/1/1
f 43/2/2 44/2/2 46/2/2
f 46/2/2 44/2/2 47/2/2
f 45/2/2 46/2/2 49/2/2
f 46/1/2 47/1/2 50/1/2
f 49/2/2 46/2/2 50/2/2
f 47/2/2 48/2/2 51/2/2
f 50/1/2 47/1/2 51/1/2
f 51/2/2 48/2/2 52/2/2
f 50/2/2 51/2/2 53/2/2
f 53/2/2 51/2/2 54/2/2
f 55/2/2 56/2/2 57/2/2
f 57/2/2 56/2/2 58/2/2
f 59/2/2 60/2/2 61/2/2
f 61/2/2 60/2/2 62/2/2
f 63/2/2 64/2/2 65/2/2
f 65/2/2 64/2/2 66/2/2
f 67/2/2 68/2/2 69/2/2
f 69/2/2 68/2/2 70/2/2
f 71/2/2 72/2/2 73/2/2
f 73/2/2 72/2/2 74/2/2
f 75/2/2 76/2/2 77/2/2
f 77/2/2 76/2/2 78/2/2
f 81/1/3 80/1/3 79/1/3
f 82/1/3 80/1/3 81/1/3
f 83/2/3 82/2/3 81/2/3
f 84/2/3 82/2/3 83/2/3
f 87/1/3 86/1/3 85/1/3
f 88/1/3 86/1/3 87/1/3
f 91/1/3 90/1/3 89/1/3
f 92/1/3 90/1/3 91/1/3
f 95/1/3 94/1/3 93/1/3
f 96/1/3 94/1/3 95/1/3
f 99/1/3 98/1/3 97/1/3
f 100/1/3 98/1/3 99/1/3
f 103/1/3 102/1/3 101/1/3
f 104/1/3 102/1/3 103/1/3
f 107/2/3 106/2/3 105/2/3
f 108/2/3 106/2/3 107/2/3
f 109/2/3 106/2/3 108/2/3
f 112/2/3 111/2/3 110/2/3
f 113/2/3 111/2/3 112/2/3
f 116/2/3 115/2/3 114/2/3
f 117/2/3 115/2/3 116/2/3
f 118/2/4 119/2/4 120/2/4
f 120/2/4 119/2/4 121/2/4
f 122/2/4 123/2/4 124/2/4
f 124/2/4 123/2/4 125/2/4
f 126/2/4 127/2/4 128/2/4
f 128/2/4 127/2/4 129/2/4
f 130/2/4 131/2/4 132/2/4
f 132/2/4 131/2/4 133/2/4
f 134/2/4 135/2/4 136/2/4
f 136/2/4 135/2/4 137/2/4
f 138/2/4 139/2/4 140/2/4
f 140/2/4 139/2/4 141/2/4
f 142/2/4 143/2/4 144/2/4
f 144/2/4 143/2/4 145/2/4
f 146/2/4 147/2/4 150/2/4
f 150/2/4 147/2/4 151/2/4
f 148/2/4 149/2/4 152/2/4
f 152/2/4 149/2/4 153/2/4
f 154/2/4 155/2/4 156/2/4
f 156/2/4 155/2/4 157/2/4
f 162/1/5 159/1/5 158/1/5
f 163/2/5 160/2/5 159/2/5
f 163/1/5 159/1/5 162/1/5
f 165/1/5 162/1/5 161/1/5
f 166/2/5 163/2/5 162/2/5
f 166/1/5 162/1/5 165/1/5
f 167/2/5 160/2/5 163/2/5
f 167/2/5 163/2/5 166/2/5
f 168/2/5 160/2/5 167/2/5
f 170/1/5 165/1/5 164/1/5
f 171/2/5 166/2/5 165/2/5
f 171/2/5 167/2/5 166/2/5
f 171/1/5 165/1/5 170/1/5
f 172/2/5 167/2/5 171/2/5
f 173/2/5 167/2/5 172/2/5
f 175/1/5 170/1/5 169/1/5
f 176/2/5 171/2/5 170/2/5
f 176/2/5 172/2/5 171/2/5
f 176/1/5 170/1/5 175/1/5
f 177/2/5 172/2/5 176/2/5
f 178/2/5 172/2/5 177/2/5
f 180/1/5 175/1/5 174/1/5
f 181/2/5 176/2/5 175/2/5
f 181/2/5 177/2/5 176/2/5
f 181/1/5 175/1/5 180/1/5
f 182/2/5 177/2/5 181/2/5
f 183/2/5 177/2/5 182/2/5
f 184/1/5 180/1/5 179/1/5
f 185/2/5 181/2/5 180/2/5
f 185/1/5 180/1/5 184/1/5
f 185/2/5 182/2/5 181/2/5
f 186/2/5 182/2/5 185/2/5
f 187/2/5 182/2/5 186/2/5
f 188/2/5 185/2/5 184/2/5
f 188/2/5 186/2/5 185/2/5
f 189/2/5 186/2/5 188/2/5
f 190/2/5 188/2/5 184/2/5
f 191/2/5 188/2/5 190/2/5
f 194/2/5 193/2/5 192/2/5
f 195/2/5 193/2/5 194/2/5
f 198/2/5 197/2/5 196/2/5
f 199/2/5 197/2/5 198/2/5
f 200/1/6 201/1/6 204/1/6
f 201/2/6 202/2/6 205/2/6
f 204/1/6 201/1/6 205/1/6
f 203/1/6 204/1/6 207/1/6
f 204/2/6 205/2/6 208/2/6
f 207/1/6 204/1/6 208/1/6
f 205/2/6 202/2/6 209/2/6
f 208/2/6 205/2/6 209/2/6
f 209/2/6 202/2/6 210/2/6
f 206/1/6 207/1/6 212/1/6
f 207/2/6 208/2/6 213/2/6
f 208/2/6 209/2/6 213/2/6
f 212/1/6 207/1/6 213/1/6
f 213/2/6 209/2/6 214/2/6
f 214/2/6 209/2/6 215/2/6
f 211/1/6 212/1/6 217/1/6
f 212/2/6 213/2/6 218/2/6
f 213/2/6 214/2/6 218/2/6
f 217/1/6 212/1/6 218/1/6
f 218/2/6 214/2/6 219/2/6
f 219/2/6 214/2/6 220/2/6
f 216/1/6 217/1/6 222/1/6
f 217/2/6 218/2/6 223/2/6
f 218/2/6 219/2/6 223/2/6
f 222/1/6 217/1/6 223/1/6
f 223/2/6 219/2/6 224/2/6
f 224/2/6 219/2/6 225/2/6
f 221/1/6 222/1/6 226/1/6
f 222/2/6 223/2/6 227/2/6
f 226/1/6 222/1/6 227/1/6
f 223/2/6 224/2/6 227/2/6
f 227/2/6 224/2/6 228/2/6
f 228/2/6 224/2/6 229/2/6
f 229/2/6 224/2/6 230/2/6
f 228/2/6 229/2/6 231/2/6
f 231/2/6 229/2/6 232/2/6
f 233/2/6 234/2/6 235/2/6
f 235/2/6 234/2/6 236/2/6
f 237/2/6 238/2/6 239/2/6
f 239/2/6 238/2/6 240/2/6
f 241/2/6 242/2/6 243/2/6
f 243/2/6 242/2/6 244/2/6
f 245/2/6 246/2/6 247/2/6
f 247/2/6 246/2/6 248/2/6
