# MagicaVoxel @ Ephtracy

# group
o Model 10 Pump

# material
mtllib Weapons-24-Model 10 Pump.mtl
usemtl palette

# normals
vn -1 0 0
vn 1 0 0
vn 0 0 1
vn 0 0 -1
vn 0 -1 0
vn 0 1 0

# texcoords
vt 0.310547 0.5
vt 0.341797 0.5

# verts
v -0.5 -0.1 0.15
v -0.5 -0.1 -0.15
v -0.5 0 0.05
v -0.5 0 -0.05
v -0.5 0.1 0.15
v -0.5 0.1 0.05
v -0.5 0.1 -0.05
v -0.5 0.1 -0.15
v 0.5 -0.1 0.15
v 0.5 -0.1 -0.15
v 0.5 0 0.05
v 0.5 0 -0.05
v 0.5 0.1 0.15
v 0.5 0.1 0.05
v 0.5 0.1 -0.05
v 0.5 0.1 -0.15
v -0.5 -0.1 0.15
v -0.5 0.1 0.15
v -0.4 -0.1 0.15
v -0.4 0.1 0.15
v -0.3 -0.1 0.15
v -0.3 0.1 0.15
v -0.2 -0.1 0.15
v -0.2 0.1 0.15
v -0.1 -0.1 0.15
v -0.1 0.1 0.15
v 0 -0.1 0.15
v 0 0.1 0.15
v 0.1 -0.1 0.15
v 0.1 0.1 0.15
v 0.2 -0.1 0.15
v 0.2 0.1 0.15
v 0.3 -0.1 0.15
v 0.3 0.1 0.15
v 0.4 -0.1 0.15
v 0.4 0.1 0.15
v 0.5 -0.1 0.15
v 0.5 0.1 0.15
v -0.5 0 -0.05
v -0.5 0.1 -0.05
v -0.4 0 -0.05
v -0.4 0.1 -0.05
v -0.3 0 -0.05
v -0.3 0.1 -0.05
v -0.2 0 -0.05
v -0.2 0.1 -0.05
v -0.1 0 -0.05
v -0.1 0.1 -0.05
v 0 0 -0.05
v 0 0.1 -0.05
v 0.1 0 -0.05
v 0.1 0.1 -0.05
v 0.2 0 -0.05
v 0.2 0.1 -0.05
v 0.3 0 -0.05
v 0.3 0.1 -0.05
v 0.4 0 -0.05
v 0.4 0.1 -0.05
v 0.5 0 -0.05
v 0.5 0.1 -0.05
v -0.5 0 0.05
v -0.5 0.1 0.05
v -0.4 0 0.05
v -0.4 0.1 0.05
v -0.3 0 0.05
v -0.3 0.1 0.05
v -0.2 0 0.05
v -0.2 0.1 0.05
v -0.1 0 0.05
v -0.1 0.1 0.05
v 0 0 0.05
v 0 0.1 0.05
v 0.1 0 0.05
v 0.1 0.1 0.05
v 0.2 0 0.05
v 0.2 0.1 0.05
v 0.3 0 0.05
v 0.3 0.1 0.05
v 0.4 0 0.05
v 0.4 0.1 0.05
v 0.5 0 0.05
v 0.5 0.1 0.05
v -0.5 -0.1 -0.15
v -0.5 0.1 -0.15
v -0.4 -0.1 -0.15
v -0.4 0.1 -0.15
v -0.3 -0.1 -0.15
v -0.3 0.1 -0.15
v -0.2 -0.1 -0.15
v -0.2 0.1 -0.15
v -0.1 -0.1 -0.15
v -0.1 0.1 -0.15
v 0 -0.1 -0.15
v 0 0.1 -0.15
v 0.1 -0.1 -0.15
v 0.1 0.1 -0.15
v 0.2 -0.1 -0.15
v 0.2 0.1 -0.15
v 0.3 -0.1 -0.15
v 0.3 0.1 -0.15
v 0.4 -0.1 -0.15
v 0.4 0.1 -0.15
v 0.5 -0.1 -0.15
v 0.5 0.1 -0.15
v -0.5 -0.1 0.15
v -0.4 -0.1 0.15
v -0.3 -0.1 0.15
v -0.2 -0.1 0.15
v -0.1 -0.1 0.15
v 0 -0.1 0.15
v 0.1 -0.1 0.15
v 0.2 -0.1 0.15
v 0.3 -0.1 0.15
v 0.4 -0.1 0.15
v 0.5 -0.1 0.15
v -0.5 -0.1 -0.15
v -0.4 -0.1 -0.15
v -0.3 -0.1 -0.15
v -0.2 -0.1 -0.15
v -0.1 -0.1 -0.15
v 0 -0.1 -0.15
v 0.1 -0.1 -0.15
v 0.2 -0.1 -0.15
v 0.3 -0.1 -0.15
v 0.4 -0.1 -0.15
v 0.5 -0.1 -0.15
v -0.5 0 0.05
v -0.4 0 0.05
v -0.3 0 0.05
v -0.2 0 0.05
v -0.1 0 0.05
v 0 0 0.05
v 0.1 0 0.05
v 0.2 0 0.05
v 0.3 0 0.05
v 0.4 0 0.05
v 0.5 0 0.05
v -0.5 0 -0.05
v -0.4 0 -0.05
v -0.3 0 -0.05
v -0.2 0 -0.05
v -0.1 0 -0.05
v 0 0 -0.05
v 0.1 0 -0.05
v 0.2 0 -0.05
v 0.3 0 -0.05
v 0.4 0 -0.05
v 0.5 0 -0.05
v -0.5 0.1 0.15
v -0.4 0.1 0.15
v -0.3 0.1 0.15
v -0.2 0.1 0.15
v -0.1 0.1 0.15
v 0 0.1 0.15
v 0.1 0.1 0.15
v 0.2 0.1 0.15
v 0.3 0.1 0.15
v 0.4 0.1 0.15
v 0.5 0.1 0.15
v -0.5 0.1 0.05
v -0.4 0.1 0.05
v -0.3 0.1 0.05
v -0.2 0.1 0.05
v -0.1 0.1 0.05
v 0 0.1 0.05
v 0.1 0.1 0.05
v 0.2 0.1 0.05
v 0.3 0.1 0.05
v 0.4 0.1 0.05
v 0.5 0.1 0.05
v -0.5 0.1 -0.05
v -0.4 0.1 -0.05
v -0.3 0.1 -0.05
v -0.2 0.1 -0.05
v -0.1 0.1 -0.05
v 0 0.1 -0.05
v 0.1 0.1 -0.05
v 0.2 0.1 -0.05
v 0.3 0.1 -0.05
v 0.4 0.1 -0.05
v 0.5 0.1 -0.05
v -0.5 0.1 -0.15
v -0.4 0.1 -0.15
v -0.3 0.1 -0.15
v -0.2 0.1 -0.15
v -0.1 0.1 -0.15
v 0 0.1 -0.15
v 0.1 0.1 -0.15
v 0.2 0.1 -0.15
v 0.3 0.1 -0.15
v 0.4 0.1 -0.15
v 0.5 0.1 -0.15

# faces
f 3/2/1 2/2/1 1/2/1
f 4/2/1 2/2/1 3/2/1
f 5/2/1 3/2/1 1/2/1
f 6/2/1 3/2/1 5/2/1
f 7/2/1 2/2/1 4/2/1
f 8/2/1 2/2/1 7/2/1
f 9/1/2 10/1/2 11/1/2
f 11/1/2 10/1/2 12/1/2
f 9/1/2 11/1/2 13/1/2
f 13/1/2 11/1/2 14/1/2
f 12/1/2 10/1/2 15/1/2
f 15/1/2 10/1/2 16/1/2
f 19/2/3 18/2/3 17/2/3
f 20/2/3 18/2/3 19/2/3
f 21/1/3 20/1/3 19/1/3
f 22/1/3 20/1/3 21/1/3
f 23/2/3 22/2/3 21/2/3
f 24/2/3 22/2/3 23/2/3
f 25/1/3 24/1/3 23/1/3
f 26/1/3 24/1/3 25/1/3
f 27/2/3 26/2/3 25/2/3
f 28/2/3 26/2/3 27/2/3
f 29/1/3 28/1/3 27/1/3
f 30/1/3 28/1/3 29/1/3
f 31/2/3 30/2/3 29/2/3
f 32/2/3 30/2/3 31/2/3
f 33/1/3 32/1/3 31/1/3
f 34/1/3 32/1/3 33/1/3
f 35/2/3 34/2/3 33/2/3
f 36/2/3 34/2/3 35/2/3
f 37/1/3 36/1/3 35/1/3
f 38/1/3 36/1/3 37/1/3
f 41/2/3 40/2/3 39/2/3
f 42/2/3 40/2/3 41/2/3
f 43/1/3 42/1/3 41/1/3
f 44/1/3 42/1/3 43/1/3
f 45/2/3 44/2/3 43/2/3
f 46/2/3 44/2/3 45/2/3
f 47/1/3 46/1/3 45/1/3
f 48/1/3 46/1/3 47/1/3
f 49/2/3 48/2/3 47/2/3
f 50/2/3 48/2/3 49/2/3
f 51/1/3 50/1/3 49/1/3
f 52/1/3 50/1/3 51/1/3
f 53/2/3 52/2/3 51/2/3
f 54/2/3 52/2/3 53/2/3
f 55/1/3 54/1/3 53/1/3
f 56/1/3 54/1/3 55/1/3
f 57/2/3 56/2/3 55/2/3
f 58/2/3 56/2/3 57/2/3
f 59/1/3 58/1/3 57/1/3
f 60/1/3 58/1/3 59/1/3
f 61/2/4 62/2/4 63/2/4
f 63/2/4 62/2/4 64/2/4
f 63/1/4 64/1/4 65/1/4
f 65/1/4 64/1/4 66/1/4
f 65/2/4 66/2/4 67/2/4
f 67/2/4 66/2/4 68/2/4
f 67/1/4 68/1/4 69/1/4
f 69/1/4 68/1/4 70/1/4
f 69/2/4 70/2/4 71/2/4
f 71/2/4 70/2/4 72/2/4
f 71/1/4 72/1/4 73/1/4
f 73/1/4 72/1/4 74/1/4
f 73/2/4 74/2/4 75/2/4
f 75/2/4 74/2/4 76/2/4
f 75/1/4 76/1/4 77/1/4
f 77/1/4 76/1/4 78/1/4
f 77/2/4 78/2/4 79/2/4
f 79/2/4 78/2/4 80/2/4
f 79/1/4 80/1/4 81/1/4
f 81/1/4 80/1/4 82/1/4
f 83/2/4 84/2/4 85/2/4
f 85/2/4 84/2/4 86/2/4
f 85/1/4 86/1/4 87/1/4
f 87/1/4 86/1/4 88/1/4
f 87/2/4 88/2/4 89/2/4
f 89/2/4 88/2/4 90/2/4
f 89/1/4 90/1/4 91/1/4
f 91/1/4 90/1/4 92/1/4
f 91/2/4 92/2/4 93/2/4
f 93/2/4 92/2/4 94/2/4
f 93/1/4 94/1/4 95/1/4
f 95/1/4 94/1/4 96/1/4
f 95/2/4 96/2/4 97/2/4
f 97/2/4 96/2/4 98/2/4
f 97/1/4 98/1/4 99/1/4
f 99/1/4 98/1/4 100/1/4
f 99/2/4 100/2/4 101/2/4
f 101/2/4 100/2/4 102/2/4
f 101/1/4 102/1/4 103/1/4
f 103/1/4 102/1/4 104/1/4
f 116/2/5 106/2/5 105/2/5
f 117/1/5 107/1/5 106/1/5
f 117/2/5 106/2/5 116/2/5
f 118/2/5 108/2/5 107/2/5
f 118/1/5 107/1/5 117/1/5
f 119/1/5 109/1/5 108/1/5
f 119/2/5 108/2/5 118/2/5
f 120/2/5 110/2/5 109/2/5
f 120/1/5 109/1/5 119/1/5
f 121/1/5 111/1/5 110/1/5
f 121/2/5 110/2/5 120/2/5
f 122/2/5 112/2/5 111/2/5
f 122/1/5 111/1/5 121/1/5
f 123/1/5 113/1/5 112/1/5
f 123/2/5 112/2/5 122/2/5
f 124/2/5 114/2/5 113/2/5
f 124/1/5 113/1/5 123/1/5
f 125/1/5 115/1/5 114/1/5
f 125/2/5 114/2/5 124/2/5
f 126/1/5 115/1/5 125/1/5
f 127/2/6 128/2/6 138/2/6
f 128/1/6 129/1/6 139/1/6
f 138/2/6 128/2/6 139/2/6
f 129/2/6 130/2/6 140/2/6
f 139/1/6 129/1/6 140/1/6
f 130/1/6 131/1/6 141/1/6
f 140/2/6 130/2/6 141/2/6
f 131/2/6 132/2/6 142/2/6
f 141/1/6 131/1/6 142/1/6
f 132/1/6 133/1/6 143/1/6
f 142/2/6 132/2/6 143/2/6
f 133/2/6 134/2/6 144/2/6
f 143/1/6 133/1/6 144/1/6
f 134/1/6 135/1/6 145/1/6
f 144/2/6 134/2/6 145/2/6
f 135/2/6 136/2/6 146/2/6
f 145/1/6 135/1/6 146/1/6
f 136/1/6 137/1/6 147/1/6
f 146/2/6 136/2/6 147/2/6
f 147/1/6 137/1/6 148/1/6
f 149/2/6 150/2/6 160/2/6
f 150/1/6 151/1/6 161/1/6
f 160/2/6 150/2/6 161/2/6
f 151/2/6 152/2/6 162/2/6
f 161/1/6 151/1/6 162/1/6
f 152/1/6 153/1/6 163/1/6
f 162/2/6 152/2/6 163/2/6
f 153/2/6 154/2/6 164/2/6
f 163/1/6 153/1/6 164/1/6
f 154/1/6 155/1/6 165/1/6
f 164/2/6 154/2/6 165/2/6
f 155/2/6 156/2/6 166/2/6
f 165/1/6 155/1/6 166/1/6
f 156/1/6 157/1/6 167/1/6
f 166/2/6 156/2/6 167/2/6
f 157/2/6 158/2/6 168/2/6
f 167/1/6 157/1/6 168/1/6
f 158/1/6 159/1/6 169/1/6
f 168/2/6 158/2/6 169/2/6
f 169/1/6 159/1/6 170/1/6
f 171/2/6 172/2/6 182/2/6
f 172/1/6 173/1/6 183/1/6
f 182/2/6 172/2/6 183/2/6
f 173/2/6 174/2/6 184/2/6
f 183/1/6 173/1/6 184/1/6
f 174/1/6 175/1/6 185/1/6
f 184/2/6 174/2/6 185/2/6
f 175/2/6 176/2/6 186/2/6
f 185/1/6 175/1/6 186/1/6
f 176/1/6 177/1/6 187/1/6
f 186/2/6 176/2/6 187/2/6
f 177/2/6 178/2/6 188/2/6
f 187/1/6 177/1/6 188/1/6
f 178/1/6 179/1/6 189/1/6
f 188/2/6 178/2/6 189/2/6
f 179/2/6 180/2/6 190/2/6
f 189/1/6 179/1/6 190/1/6
f 180/1/6 181/1/6 191/1/6
f 190/2/6 180/2/6 191/2/6
f 191/1/6 181/1/6 192/1/6
