# MagicaVoxel @ Ephtracy

# group
o Refernce colors

# material
mtllib Weapons-0-Refernce colors.mtl
usemtl palette

# normals
vn -1 0 0
vn 1 0 0
vn 0 0 1
vn 0 0 -1
vn 0 -1 0
vn 0 1 0

# texcoords
vt 0.310547 0.5
vt 0.955078 0.5
vt 0.990234 0.5
vt 0.994141 0.5

# verts
v -0.5 -0.15 0.5
v -0.5 -0.15 0.4
v -0.5 -0.15 0.3
v -0.5 -0.15 0.2
v -0.5 -0.15 0.1
v -0.5 0.15 0.5
v -0.5 0.15 0.4
v -0.5 0.15 0.3
v -0.5 0.15 0.2
v -0.5 0.15 0.1
v 0.5 -0.15 0.5
v 0.5 -0.15 0.4
v 0.5 -0.15 0.3
v 0.5 -0.15 0.2
v 0.5 -0.15 0.1
v 0.5 0.15 0.5
v 0.5 0.15 0.4
v 0.5 0.15 0.3
v 0.5 0.15 0.2
v 0.5 0.15 0.1
v -0.5 -0.15 0.5
v -0.5 0.15 0.5
v 0.5 -0.15 0.5
v 0.5 0.15 0.5
v -0.5 -0.15 0.1
v -0.5 0.15 0.1
v 0.5 -0.15 0.1
v 0.5 0.15 0.1
v -0.5 -0.15 0.5
v 0.5 -0.15 0.5
v -0.5 -0.15 0.4
v 0.5 -0.15 0.4
v -0.5 -0.15 0.3
v 0.5 -0.15 0.3
v -0.5 -0.15 0.2
v 0.5 -0.15 0.2
v -0.5 -0.15 0.1
v 0.5 -0.15 0.1
v -0.5 0.15 0.5
v 0.5 0.15 0.5
v -0.5 0.15 0.4
v 0.5 0.15 0.4
v -0.5 0.15 0.3
v 0.5 0.15 0.3
v -0.5 0.15 0.2
v 0.5 0.15 0.2
v -0.5 0.15 0.1
v 0.5 0.15 0.1

# faces
f 6/1/1 2/1/1 1/1/1
f 7/2/1 3/2/1 2/2/1
f 7/1/1 2/1/1 6/1/1
f 8/4/1 4/4/1 3/4/1
f 8/2/1 3/2/1 7/2/1
f 9/3/1 5/3/1 4/3/1
f 9/4/1 4/4/1 8/4/1
f 10/3/1 5/3/1 9/3/1
f 11/1/2 12/1/2 16/1/2
f 12/2/2 13/2/2 17/2/2
f 16/1/2 12/1/2 17/1/2
f 13/4/2 14/4/2 18/4/2
f 17/2/2 13/2/2 18/2/2
f 14/3/2 15/3/2 19/3/2
f 18/4/2 14/4/2 19/4/2
f 19/3/2 15/3/2 20/3/2
f 23/1/3 22/1/3 21/1/3
f 24/1/3 22/1/3 23/1/3
f 25/3/4 26/3/4 27/3/4
f 27/3/4 26/3/4 28/3/4
f 31/1/5 30/1/5 29/1/5
f 32/1/5 30/1/5 31/1/5
f 33/2/5 32/2/5 31/2/5
f 34/2/5 32/2/5 33/2/5
f 35/4/5 34/4/5 33/4/5
f 36/4/5 34/4/5 35/4/5
f 37/3/5 36/3/5 35/3/5
f 38/3/5 36/3/5 37/3/5
f 39/1/6 40/1/6 41/1/6
f 41/1/6 40/1/6 42/1/6
f 41/2/6 42/2/6 43/2/6
f 43/2/6 42/2/6 44/2/6
f 43/4/6 44/4/6 45/4/6
f 45/4/6 44/4/6 46/4/6
f 45/3/6 46/3/6 47/3/6
f 47/3/6 46/3/6 48/3/6
