# MagicaVoxel @ Ephtracy

# group
o Entrenching Tool

# material
mtllib Weapons-13-Entrenching Tool.mtl
usemtl palette

# normals
vn -1 0 0
vn 1 0 0
vn 0 0 1
vn 0 0 -1
vn 0 -1 0
vn 0 1 0

# texcoords
vt 0.310547 0.5
vt 0.939453 0.5
vt 0.951172 0.5
vt 0.955078 0.5
vt 0.990234 0.5

# verts
v -0.5 1 -0.1
v -0.5 1 -0.7
v -0.5 1 -0.9
v -0.5 1.2 -0.1
v -0.5 1.2 -0.7
v -0.5 1.2 -0.9
v -0.3 1 -0.9
v -0.3 1 -1.1
v -0.3 1.2 -0.9
v -0.3 1.2 -1.1
v -0.1 -1.4 0.3
v -0.1 -1.4 -0.1
v -0.1 -1.2 0.3
v -0.1 -1.2 0.0999999
v -0.1 -1.2 -0.1
v -0.1 -0.4 0.3
v -0.1 -0.4 0.0999999
v -0.1 -0.4 -0.1
v -0.1 0.6 0.0999999
v -0.1 0.6 -0.1
v -0.1 0.8 1.3
v -0.1 0.8 1.1
v -0.1 1 1.3
v -0.1 1 1.1
v -0.1 1 0.9
v -0.1 1 0.3
v -0.1 1 -0.1
v -0.1 1 -1.1
v -0.1 1 -1.3
v -0.1 1.2 1.1
v -0.1 1.2 0.9
v -0.1 1.2 0.3
v -0.1 1.2 -0.1
v -0.1 1.2 -0.5
v -0.1 1.2 -0.7
v -0.1 1.2 -1.1
v -0.1 1.2 -1.3
v -0.1 1.4 0.3
v -0.1 1.4 -0.1
v -0.1 1.4 -0.7
v 0.1 -1.4 0.3
v 0.1 -1.4 -0.1
v 0.1 -1.2 0.3
v 0.1 -1.2 0.0999999
v 0.1 -1.2 -0.1
v 0.1 -0.4 0.3
v 0.1 -0.4 0.0999999
v 0.1 -0.4 -0.1
v 0.1 0.6 0.0999999
v 0.1 0.6 -0.1
v 0.1 0.8 1.3
v 0.1 0.8 1.1
v 0.1 1 1.3
v 0.1 1 1.1
v 0.1 1 0.9
v 0.1 1 0.3
v 0.1 1 -0.1
v 0.1 1 -1.1
v 0.1 1 -1.3
v 0.1 1.2 1.1
v 0.1 1.2 0.9
v 0.1 1.2 0.3
v 0.1 1.2 -0.1
v 0.1 1.2 -0.5
v 0.1 1.2 -0.7
v 0.1 1.2 -1.1
v 0.1 1.2 -1.3
v 0.1 1.4 0.3
v 0.1 1.4 -0.1
v 0.1 1.4 -0.7
v 0.3 1 -0.9
v 0.3 1 -1.1
v 0.3 1.2 -0.9
v 0.3 1.2 -1.1
v 0.5 1 -0.1
v 0.5 1 -0.3
v 0.5 1 -0.5
v 0.5 1 -0.9
v 0.5 1.2 -0.1
v 0.5 1.2 -0.3
v 0.5 1.2 -0.5
v 0.5 1.2 -0.9
v -0.1 0.8 1.3
v -0.1 1 1.3
v 0.1 0.8 1.3
v 0.1 1 1.3
v -0.1 1 1.1
v -0.1 1.2 1.1
v 0.1 1 1.1
v 0.1 1.2 1.1
v -0.1 -1.4 0.3
v -0.1 -1.2 0.3
v -0.1 -0.4 0.3
v -0.1 1 0.3
v -0.1 1.2 0.3
v -0.1 1.4 0.3
v 0.1 -1.4 0.3
v 0.1 -1.2 0.3
v 0.1 -0.4 0.3
v 0.1 1 0.3
v 0.1 1.2 0.3
v 0.1 1.4 0.3
v -0.5 1 -0.1
v -0.5 1.2 -0.1
v -0.3 1 -0.1
v -0.3 1.2 -0.1
v -0.1 1 -0.1
v -0.1 1.2 -0.1
v 0.1 1 -0.1
v 0.1 1.2 -0.1
v 0.5 1 -0.1
v 0.5 1.2 -0.1
v -0.1 0.8 1.1
v -0.1 1 1.1
v 0.1 0.8 1.1
v 0.1 1 1.1
v -0.1 -1.4 -0.1
v -0.1 -1.2 -0.1
v -0.1 -0.4 -0.1
v -0.1 0.6 -0.1
v -0.1 1 -0.1
v 0.1 -1.4 -0.1
v 0.1 -1.2 -0.1
v 0.1 -0.4 -0.1
v 0.1 0.6 -0.1
v 0.1 1 -0.1
v -0.1 1.2 -0.7
v -0.1 1.4 -0.7
v 0.1 1.2 -0.7
v 0.1 1.4 -0.7
v -0.5 1 -0.9
v -0.5 1.2 -0.9
v -0.3 1 -0.9
v -0.3 1.2 -0.9
v 0.3 1 -0.9
v 0.3 1.2 -0.9
v 0.5 1 -0.9
v 0.5 1.2 -0.9
v -0.3 1 -1.1
v -0.3 1.2 -1.1
v -0.1 1 -1.1
v -0.1 1.2 -1.1
v 0.1 1 -1.1
v 0.1 1.2 -1.1
v 0.3 1 -1.1
v 0.3 1.2 -1.1
v -0.1 1 -1.3
v -0.1 1.2 -1.3
v 0.1 1 -1.3
v 0.1 1.2 -1.3
v -0.1 -1.4 0.3
v 0.1 -1.4 0.3
v -0.1 -1.4 -0.1
v 0.1 -1.4 -0.1
v -0.1 0.8 1.3
v 0.1 0.8 1.3
v -0.1 0.8 1.1
v 0.1 0.8 1.1
v -0.1 1 1.1
v 0.1 1 1.1
v -0.1 1 0.9
v 0.1 1 0.9
v -0.1 1 0.3
v 0.1 1 0.3
v -0.5 1 -0.1
v -0.3 1 -0.1
v -0.1 1 -0.1
v 0.1 1 -0.1
v 0.5 1 -0.1
v 0.3 1 -0.3
v 0.5 1 -0.3
v -0.3 1 -0.5
v -0.1 1 -0.5
v 0.1 1 -0.5
v 0.3 1 -0.5
v 0.5 1 -0.5
v -0.5 1 -0.7
v -0.1 1 -0.7
v 0.1 1 -0.7
v 0.3 1 -0.7
v -0.5 1 -0.9
v -0.3 1 -0.9
v 0.1 1 -0.9
v 0.3 1 -0.9
v 0.5 1 -0.9
v -0.3 1 -1.1
v -0.1 1 -1.1
v 0.1 1 -1.1
v 0.3 1 -1.1
v -0.1 1 -1.3
v 0.1 1 -1.3
v -0.1 1 1.3
v 0.1 1 1.3
v -0.1 1 1.1
v 0.1 1 1.1
v -0.1 1.2 1.1
v 0.1 1.2 1.1
v -0.1 1.2 0.9
v 0.1 1.2 0.9
v -0.1 1.2 0.3
v 0.1 1.2 0.3
v -0.5 1.2 -0.1
v -0.3 1.2 -0.1
v -0.1 1.2 -0.1
v 0.1 1.2 -0.1
v 0.5 1.2 -0.1
v 0.3 1.2 -0.3
v 0.5 1.2 -0.3
v -0.3 1.2 -0.5
v -0.1 1.2 -0.5
v 0.1 1.2 -0.5
v 0.3 1.2 -0.5
v 0.5 1.2 -0.5
v -0.5 1.2 -0.7
v -0.1 1.2 -0.7
v 0.1 1.2 -0.7
v 0.3 1.2 -0.7
v -0.5 1.2 -0.9
v -0.3 1.2 -0.9
v 0.1 1.2 -0.9
v 0.3 1.2 -0.9
v 0.5 1.2 -0.9
v -0.3 1.2 -1.1
v -0.1 1.2 -1.1
v 0.1 1.2 -1.1
v 0.3 1.2 -1.1
v -0.1 1.2 -1.3
v 0.1 1.2 -1.3
v -0.1 1.4 0.3
v 0.1 1.4 0.3
v -0.1 1.4 -0.1
v 0.1 1.4 -0.1
v -0.1 1.4 -0.7
v 0.1 1.4 -0.7

# faces
f 4/3/1 2/3/1 1/3/1
f 5/4/1 3/4/1 2/4/1
f 5/3/1 2/3/1 4/3/1
f 6/4/1 3/4/1 5/4/1
f 9/4/1 8/4/1 7/4/1
f 10/4/1 8/4/1 9/4/1
f 13/5/1 12/5/1 11/5/1
f 14/5/1 12/5/1 13/5/1
f 15/5/1 12/5/1 14/5/1
f 16/4/1 14/4/1 13/4/1
f 17/1/1 15/1/1 14/1/1
f 17/4/1 14/4/1 16/4/1
f 18/1/1 15/1/1 17/1/1
f 19/1/1 17/1/1 16/1/1
f 19/4/1 18/4/1 17/4/1
f 20/4/1 18/4/1 19/4/1
f 23/4/1 22/4/1 21/4/1
f 24/4/1 22/4/1 23/4/1
f 26/1/1 19/1/1 16/1/1
f 26/1/1 20/1/1 19/1/1
f 27/1/1 20/1/1 26/1/1
f 30/4/1 25/4/1 24/4/1
f 31/3/1 27/3/1 26/3/1
f 31/4/1 25/4/1 30/4/1
f 31/3/1 26/3/1 25/3/1
f 32/3/1 27/3/1 31/3/1
f 33/3/1 27/3/1 32/3/1
f 36/4/1 29/4/1 28/4/1
f 37/4/1 29/4/1 36/4/1
f 38/2/1 33/2/1 32/2/1
f 39/3/1 35/3/1 34/3/1
f 39/2/1 33/2/1 38/2/1
f 39/3/1 34/3/1 33/3/1
f 40/3/1 35/3/1 39/3/1
f 41/5/2 42/5/2 43/5/2
f 43/5/2 42/5/2 44/5/2
f 44/5/2 42/5/2 45/5/2
f 43/4/2 44/4/2 46/4/2
f 44/1/2 45/1/2 47/1/2
f 46/4/2 44/4/2 47/4/2
f 47/1/2 45/1/2 48/1/2
f 46/1/2 47/1/2 49/1/2
f 47/4/2 48/4/2 49/4/2
f 49/4/2 48/4/2 50/4/2
f 51/4/2 52/4/2 53/4/2
f 53/4/2 52/4/2 54/4/2
f 46/1/2 49/1/2 56/1/2
f 49/1/2 50/1/2 56/1/2
f 56/1/2 50/1/2 57/1/2
f 54/4/2 55/4/2 60/4/2
f 56/3/2 57/3/2 61/3/2
f 60/4/2 55/4/2 61/4/2
f 55/3/2 56/3/2 61/3/2
f 61/3/2 57/3/2 62/3/2
f 62/3/2 57/3/2 63/3/2
f 58/4/2 59/4/2 66/4/2
f 66/4/2 59/4/2 67/4/2
f 62/2/2 63/2/2 68/2/2
f 64/3/2 65/3/2 69/3/2
f 68/2/2 63/2/2 69/2/2
f 63/3/2 64/3/2 69/3/2
f 69/3/2 65/3/2 70/3/2
f 71/4/2 72/4/2 73/4/2
f 73/4/2 72/4/2 74/4/2
f 75/3/2 76/3/2 79/3/2
f 76/4/2 77/4/2 80/4/2
f 79/3/2 76/3/2 80/3/2
f 77/3/2 78/3/2 81/3/2
f 80/4/2 77/4/2 81/4/2
f 81/3/2 78/3/2 82/3/2
f 85/4/3 84/4/3 83/4/3
f 86/4/3 84/4/3 85/4/3
f 89/4/3 88/4/3 87/4/3
f 90/4/3 88/4/3 89/4/3
f 97/5/3 92/5/3 91/5/3
f 98/4/3 93/4/3 92/4/3
f 98/5/3 92/5/3 97/5/3
f 99/1/3 94/1/3 93/1/3
f 99/4/3 93/4/3 98/4/3
f 100/1/3 94/1/3 99/1/3
f 101/2/3 96/2/3 95/2/3
f 102/2/3 96/2/3 101/2/3
f 105/3/3 104/3/3 103/3/3
f 106/3/3 104/3/3 105/3/3
f 107/4/3 106/4/3 105/4/3
f 108/4/3 106/4/3 107/4/3
f 111/3/3 110/3/3 109/3/3
f 112/3/3 110/3/3 111/3/3
f 113/4/4 114/4/4 115/4/4
f 115/4/4 114/4/4 116/4/4
f 117/5/4 118/5/4 122/5/4
f 118/1/4 119/1/4 123/1/4
f 122/5/4 118/5/4 123/5/4
f 119/4/4 120/4/4 124/4/4
f 123/1/4 119/1/4 124/1/4
f 120/1/4 121/1/4 125/1/4
f 124/4/4 120/4/4 125/4/4
f 125/1/4 121/1/4 126/1/4
f 127/3/4 128/3/4 129/3/4
f 129/3/4 128/3/4 130/3/4
f 131/4/4 132/4/4 133/4/4
f 133/4/4 132/4/4 134/4/4
f 135/3/4 136/3/4 137/3/4
f 137/3/4 136/3/4 138/3/4
f 139/4/4 140/4/4 141/4/4
f 141/4/4 140/4/4 142/4/4
f 143/4/4 144/4/4 145/4/4
f 145/4/4 144/4/4 146/4/4
f 147/4/4 148/4/4 149/4/4
f 149/4/4 148/4/4 150/4/4
f 153/5/5 152/5/5 151/5/5
f 154/5/5 152/5/5 153/5/5
f 157/4/5 156/4/5 155/4/5
f 158/4/5 156/4/5 157/4/5
f 161/4/5 160/4/5 159/4/5
f 162/4/5 160/4/5 161/4/5
f 163/3/5 162/3/5 161/3/5
f 164/3/5 162/3/5 163/3/5
f 170/3/5 168/3/5 167/3/5
f 170/3/5 169/3/5 168/3/5
f 171/3/5 169/3/5 170/3/5
f 172/3/5 166/3/5 165/3/5
f 172/4/5 167/4/5 166/4/5
f 173/3/5 170/3/5 167/3/5
f 173/4/5 167/4/5 172/4/5
f 174/3/5 170/3/5 173/3/5
f 175/4/5 171/4/5 170/4/5
f 175/3/5 170/3/5 174/3/5
f 176/4/5 171/4/5 175/4/5
f 177/3/5 174/3/5 173/3/5
f 177/3/5 172/3/5 165/3/5
f 177/3/5 173/3/5 172/3/5
f 178/3/5 174/3/5 177/3/5
f 179/4/5 175/4/5 174/4/5
f 179/3/5 174/3/5 178/3/5
f 180/3/5 176/3/5 175/3/5
f 180/4/5 175/4/5 179/4/5
f 181/4/5 178/4/5 177/4/5
f 182/4/5 178/4/5 181/4/5
f 183/3/5 179/3/5 178/3/5
f 183/3/5 180/3/5 179/3/5
f 184/3/5 176/3/5 180/3/5
f 184/3/5 180/3/5 183/3/5
f 185/3/5 176/3/5 184/3/5
f 186/4/5 178/4/5 182/4/5
f 187/3/5 183/3/5 178/3/5
f 187/4/5 178/4/5 186/4/5
f 188/4/5 184/4/5 183/4/5
f 188/3/5 183/3/5 187/3/5
f 189/4/5 184/4/5 188/4/5
f 190/4/5 188/4/5 187/4/5
f 191/4/5 188/4/5 190/4/5
f 192/4/6 193/4/6 194/4/6
f 194/4/6 193/4/6 195/4/6
f 196/4/6 197/4/6 198/4/6
f 198/4/6 197/4/6 199/4/6
f 198/3/6 199/3/6 200/3/6
f 200/3/6 199/3/6 201/3/6
f 205/3/6 206/3/6 207/3/6
f 207/3/6 206/3/6 208/3/6
f 203/4/6 204/4/6 209/4/6
f 202/3/6 203/3/6 209/3/6
f 209/4/6 204/4/6 210/4/6
f 205/3/6 207/3/6 211/3/6
f 207/4/6 208/4/6 212/4/6
f 211/3/6 207/3/6 212/3/6
f 212/4/6 208/4/6 213/4/6
f 209/3/6 210/3/6 214/3/6
f 202/3/6 209/3/6 214/3/6
f 214/3/6 210/3/6 215/3/6
f 211/4/6 212/4/6 216/4/6
f 212/3/6 213/3/6 217/3/6
f 216/4/6 212/4/6 217/4/6
f 214/4/6 215/4/6 218/4/6
f 218/4/6 215/4/6 219/4/6
f 215/3/6 216/3/6 220/3/6
f 216/3/6 217/3/6 220/3/6
f 217/3/6 213/3/6 221/3/6
f 220/3/6 217/3/6 221/3/6
f 221/3/6 213/3/6 222/3/6
f 219/4/6 215/4/6 223/4/6
f 215/3/6 220/3/6 224/3/6
f 223/4/6 215/4/6 224/4/6
f 220/4/6 221/4/6 225/4/6
f 224/3/6 220/3/6 225/3/6
f 225/4/6 221/4/6 226/4/6
f 224/4/6 225/4/6 227/4/6
f 227/4/6 225/4/6 228/4/6
f 229/2/6 230/2/6 231/2/6
f 231/2/6 230/2/6 232/2/6
f 231/3/6 232/3/6 233/3/6
f 233/3/6 232/3/6 234/3/6
