# MagicaVoxel @ Ephtracy

# group
o S&W Model 29

# material
mtllib Weapons-9-S&W Model 29.mtl
usemtl palette

# normals
vn -1 0 0
vn 1 0 0
vn 0 0 1
vn 0 0 -1
vn 0 -1 0
vn 0 1 0

# texcoords
vt 0.310547 0.5
vt 0.935547 0.5
vt 0.955078 0.5
vt 0.978516 0.5
vt 0.982422 0.5
vt 0.990234 0.5

# verts
v -0.9 -0.55 0.15
v -0.9 -0.55 0.05
v -0.9 -0.55 -0.05
v -0.9 -0.55 -0.15
v -0.9 -0.25 0.15
v -0.9 -0.25 0.05
v -0.9 -0.25 -0.05
v -0.9 -0.25 -0.15
v -0.8 -0.25 0.15
v -0.8 -0.25 0.05
v -0.8 -0.25 -0.05
v -0.8 -0.25 -0.15
v -0.8 -0.05 0.15
v -0.8 -0.05 0.05
v -0.8 -0.05 -0.05
v -0.8 -0.05 -0.15
v -0.7 -0.05 0.15
v -0.7 -0.05 0.05
v -0.7 -0.05 -0.05
v -0.7 -0.05 -0.15
v -0.7 0.15 0.15
v -0.7 0.15 0.05
v -0.7 0.15 -0.05
v -0.7 0.15 -0.15
v -0.6 0.15 0.15
v -0.6 0.15 0.05
v -0.6 0.15 -0.05
v -0.6 0.15 -0.15
v -0.6 0.25 0.15
v -0.6 0.25 -0.15
v -0.5 0.25 0.15
v -0.5 0.25 -0.15
v -0.5 0.35 0.15
v -0.5 0.35 -0.15
v -0.4 -0.35 0.05
v -0.4 -0.35 -0.05
v -0.4 -0.25 0.05
v -0.4 -0.25 -0.05
v -0.4 0.35 0.15
v -0.4 0.35 -0.15
v -0.4 0.45 0.15
v -0.4 0.45 -0.15
v -0.2 -0.25 0.05
v -0.2 -0.25 -0.05
v -0.2 -0.05 0.05
v -0.2 -0.05 -0.05
v -0.1 0.05 0.15
v -0.1 0.05 -0.15
v -0.1 0.35 0.15
v -0.1 0.35 -0.15
v 0.7 0.45 0.05
v 0.7 0.45 -0.05
v 0.7 0.55 0.05
v 0.7 0.55 -0.05
v -0.6 -0.55 0.15
v -0.6 -0.55 0.05
v -0.6 -0.55 -0.05
v -0.6 -0.55 -0.15
v -0.6 -0.25 0.15
v -0.6 -0.25 0.05
v -0.6 -0.25 -0.05
v -0.6 -0.25 -0.15
v -0.4 -0.25 0.15
v -0.4 -0.25 0.05
v -0.4 -0.25 -0.05
v -0.4 -0.25 -0.15
v -0.4 -0.15 0.15
v -0.4 -0.15 0.05
v -0.4 -0.15 -0.05
v -0.4 -0.15 -0.15
v -0.4 -0.05 0.15
v -0.4 -0.05 -0.15
v -0.4 0.05 0.15
v -0.4 0.05 -0.15
v -0.4 0.15 -0.05
v -0.4 0.15 -0.15
v -0.4 0.25 -0.05
v -0.4 0.25 -0.15
v -0.4 0.35 0.15
v -0.4 0.35 -0.15
v -0.2 -0.35 0.05
v -0.2 -0.35 -0.05
v -0.2 -0.25 0.05
v -0.2 -0.25 -0.05
v -0.1 -0.25 0.05
v -0.1 -0.25 -0.05
v -0.1 -0.05 0.05
v -0.1 -0.05 -0.05
v 0 -0.05 0.15
v 0 -0.05 -0.15
v 0 0.15 0.05
v 0 0.15 -0.05
v 0 0.25 0.05
v 0 0.25 -0.05
v 0 0.45 0.15
v 0 0.45 0.05
v 0 0.45 -0.05
v 0 0.45 -0.15
v 0.4 0.15 0.05
v 0.4 0.15 -0.05
v 0.4 0.25 0.05
v 0.4 0.25 -0.05
v 0.9 0.25 0.05
v 0.9 0.25 -0.05
v 0.9 0.35 0.05
v 0.9 0.35 -0.05
v 0.9 0.55 0.05
v 0.9 0.55 -0.05
v -0.9 -0.55 0.15
v -0.9 -0.25 0.15
v -0.8 -0.55 0.15
v -0.8 -0.35 0.15
v -0.8 -0.25 0.15
v -0.8 -0.05 0.15
v -0.7 -0.55 0.15
v -0.7 -0.35 0.15
v -0.7 -0.25 0.15
v -0.7 -0.05 0.15
v -0.7 0.15 0.15
v -0.6 -0.55 0.15
v -0.6 -0.25 0.15
v -0.6 -0.05 0.15
v -0.6 0.05 0.15
v -0.6 0.15 0.15
v -0.6 0.25 0.15
v -0.5 -0.25 0.15
v -0.5 -0.15 0.15
v -0.5 -0.05 0.15
v -0.5 0.05 0.15
v -0.5 0.25 0.15
v -0.5 0.35 0.15
v -0.4 -0.25 0.15
v -0.4 -0.15 0.15
v -0.4 -0.05 0.15
v -0.4 0.05 0.15
v -0.4 0.35 0.15
v -0.4 0.45 0.15
v -0.1 0.05 0.15
v -0.1 0.35 0.15
v 0 -0.05 0.15
v 0 0.45 0.15
v -0.4 -0.35 0.05
v -0.4 -0.25 0.05
v -0.2 -0.35 0.05
v -0.2 -0.25 0.05
v -0.2 -0.05 0.05
v -0.1 -0.25 0.05
v -0.1 -0.05 0.05
v 0 0.15 0.05
v 0 0.25 0.05
v 0 0.45 0.05
v 0.4 0.15 0.05
v 0.4 0.25 0.05
v 0.4 0.35 0.05
v 0.7 0.45 0.05
v 0.7 0.55 0.05
v 0.9 0.25 0.05
v 0.9 0.35 0.05
v 0.9 0.55 0.05
v -0.4 -0.35 -0.05
v -0.4 -0.25 -0.05
v -0.2 -0.35 -0.05
v -0.2 -0.25 -0.05
v -0.2 -0.05 -0.05
v -0.1 -0.25 -0.05
v -0.1 -0.05 -0.05
v 0 0.15 -0.05
v 0 0.25 -0.05
v 0 0.45 -0.05
v 0.4 0.15 -0.05
v 0.4 0.25 -0.05
v 0.4 0.35 -0.05
v 0.7 0.45 -0.05
v 0.7 0.55 -0.05
v 0.9 0.25 -0.05
v 0.9 0.35 -0.05
v 0.9 0.55 -0.05
v -0.9 -0.55 -0.15
v -0.9 -0.25 -0.15
v -0.8 -0.55 -0.15
v -0.8 -0.35 -0.15
v -0.8 -0.25 -0.15
v -0.8 -0.05 -0.15
v -0.7 -0.55 -0.15
v -0.7 -0.35 -0.15
v -0.7 -0.25 -0.15
v -0.7 -0.05 -0.15
v -0.7 0.15 -0.15
v -0.6 -0.55 -0.15
v -0.6 -0.25 -0.15
v -0.6 -0.05 -0.15
v -0.6 0.05 -0.15
v -0.6 0.15 -0.15
v -0.6 0.25 -0.15
v -0.5 -0.25 -0.15
v -0.5 -0.15 -0.15
v -0.5 -0.05 -0.15
v -0.5 0.05 -0.15
v -0.5 0.15 -0.15
v -0.5 0.25 -0.15
v -0.5 0.35 -0.15
v -0.4 -0.25 -0.15
v -0.4 -0.15 -0.15
v -0.4 -0.05 -0.15
v -0.4 0.05 -0.15
v -0.4 0.15 -0.15
v -0.4 0.25 -0.15
v -0.4 0.35 -0.15
v -0.4 0.45 -0.15
v -0.1 0.05 -0.15
v -0.1 0.35 -0.15
v 0 -0.05 -0.15
v 0 0.45 -0.15
v -0.9 -0.55 0.15
v -0.8 -0.55 0.15
v -0.7 -0.55 0.15
v -0.6 -0.55 0.15
v -0.9 -0.55 0.05
v -0.8 -0.55 0.05
v -0.7 -0.55 0.05
v -0.6 -0.55 0.05
v -0.9 -0.55 -0.05
v -0.8 -0.55 -0.05
v -0.7 -0.55 -0.05
v -0.6 -0.55 -0.05
v -0.9 -0.55 -0.15
v -0.8 -0.55 -0.15
v -0.7 -0.55 -0.15
v -0.6 -0.55 -0.15
v -0.4 -0.35 0.05
v -0.2 -0.35 0.05
v -0.4 -0.35 -0.05
v -0.2 -0.35 -0.05
v -0.6 -0.25 0.15
v -0.5 -0.25 0.15
v -0.4 -0.25 0.15
v -0.6 -0.25 0.05
v -0.5 -0.25 0.05
v -0.4 -0.25 0.05
v -0.2 -0.25 0.05
v -0.1 -0.25 0.05
v -0.6 -0.25 -0.05
v -0.5 -0.25 -0.05
v -0.4 -0.25 -0.05
v -0.2 -0.25 -0.05
v -0.1 -0.25 -0.05
v -0.6 -0.25 -0.15
v -0.5 -0.25 -0.15
v -0.4 -0.25 -0.15
v -0.4 -0.05 0.15
v 0 -0.05 0.15
v -0.2 -0.05 0.05
v -0.1 -0.05 0.05
v -0.2 -0.05 -0.05
v -0.1 -0.05 -0.05
v -0.4 -0.05 -0.15
v 0 -0.05 -0.15
v 0 0.15 0.05
v 0.4 0.15 0.05
v 0 0.15 -0.05
v 0.4 0.15 -0.05
v 0.4 0.25 0.05
v 0.9 0.25 0.05
v 0.4 0.25 -0.05
v 0.9 0.25 -0.05
v -0.4 0.35 0.15
v -0.1 0.35 0.15
v -0.4 0.35 -0.15
v -0.1 0.35 -0.15
v -0.9 -0.25 0.15
v -0.8 -0.25 0.15
v -0.9 -0.25 0.05
v -0.8 -0.25 0.05
v -0.4 -0.25 0.05
v -0.2 -0.25 0.05
v -0.9 -0.25 -0.05
v -0.8 -0.25 -0.05
v -0.4 -0.25 -0.05
v -0.2 -0.25 -0.05
v -0.9 -0.25 -0.15
v -0.8 -0.25 -0.15
v -0.8 -0.05 0.15
v -0.7 -0.05 0.15
v -0.8 -0.05 0.05
v -0.7 -0.05 0.05
v -0.8 -0.05 -0.05
v -0.7 -0.05 -0.05
v -0.8 -0.05 -0.15
v -0.7 -0.05 -0.15
v -0.4 0.05 0.15
v -0.1 0.05 0.15
v -0.4 0.05 -0.15
v -0.1 0.05 -0.15
v -0.7 0.15 0.15
v -0.6 0.15 0.15
v -0.7 0.15 0.05
v -0.6 0.15 0.05
v -0.7 0.15 -0.05
v -0.6 0.15 -0.05
v -0.7 0.15 -0.15
v -0.6 0.15 -0.15
v -0.6 0.25 0.15
v -0.5 0.25 0.15
v -0.6 0.25 -0.15
v -0.5 0.25 -0.15
v -0.5 0.35 0.15
v -0.4 0.35 0.15
v -0.5 0.35 -0.15
v -0.4 0.35 -0.15
v -0.4 0.45 0.15
v 0 0.45 0.15
v 0 0.45 0.05
v 0.7 0.45 0.05
v 0 0.45 -0.05
v 0.7 0.45 -0.05
v -0.4 0.45 -0.15
v 0 0.45 -0.15
v 0.7 0.55 0.05
v 0.9 0.55 0.05
v 0.7 0.55 -0.05
v 0.9 0.55 -0.05

# faces
f 5/3/1 2/3/1 1/3/1
f 6/1/1 3/1/1 2/1/1
f 6/3/1 2/3/1 5/3/1
f 7/3/1 4/3/1 3/3/1
f 7/1/1 3/1/1 6/1/1
f 8/3/1 4/3/1 7/3/1
f 13/3/1 10/3/1 9/3/1
f 14/1/1 11/1/1 10/1/1
f 14/3/1 10/3/1 13/3/1
f 15/3/1 12/3/1 11/3/1
f 15/1/1 11/1/1 14/1/1
f 16/3/1 12/3/1 15/3/1
f 21/3/1 18/3/1 17/3/1
f 22/1/1 19/1/1 18/1/1
f 22/3/1 18/3/1 21/3/1
f 23/3/1 20/3/1 19/3/1
f 23/1/1 19/1/1 22/1/1
f 24/3/1 20/3/1 23/3/1
f 29/5/1 26/5/1 25/5/1
f 29/5/1 28/5/1 27/5/1
f 29/5/1 27/5/1 26/5/1
f 30/5/1 28/5/1 29/5/1
f 33/5/1 32/5/1 31/5/1
f 34/5/1 32/5/1 33/5/1
f 37/5/1 36/5/1 35/5/1
f 38/5/1 36/5/1 37/5/1
f 41/5/1 40/5/1 39/5/1
f 42/5/1 40/5/1 41/5/1
f 45/5/1 44/5/1 43/5/1
f 46/5/1 44/5/1 45/5/1
f 49/5/1 48/5/1 47/5/1
f 50/5/1 48/5/1 49/5/1
f 53/5/1 52/5/1 51/5/1
f 54/5/1 52/5/1 53/5/1
f 55/3/2 56/3/2 59/3/2
f 56/1/2 57/1/2 60/1/2
f 59/3/2 56/3/2 60/3/2
f 57/3/2 58/3/2 61/3/2
f 60/1/2 57/1/2 61/1/2
f 61/3/2 58/3/2 62/3/2
f 63/1/2 64/1/2 67/1/2
f 64/5/2 65/5/2 68/5/2
f 67/1/2 64/1/2 68/1/2
f 65/1/2 66/1/2 69/1/2
f 68/5/2 65/5/2 69/5/2
f 69/1/2 66/1/2 70/1/2
f 67/5/2 68/5/2 71/5/2
f 68/5/2 69/5/2 71/5/2
f 69/5/2 70/5/2 71/5/2
f 71/5/2 70/5/2 72/5/2
f 73/5/2 74/5/2 75/5/2
f 75/5/2 74/5/2 76/5/2
f 73/5/2 75/5/2 77/5/2
f 75/6/2 76/6/2 77/6/2
f 77/6/2 76/6/2 78/6/2
f 73/5/2 77/5/2 79/5/2
f 77/5/2 78/5/2 79/5/2
f 79/5/2 78/5/2 80/5/2
f 81/5/2 82/5/2 83/5/2
f 83/5/2 82/5/2 84/5/2
f 85/5/2 86/5/2 87/5/2
f 87/5/2 86/5/2 88/5/2
f 89/5/2 90/5/2 91/5/2
f 91/5/2 90/5/2 92/5/2
f 89/5/2 91/5/2 93/5/2
f 92/5/2 90/5/2 94/5/2
f 89/5/2 93/5/2 95/5/2
f 95/5/2 93/5/2 96/5/2
f 94/5/2 90/5/2 97/5/2
f 97/5/2 90/5/2 98/5/2
f 99/4/2 100/4/2 101/4/2
f 101/4/2 100/4/2 102/4/2
f 103/4/2 104/4/2 105/4/2
f 105/4/2 104/4/2 106/4/2
f 105/5/2 106/5/2 107/5/2
f 107/5/2 106/5/2 108/5/2
f 111/3/3 110/3/3 109/3/3
f 112/3/3 110/3/3 111/3/3
f 113/3/3 110/3/3 112/3/3
f 115/1/3 112/1/3 111/1/3
f 116/2/3 113/2/3 112/2/3
f 116/1/3 112/1/3 115/1/3
f 117/3/3 114/3/3 113/3/3
f 117/2/3 113/2/3 116/2/3
f 118/3/3 114/3/3 117/3/3
f 120/3/3 116/3/3 115/3/3
f 120/3/3 117/3/3 116/3/3
f 121/1/3 118/1/3 117/1/3
f 121/3/3 117/3/3 120/3/3
f 122/3/3 119/3/3 118/3/3
f 122/1/3 118/1/3 121/1/3
f 123/3/3 119/3/3 122/3/3
f 124/3/3 119/3/3 123/3/3
f 126/3/3 122/3/3 121/3/3
f 127/3/3 122/3/3 126/3/3
f 128/2/3 123/2/3 122/2/3
f 128/3/3 122/3/3 127/3/3
f 129/5/3 125/5/3 124/5/3
f 129/2/3 123/2/3 128/2/3
f 129/5/3 124/5/3 123/5/3
f 130/5/3 125/5/3 129/5/3
f 132/1/3 127/1/3 126/1/3
f 133/5/3 128/5/3 127/5/3
f 133/1/3 127/1/3 132/1/3
f 133/5/3 131/5/3 130/5/3
f 133/5/3 130/5/3 129/5/3
f 133/5/3 129/5/3 128/5/3
f 134/5/3 131/5/3 133/5/3
f 135/5/3 131/5/3 134/5/3
f 136/5/3 131/5/3 135/5/3
f 138/5/3 135/5/3 134/5/3
f 139/5/3 137/5/3 136/5/3
f 140/5/3 138/5/3 134/5/3
f 140/5/3 139/5/3 138/5/3
f 141/5/3 137/5/3 139/5/3
f 141/5/3 139/5/3 140/5/3
f 144/5/3 143/5/3 142/5/3
f 145/5/3 143/5/3 144/5/3
f 147/5/3 146/5/3 145/5/3
f 148/5/3 146/5/3 147/5/3
f 152/4/3 150/4/3 149/4/3
f 153/5/3 151/5/3 150/5/3
f 153/4/3 150/4/3 152/4/3
f 154/5/3 151/5/3 153/5/3
f 155/5/3 151/5/3 154/5/3
f 157/4/3 154/4/3 153/4/3
f 158/5/3 156/5/3 155/5/3
f 158/4/3 154/4/3 157/4/3
f 158/5/3 155/5/3 154/5/3
f 159/5/3 156/5/3 158/5/3
f 160/5/4 161/5/4 162/5/4
f 162/5/4 161/5/4 163/5/4
f 163/5/4 164/5/4 165/5/4
f 165/5/4 164/5/4 166/5/4
f 167/4/4 168/4/4 170/4/4
f 168/5/4 169/5/4 171/5/4
f 170/4/4 168/4/4 171/4/4
f 171/5/4 169/5/4 172/5/4
f 172/5/4 169/5/4 173/5/4
f 171/4/4 172/4/4 175/4/4
f 173/5/4 174/5/4 176/5/4
f 175/4/4 172/4/4 176/4/4
f 172/5/4 173/5/4 176/5/4
f 176/5/4 174/5/4 177/5/4
f 178/3/4 179/3/4 180/3/4
f 180/3/4 179/3/4 181/3/4
f 181/3/4 179/3/4 182/3/4
f 180/1/4 181/1/4 184/1/4
f 181/2/4 182/2/4 185/2/4
f 184/1/4 181/1/4 185/1/4
f 182/3/4 183/3/4 186/3/4
f 185/2/4 182/2/4 186/2/4
f 186/3/4 183/3/4 187/3/4
f 184/3/4 185/3/4 189/3/4
f 185/3/4 186/3/4 189/3/4
f 186/1/4 187/1/4 190/1/4
f 189/3/4 186/3/4 190/3/4
f 187/3/4 188/3/4 191/3/4
f 190/1/4 187/1/4 191/1/4
f 191/3/4 188/3/4 192/3/4
f 192/3/4 188/3/4 193/3/4
f 190/3/4 191/3/4 195/3/4
f 195/3/4 191/3/4 196/3/4
f 191/2/4 192/2/4 197/2/4
f 196/3/4 191/3/4 197/3/4
f 193/5/4 194/5/4 198/5/4
f 197/2/4 192/2/4 198/2/4
f 192/5/4 193/5/4 198/5/4
f 198/5/4 194/5/4 199/5/4
f 199/5/4 194/5/4 200/5/4
f 195/1/4 196/1/4 202/1/4
f 196/5/4 197/5/4 203/5/4
f 202/1/4 196/1/4 203/1/4
f 197/5/4 198/5/4 203/5/4
f 198/5/4 199/5/4 203/5/4
f 203/5/4 199/5/4 204/5/4
f 204/5/4 199/5/4 205/5/4
f 199/6/4 200/6/4 206/6/4
f 205/5/4 199/5/4 206/5/4
f 200/5/4 201/5/4 207/5/4
f 206/6/4 200/6/4 207/6/4
f 207/5/4 201/5/4 208/5/4
f 204/5/4 205/5/4 210/5/4
f 208/5/4 209/5/4 211/5/4
f 204/5/4 210/5/4 212/5/4
f 210/5/4 211/5/4 212/5/4
f 211/5/4 209/5/4 213/5/4
f 212/5/4 211/5/4 213/5/4
f 218/3/5 215/3/5 214/3/5
f 219/1/5 216/1/5 215/1/5
f 219/3/5 215/3/5 218/3/5
f 220/3/5 217/3/5 216/3/5
f 220/1/5 216/1/5 219/1/5
f 221/3/5 217/3/5 220/3/5
f 222/1/5 219/1/5 218/1/5
f 222/1/5 220/1/5 219/1/5
f 222/1/5 221/1/5 220/1/5
f 223/1/5 221/1/5 222/1/5
f 224/1/5 221/1/5 223/1/5
f 225/1/5 221/1/5 224/1/5
f 226/3/5 223/3/5 222/3/5
f 227/1/5 224/1/5 223/1/5
f 227/3/5 223/3/5 226/3/5
f 228/3/5 225/3/5 224/3/5
f 228/1/5 224/1/5 227/1/5
f 229/3/5 225/3/5 228/3/5
f 232/5/5 231/5/5 230/5/5
f 233/5/5 231/5/5 232/5/5
f 237/3/5 235/3/5 234/3/5
f 238/1/5 236/1/5 235/1/5
f 238/3/5 235/3/5 237/3/5
f 239/1/5 236/1/5 238/1/5
f 242/1/5 238/1/5 237/1/5
f 243/5/5 239/5/5 238/5/5
f 243/1/5 238/1/5 242/1/5
f 244/5/5 239/5/5 243/5/5
f 245/5/5 241/5/5 240/5/5
f 246/5/5 241/5/5 245/5/5
f 247/3/5 243/3/5 242/3/5
f 248/1/5 244/1/5 243/1/5
f 248/3/5 243/3/5 247/3/5
f 249/1/5 244/1/5 248/1/5
f 252/5/5 251/5/5 250/5/5
f 253/5/5 251/5/5 252/5/5
f 254/5/5 252/5/5 250/5/5
f 255/5/5 251/5/5 253/5/5
f 256/5/5 254/5/5 250/5/5
f 256/5/5 255/5/5 254/5/5
f 257/5/5 251/5/5 255/5/5
f 257/5/5 255/5/5 256/5/5
f 260/4/5 259/4/5 258/4/5
f 261/4/5 259/4/5 260/4/5
f 264/4/5 263/4/5 262/4/5
f 265/4/5 263/4/5 264/4/5
f 268/5/5 267/5/5 266/5/5
f 269/5/5 267/5/5 268/5/5
f 270/3/6 271/3/6 272/3/6
f 272/3/6 271/3/6 273/3/6
f 272/1/6 273/1/6 276/1/6
f 276/1/6 273/1/6 277/1/6
f 274/5/6 275/5/6 278/5/6
f 278/5/6 275/5/6 279/5/6
f 276/3/6 277/3/6 280/3/6
f 280/3/6 277/3/6 281/3/6
f 282/3/6 283/3/6 284/3/6
f 284/3/6 283/3/6 285/3/6
f 284/1/6 285/1/6 286/1/6
f 286/1/6 285/1/6 287/1/6
f 286/3/6 287/3/6 288/3/6
f 288/3/6 287/3/6 289/3/6
f 290/5/6 291/5/6 292/5/6
f 292/5/6 291/5/6 293/5/6
f 294/3/6 295/3/6 296/3/6
f 296/3/6 295/3/6 297/3/6
f 296/1/6 297/1/6 298/1/6
f 298/1/6 297/1/6 299/1/6
f 298/3/6 299/3/6 300/3/6
f 300/3/6 299/3/6 301/3/6
f 302/5/6 303/5/6 304/5/6
f 304/5/6 303/5/6 305/5/6
f 306/5/6 307/5/6 308/5/6
f 308/5/6 307/5/6 309/5/6
f 310/5/6 311/5/6 312/5/6
f 310/5/6 312/5/6 314/5/6
f 312/5/6 313/5/6 314/5/6
f 314/5/6 313/5/6 315/5/6
f 310/5/6 314/5/6 316/5/6
f 316/5/6 314/5/6 317/5/6
f 318/5/6 319/5/6 320/5/6
f 320/5/6 319/5/6 321/5/6
