# MagicaVoxel @ Ephtracy

# group
o Winchester Model 10

# material
mtllib Weapons-25-Winchester Model 10.mtl
usemtl palette

# normals
vn -1 0 0
vn 1 0 0
vn 0 0 1
vn 0 0 -1
vn 0 -1 0
vn 0 1 0

# texcoords
vt 0.341797 0.5
vt 0.353516 0.5
vt 0.935547 0.5
vt 0.978516 0.5
vt 0.982422 0.5
vt 0.986328 0.5
vt 0.990234 0.5
vt 0.994141 0.5

# verts
v -2.9 -0.5 0.05
v -2.9 -0.5 -0.05
v -2.9 -0.4 0.15
v -2.9 -0.4 0.05
v -2.9 -0.4 -0.05
v -2.9 -0.4 -0.15
v -2.9 -0.3 0.15
v -2.9 -0.3 0.05
v -2.9 -0.3 -0.05
v -2.9 -0.3 -0.15
v -2.9 -0.1 -0.05
v -2.9 -0.1 -0.15
v -2.9 0 0.15
v -2.9 0 0.05
v -2.9 0 -0.05
v -2.9 0 -0.15
v -2.9 0.1 0.15
v -2.9 0.1 0.05
v -2.9 0.1 -0.05
v -2.9 0.1 -0.15
v -2.9 0.2 0.05
v -2.9 0.2 -0.05
v -1.7 0.1 0.05
v -1.7 0.1 -0.05
v -1.7 0.2 0.05
v -1.7 0.2 -0.05
v -1.5 0.1 0.15
v -1.5 0.1 0.05
v -1.5 0.1 -0.05
v -1.5 0.1 -0.15
v -1.5 0.2 0.15
v -1.5 0.2 0.05
v -1.5 0.2 -0.05
v -1.5 0.2 -0.15
v -1.5 0.3 0.05
v -1.5 0.3 -0.05
v -1.3 -0.3 0.05
v -1.3 -0.3 -0.05
v -1.3 -0.2 0.05
v -1.3 -0.2 -0.05
v -1.3 0.2 0.15
v -1.3 0.2 0.05
v -1.3 0.2 -0.05
v -1.3 0.2 -0.15
v -1.3 0.3 0.15
v -1.3 0.3 0.05
v -1.3 0.3 -0.05
v -1.3 0.3 -0.15
v -1.3 0.4 0.05
v -1.3 0.4 -0.05
v -1 -0.2 0.05
v -1 -0.2 -0.05
v -1 -0.1 0.05
v -1 -0.1 -0.05
v 2.2 -0.2 0.05
v 2.2 -0.2 -0.05
v 2.2 0 0.05
v 2.2 0 -0.05
v 2.2 0.3 0.05
v 2.2 0.3 -0.05
v 2.2 0.4 0.05
v 2.2 0.4 -0.05
v 2.6 0.4 0.05
v 2.6 0.4 -0.05
v 2.6 0.5 0.05
v 2.6 0.5 -0.05
v 2.8 -0.1 0.05
v 2.8 -0.1 -0.05
v 2.8 0 0.05
v 2.8 0 -0.05
v -2.3 -0.5 0.05
v -2.3 -0.5 -0.05
v -2.3 -0.4 0.15
v -2.3 -0.4 0.05
v -2.3 -0.4 -0.05
v -2.3 -0.4 -0.15
v -2.3 -0.3 0.15
v -2.3 -0.3 0.05
v -2.3 -0.3 -0.05
v -2.3 -0.3 -0.15
v -1.9 0.1 0.05
v -1.9 0.1 -0.05
v -1.9 0.2 0.05
v -1.9 0.2 -0.05
v -1.7 -0.4 0.05
v -1.7 -0.4 -0.05
v -1.7 -0.3 0.15
v -1.7 -0.3 0.05
v -1.7 -0.3 -0.05
v -1.7 -0.3 -0.15
v -1.7 -0.2 0.15
v -1.7 -0.2 0.05
v -1.7 -0.2 -0.05
v -1.7 -0.2 -0.15
v -1.6 -0.3 0.05
v -1.6 -0.3 -0.05
v -1.6 -0.2 0.15
v -1.6 -0.2 0.05
v -1.6 -0.2 -0.05
v -1.6 -0.2 -0.15
v -1.6 -0.1 0.15
v -1.6 -0.1 0.05
v -1.6 -0.1 -0.05
v -1.6 -0.1 -0.15
v -1.2 -0.2 0.05
v -1.2 -0.2 -0.05
v -1.2 -0.1 0.05
v -1.2 -0.1 -0.05
v -0.9 -0.3 0.05
v -0.9 -0.3 -0.05
v -0.9 -0.1 0.05
v -0.9 -0.1 -0.05
v -0.2 -0.1 0.15
v -0.2 -0.1 0.05
v -0.2 -0.1 -0.05
v -0.2 -0.1 -0.15
v -0.2 0 0.15
v -0.2 0 0.05
v -0.2 0 -0.05
v -0.2 0 -0.15
v 2.1 -0.1 0.05
v 2.1 -0.1 -0.05
v 2.1 0 0.05
v 2.1 0 -0.05
v 2.1 0.3 0.05
v 2.1 0.3 -0.05
v 2.1 0.4 0.05
v 2.1 0.4 -0.05
v 2.3 -0.2 0.05
v 2.3 -0.2 -0.05
v 2.3 0 0.05
v 2.3 0 -0.05
v 2.7 0.4 0.05
v 2.7 0.4 -0.05
v 2.7 0.5 0.05
v 2.7 0.5 -0.05
v 2.8 0.1 0.05
v 2.8 0.1 -0.05
v 2.8 0.2 0.05
v 2.8 0.2 -0.05
v 2.9 -0.1 0.05
v 2.9 -0.1 -0.05
v 2.9 0 0.15
v 2.9 0 0.05
v 2.9 0 -0.05
v 2.9 0 -0.15
v 2.9 0.1 0.05
v 2.9 0.1 -0.05
v 2.9 0.2 0.05
v 2.9 0.2 -0.05
v 2.9 0.3 0.15
v 2.9 0.3 0.05
v 2.9 0.3 -0.05
v 2.9 0.3 -0.15
v 2.9 0.4 0.05
v 2.9 0.4 -0.05
v -2.9 -0.4 0.15
v -2.9 -0.3 0.15
v -2.9 0 0.15
v -2.9 0.1 0.15
v -2.7 -0.2 0.15
v -2.7 -0.1 0.15
v -2.3 -0.4 0.15
v -2.3 -0.3 0.15
v -2.2 0 0.15
v -2.2 0.1 0.15
v -2 0 0.15
v -2 0.1 0.15
v -1.7 -0.3 0.15
v -1.7 -0.2 0.15
v -1.7 -0.1 0.15
v -1.6 -0.2 0.15
v -1.6 -0.1 0.15
v -1.6 0 0.15
v -1.5 0.1 0.15
v -1.5 0.2 0.15
v -1.3 0 0.15
v -1.3 0.1 0.15
v -1.3 0.2 0.15
v -1.3 0.3 0.15
v -1.1 -0.1 0.15
v -1.1 0 0.15
v -1.1 0.3 0.15
v -0.9 0 0.15
v -0.9 0.1 0.15
v -0.8 0 0.15
v -0.8 0.1 0.15
v -0.2 -0.1 0.15
v -0.2 0 0.15
v -0.2 0.1 0.15
v -0.2 0.3 0.15
v 0.2 0.1 0.15
v 0.2 0.2 0.15
v 1.1 0.1 0.15
v 1.1 0.2 0.15
v 1.3 0.2 0.15
v 1.3 0.3 0.15
v 2.1 0.1 0.15
v 2.1 0.2 0.15
v 2.1 0.3 0.15
v 2.9 0 0.15
v 2.9 0.3 0.15
v -2.9 -0.5 0.05
v -2.9 -0.4 0.05
v -2.9 0.1 0.05
v -2.9 0.2 0.05
v -2.3 -0.5 0.05
v -2.3 -0.4 0.05
v -2.3 -0.3 0.05
v -2.2 0.1 0.05
v -2 0.1 0.05
v -1.9 0.1 0.05
v -1.9 0.2 0.05
v -1.7 -0.4 0.05
v -1.7 -0.3 0.05
v -1.7 -0.2 0.05
v -1.7 0.1 0.05
v -1.7 0.2 0.05
v -1.6 -0.3 0.05
v -1.6 -0.2 0.05
v -1.6 -0.1 0.05
v -1.5 0.1 0.05
v -1.5 0.2 0.05
v -1.5 0.3 0.05
v -1.3 -0.3 0.05
v -1.3 -0.2 0.05
v -1.3 -0.1 0.05
v -1.3 0.2 0.05
v -1.3 0.3 0.05
v -1.3 0.4 0.05
v -1.2 -0.2 0.05
v -1.2 -0.1 0.05
v -1.1 0.3 0.05
v -1.1 0.4 0.05
v -1 -0.2 0.05
v -1 -0.1 0.05
v -0.9 -0.3 0.05
v -0.9 -0.1 0.05
v -0.2 -0.1 0.05
v -0.2 0 0.05
v -0.2 0.3 0.05
v -0.2 0.4 0.05
v 0.8 0.3 0.05
v 0.8 0.4 0.05
v 1.3 0.3 0.05
v 2 -0.1 0.05
v 2 0 0.05
v 2.1 -0.1 0.05
v 2.1 0 0.05
v 2.1 0.3 0.05
v 2.1 0.4 0.05
v 2.2 -0.2 0.05
v 2.2 0 0.05
v 2.2 0.3 0.05
v 2.2 0.4 0.05
v 2.3 -0.2 0.05
v 2.3 0 0.05
v 2.6 0.4 0.05
v 2.6 0.5 0.05
v 2.7 0.4 0.05
v 2.7 0.5 0.05
v 2.8 -0.1 0.05
v 2.8 0 0.05
v 2.9 -0.1 0.05
v 2.9 0 0.05
v 2.9 0.3 0.05
v 2.9 0.4 0.05
v 2.8 0.1 -0.05
v 2.8 0.2 -0.05
v 2.9 0.1 -0.05
v 2.9 0.2 -0.05
v 2.8 0.1 0.05
v 2.8 0.2 0.05
v 2.9 0.1 0.05
v 2.9 0.2 0.05
v -2.9 -0.5 -0.05
v -2.9 -0.4 -0.05
v -2.9 0.1 -0.05
v -2.9 0.2 -0.05
v -2.3 -0.5 -0.05
v -2.3 -0.4 -0.05
v -2.3 -0.3 -0.05
v -2.2 -0.3 -0.05
v -1.9 0.1 -0.05
v -1.9 0.2 -0.05
v -1.7 -0.4 -0.05
v -1.7 -0.3 -0.05
v -1.7 -0.2 -0.05
v -1.7 0.1 -0.05
v -1.7 0.2 -0.05
v -1.6 -0.3 -0.05
v -1.6 -0.2 -0.05
v -1.6 -0.1 -0.05
v -1.5 0.1 -0.05
v -1.5 0.2 -0.05
v -1.5 0.3 -0.05
v -1.3 -0.3 -0.05
v -1.3 -0.2 -0.05
v -1.3 -0.1 -0.05
v -1.3 0.2 -0.05
v -1.3 0.3 -0.05
v -1.3 0.4 -0.05
v -1.2 -0.2 -0.05
v -1.2 -0.1 -0.05
v -1.1 0.3 -0.05
v -1.1 0.4 -0.05
v -1 -0.2 -0.05
v -1 -0.1 -0.05
v -0.9 -0.3 -0.05
v -0.9 -0.1 -0.05
v -0.4 0.3 -0.05
v -0.3 0.3 -0.05
v -0.2 -0.1 -0.05
v -0.2 0 -0.05
v -0.2 0.3 -0.05
v -0.2 0.4 -0.05
v 0.8 0.3 -0.05
v 0.8 0.4 -0.05
v 1.1 0.3 -0.05
v 1.9 0.3 -0.05
v 2 -0.1 -0.05
v 2 0 -0.05
v 2.1 -0.1 -0.05
v 2.1 0 -0.05
v 2.1 0.3 -0.05
v 2.1 0.4 -0.05
v 2.2 -0.2 -0.05
v 2.2 0 -0.05
v 2.2 0.3 -0.05
v 2.2 0.4 -0.05
v 2.3 -0.2 -0.05
v 2.3 0 -0.05
v 2.6 0.4 -0.05
v 2.6 0.5 -0.05
v 2.7 0.4 -0.05
v 2.7 0.5 -0.05
v 2.8 -0.1 -0.05
v 2.8 0 -0.05
v 2.9 -0.1 -0.05
v 2.9 0 -0.05
v 2.9 0.3 -0.05
v 2.9 0.4 -0.05
v -2.9 -0.4 -0.15
v -2.9 -0.3 -0.15
v -2.9 -0.1 -0.15
v -2.9 0 -0.15
v -2.9 0.1 -0.15
v -2.3 -0.4 -0.15
v -2.3 -0.3 -0.15
v -2.2 -0.3 -0.15
v -2.2 -0.2 -0.15
v -2.2 -0.1 -0.15
v -2.2 0 -0.15
v -1.8 0 -0.15
v -1.8 0.1 -0.15
v -1.7 -0.3 -0.15
v -1.7 -0.2 -0.15
v -1.6 -0.2 -0.15
v -1.6 -0.1 -0.15
v -1.5 0.1 -0.15
v -1.5 0.2 -0.15
v -1.3 0.2 -0.15
v -1.3 0.3 -0.15
v -1.1 -0.1 -0.15
v -1.1 0 -0.15
v -1.1 0.1 -0.15
v -1.1 0.3 -0.15
v -0.4 -0.1 -0.15
v -0.4 0.3 -0.15
v -0.3 -0.1 -0.15
v -0.3 0.3 -0.15
v -0.2 -0.1 -0.15
v -0.2 0 -0.15
v -0.2 0.1 -0.15
v -0.2 0.3 -0.15
v 0 0.1 -0.15
v 0 0.2 -0.15
v 0.8 0.1 -0.15
v 0.8 0.2 -0.15
v 1.1 0.2 -0.15
v 1.1 0.3 -0.15
v 1.9 0.2 -0.15
v 1.9 0.3 -0.15
v 2.1 0.1 -0.15
v 2.1 0.3 -0.15
v 2.9 0 -0.15
v 2.9 0.3 -0.15
v -2.9 -0.5 0.05
v -2.3 -0.5 0.05
v -2.9 -0.5 -0.05
v -2.3 -0.5 -0.05
v -2.9 -0.4 0.15
v -2.3 -0.4 0.15
v -2.9 -0.4 0.05
v -2.3 -0.4 0.05
v -1.7 -0.4 0.05
v -2.9 -0.4 -0.05
v -2.3 -0.4 -0.05
v -1.7 -0.4 -0.05
v -2.9 -0.4 -0.15
v -2.3 -0.4 -0.15
v -2.3 -0.3 0.15
v -1.7 -0.3 0.15
v -2.3 -0.3 0.05
v -1.7 -0.3 0.05
v -1.6 -0.3 0.05
v -1.3 -0.3 0.05
v -0.9 -0.3 0.05
v -2.3 -0.3 -0.05
v -2.2 -0.3 -0.05
v -1.7 -0.3 -0.05
v -1.6 -0.3 -0.05
v -1.3 -0.3 -0.05
v -0.9 -0.3 -0.05
v -2.3 -0.3 -0.15
v -2.2 -0.3 -0.15
v -1.7 -0.3 -0.15
v -1.7 -0.2 0.15
v -1.6 -0.2 0.15
v -1.7 -0.2 0.05
v -1.6 -0.2 0.05
v -1.3 -0.2 0.05
v 2.2 -0.2 0.05
v 2.3 -0.2 0.05
v -1.7 -0.2 -0.05
v -1.6 -0.2 -0.05
v -1.3 -0.2 -0.05
v 2.2 -0.2 -0.05
v 2.3 -0.2 -0.05
v -1.7 -0.2 -0.15
v -1.6 -0.2 -0.15
v -1.6 -0.1 0.15
v -1.1 -0.1 0.15
v -0.2 -0.1 0.15
v -1.6 -0.1 0.05
v -1.3 -0.1 0.05
v -1.2 -0.1 0.05
v -1.1 -0.1 0.05
v -1 -0.1 0.05
v -0.9 -0.1 0.05
v -0.8 -0.1 0.05
v -0.2 -0.1 0.05
v 2 -0.1 0.05
v 2.1 -0.1 0.05
v 2.8 -0.1 0.05
v 2.9 -0.1 0.05
v -1.6 -0.1 -0.05
v -1.3 -0.1 -0.05
v -1.2 -0.1 -0.05
v -1 -0.1 -0.05
v -0.9 -0.1 -0.05
v -0.8 -0.1 -0.05
v -0.4 -0.1 -0.05
v -0.3 -0.1 -0.05
v -0.2 -0.1 -0.05
v 2 -0.1 -0.05
v 2.1 -0.1 -0.05
v 2.8 -0.1 -0.05
v 2.9 -0.1 -0.05
v -1.6 -0.1 -0.15
v -1.1 -0.1 -0.15
v -0.4 -0.1 -0.15
v -0.3 -0.1 -0.15
v -0.2 -0.1 -0.15
v -0.2 0 0.15
v 2.9 0 0.15
v -0.2 0 0.05
v 2 0 0.05
v 2.1 0 0.05
v 2.2 0 0.05
v 2.3 0 0.05
v 2.8 0 0.05
v 2.9 0 0.05
v -0.2 0 -0.05
v 2 0 -0.05
v 2.1 0 -0.05
v 2.2 0 -0.05
v 2.3 0 -0.05
v 2.8 0 -0.05
v 2.9 0 -0.05
v -0.2 0 -0.15
v 2.9 0 -0.15
v 2.8 0.2 0.05
v 2.9 0.2 0.05
v 2.8 0.2 -0.05
v 2.9 0.2 -0.05
v -1.2 -0.2 0.05
v -1 -0.2 0.05
v -1.2 -0.2 -0.05
v -1 -0.2 -0.05
v -2.9 0.1 0.15
v -2.2 0.1 0.15
v -2 0.1 0.15
v -1.5 0.1 0.15
v -2.9 0.1 0.05
v -2.2 0.1 0.05
v -2 0.1 0.05
v -1.9 0.1 0.05
v -1.7 0.1 0.05
v -1.5 0.1 0.05
v 2.8 0.1 0.05
v 2.9 0.1 0.05
v -2.9 0.1 -0.05
v -1.9 0.1 -0.05
v -1.8 0.1 -0.05
v -1.7 0.1 -0.05
v -1.5 0.1 -0.05
v 2.8 0.1 -0.05
v 2.9 0.1 -0.05
v -2.9 0.1 -0.15
v -1.8 0.1 -0.15
v -1.5 0.1 -0.15
v -1.5 0.2 0.15
v -1.3 0.2 0.15
v -2.9 0.2 0.05
v -1.9 0.2 0.05
v -1.7 0.2 0.05
v -1.5 0.2 0.05
v -1.3 0.2 0.05
v -2.9 0.2 -0.05
v -1.9 0.2 -0.05
v -1.7 0.2 -0.05
v -1.5 0.2 -0.05
v -1.3 0.2 -0.05
v -1.5 0.2 -0.15
v -1.3 0.2 -0.15
v -1.3 0.3 0.15
v -1.1 0.3 0.15
v -0.2 0.3 0.15
v 1.3 0.3 0.15
v 2.1 0.3 0.15
v 2.9 0.3 0.15
v -1.5 0.3 0.05
v -1.3 0.3 0.05
v -1.1 0.3 0.05
v -0.2 0.3 0.05
v 0.8 0.3 0.05
v 1.3 0.3 0.05
v 2.1 0.3 0.05
v 2.2 0.3 0.05
v 2.9 0.3 0.05
v -1.5 0.3 -0.05
v -1.3 0.3 -0.05
v -1.1 0.3 -0.05
v -0.4 0.3 -0.05
v -0.3 0.3 -0.05
v -0.2 0.3 -0.05
v 0.8 0.3 -0.05
v 1.1 0.3 -0.05
v 1.9 0.3 -0.05
v 2.1 0.3 -0.05
v 2.2 0.3 -0.05
v 2.9 0.3 -0.05
v -1.3 0.3 -0.15
v -1.1 0.3 -0.15
v -0.4 0.3 -0.15
v -0.3 0.3 -0.15
v -0.2 0.3 -0.15
v 1.1 0.3 -0.15
v 1.9 0.3 -0.15
v 2.1 0.3 -0.15
v 2.9 0.3 -0.15
v -1.3 0.4 0.05
v -1.1 0.4 0.05
v -0.2 0.4 0.05
v 0.8 0.4 0.05
v 2.1 0.4 0.05
v 2.2 0.4 0.05
v 2.6 0.4 0.05
v 2.7 0.4 0.05
v 2.9 0.4 0.05
v -1.3 0.4 -0.05
v -1.1 0.4 -0.05
v -0.2 0.4 -0.05
v 0.8 0.4 -0.05
v 2.1 0.4 -0.05
v 2.2 0.4 -0.05
v 2.6 0.4 -0.05
v 2.7 0.4 -0.05
v 2.9 0.4 -0.05
v 2.6 0.5 0.05
v 2.7 0.5 0.05
v 2.6 0.5 -0.05
v 2.7 0.5 -0.05

# faces
f 4/2/1 2/2/1 1/2/1
f 5/2/1 2/2/1 4/2/1
f 7/1/1 4/1/1 3/1/1
f 8/2/1 5/2/1 4/2/1
f 8/1/1 4/1/1 7/1/1
f 9/1/1 6/1/1 5/1/1
f 9/2/1 5/2/1 8/2/1
f 10/1/1 6/1/1 9/1/1
f 11/2/1 8/2/1 7/2/1
f 11/2/1 9/2/1 8/2/1
f 11/2/1 10/2/1 9/2/1
f 12/2/1 10/2/1 11/2/1
f 13/2/1 11/2/1 7/2/1
f 14/2/1 11/2/1 13/2/1
f 15/1/1 12/1/1 11/1/1
f 15/2/1 11/2/1 14/2/1
f 16/1/1 12/1/1 15/1/1
f 17/1/1 14/1/1 13/1/1
f 18/2/1 15/2/1 14/2/1
f 18/1/1 14/1/1 17/1/1
f 18/2/1 16/2/1 15/2/1
f 19/2/1 16/2/1 18/2/1
f 20/2/1 16/2/1 19/2/1
f 21/2/1 19/2/1 18/2/1
f 22/2/1 19/2/1 21/2/1
f 25/2/1 24/2/1 23/2/1
f 26/2/1 24/2/1 25/2/1
f 31/2/1 28/2/1 27/2/1
f 32/2/1 28/2/1 31/2/1
f 33/2/1 30/2/1 29/2/1
f 34/2/1 30/2/1 33/2/1
f 35/2/1 33/2/1 32/2/1
f 36/2/1 33/2/1 35/2/1
f 39/3/1 38/3/1 37/3/1
f 40/3/1 38/3/1 39/3/1
f 45/2/1 42/2/1 41/2/1
f 46/2/1 42/2/1 45/2/1
f 47/2/1 44/2/1 43/2/1
f 48/2/1 44/2/1 47/2/1
f 49/2/1 47/2/1 46/2/1
f 50/2/1 47/2/1 49/2/1
f 53/3/1 52/3/1 51/3/1
f 54/3/1 52/3/1 53/3/1
f 57/6/1 56/6/1 55/6/1
f 58/6/1 56/6/1 57/6/1
f 61/5/1 60/5/1 59/5/1
f 62/5/1 60/5/1 61/5/1
f 65/6/1 64/6/1 63/6/1
f 66/6/1 64/6/1 65/6/1
f 69/6/1 68/6/1 67/6/1
f 70/6/1 68/6/1 69/6/1
f 71/2/2 72/2/2 74/2/2
f 74/2/2 72/2/2 75/2/2
f 73/1/2 74/1/2 77/1/2
f 77/1/2 74/1/2 78/1/2
f 75/1/2 76/1/2 79/1/2
f 79/1/2 76/1/2 80/1/2
f 81/2/2 82/2/2 83/2/2
f 83/2/2 82/2/2 84/2/2
f 85/2/2 86/2/2 88/2/2
f 88/2/2 86/2/2 89/2/2
f 87/2/2 88/2/2 91/2/2
f 91/2/2 88/2/2 92/2/2
f 89/1/2 90/1/2 93/1/2
f 93/1/2 90/1/2 94/1/2
f 95/2/2 96/2/2 98/2/2
f 98/2/2 96/2/2 99/2/2
f 97/2/2 98/2/2 101/2/2
f 101/2/2 98/2/2 102/2/2
f 99/2/2 100/2/2 103/2/2
f 103/2/2 100/2/2 104/2/2
f 105/3/2 106/3/2 107/3/2
f 107/3/2 106/3/2 108/3/2
f 109/3/2 110/3/2 111/3/2
f 111/3/2 110/3/2 112/3/2
f 113/4/2 114/4/2 117/4/2
f 117/4/2 114/4/2 118/4/2
f 115/4/2 116/4/2 119/4/2
f 119/4/2 116/4/2 120/4/2
f 121/5/2 122/5/2 123/5/2
f 123/5/2 122/5/2 124/5/2
f 125/2/2 126/2/2 127/2/2
f 127/2/2 126/2/2 128/2/2
f 129/6/2 130/6/2 131/6/2
f 131/6/2 130/6/2 132/6/2
f 133/6/2 134/6/2 135/6/2
f 135/6/2 134/6/2 136/6/2
f 137/8/2 138/8/2 139/8/2
f 139/8/2 138/8/2 140/8/2
f 141/6/2 142/6/2 144/6/2
f 144/6/2 142/6/2 145/6/2
f 143/6/2 144/6/2 147/6/2
f 145/6/2 146/6/2 147/6/2
f 144/6/2 145/6/2 147/6/2
f 147/6/2 146/6/2 148/6/2
f 143/6/2 147/6/2 149/6/2
f 148/6/2 146/6/2 150/6/2
f 143/6/2 149/6/2 151/6/2
f 149/6/2 150/6/2 151/6/2
f 151/6/2 150/6/2 152/6/2
f 150/6/2 146/6/2 153/6/2
f 152/6/2 150/6/2 153/6/2
f 153/6/2 146/6/2 154/6/2
f 152/5/2 153/5/2 155/5/2
f 155/5/2 153/5/2 156/5/2
f 161/2/3 159/2/3 158/2/3
f 162/2/3 159/2/3 161/2/3
f 163/1/3 158/1/3 157/1/3
f 164/2/3 161/2/3 158/2/3
f 164/1/3 158/1/3 163/1/3
f 165/2/3 159/2/3 162/2/3
f 165/1/3 160/1/3 159/1/3
f 166/1/3 160/1/3 165/1/3
f 167/2/3 165/2/3 162/2/3
f 167/2/3 166/2/3 165/2/3
f 168/2/3 166/2/3 167/2/3
f 169/2/3 161/2/3 164/2/3
f 170/1/3 162/1/3 161/1/3
f 170/2/3 161/2/3 169/2/3
f 171/2/3 167/2/3 162/2/3
f 171/1/3 162/1/3 170/1/3
f 172/2/3 171/2/3 170/2/3
f 173/2/3 167/2/3 171/2/3
f 173/2/3 171/2/3 172/2/3
f 174/1/3 168/1/3 167/1/3
f 174/2/3 167/2/3 173/2/3
f 175/1/3 168/1/3 174/1/3
f 175/1/3 174/1/3 173/1/3
f 177/1/3 175/1/3 173/1/3
f 178/2/3 176/2/3 175/2/3
f 178/1/3 175/1/3 177/1/3
f 179/2/3 176/2/3 178/2/3
f 181/1/3 177/1/3 173/1/3
f 182/2/3 180/2/3 179/2/3
f 182/1/3 177/1/3 181/1/3
f 182/2/3 178/2/3 177/2/3
f 182/2/3 179/2/3 178/2/3
f 183/2/3 180/2/3 182/2/3
f 184/4/3 182/4/3 181/4/3
f 184/4/3 183/4/3 182/4/3
f 185/4/3 183/4/3 184/4/3
f 186/4/3 184/4/3 181/4/3
f 186/5/3 185/5/3 184/5/3
f 187/4/3 183/4/3 185/4/3
f 187/5/3 185/5/3 186/5/3
f 188/4/3 186/4/3 181/4/3
f 188/4/3 187/4/3 186/4/3
f 189/4/3 187/4/3 188/4/3
f 190/4/3 183/4/3 187/4/3
f 190/4/3 187/4/3 189/4/3
f 191/4/3 183/4/3 190/4/3
f 192/6/3 190/6/3 189/6/3
f 192/2/3 191/2/3 190/2/3
f 193/2/3 191/2/3 192/2/3
f 194/6/3 192/6/3 189/6/3
f 194/1/3 193/1/3 192/1/3
f 195/2/3 191/2/3 193/2/3
f 195/1/3 193/1/3 194/1/3
f 196/2/3 195/2/3 194/2/3
f 196/2/3 191/2/3 195/2/3
f 197/2/3 191/2/3 196/2/3
f 198/6/3 194/6/3 189/6/3
f 198/2/3 196/2/3 194/2/3
f 199/1/3 197/1/3 196/1/3
f 199/2/3 196/2/3 198/2/3
f 200/1/3 197/1/3 199/1/3
f 201/6/3 198/6/3 189/6/3
f 201/6/3 199/6/3 198/6/3
f 201/6/3 200/6/3 199/6/3
f 202/6/3 200/6/3 201/6/3
f 207/2/3 204/2/3 203/2/3
f 208/2/3 204/2/3 207/2/3
f 210/2/3 206/2/3 205/2/3
f 211/2/3 206/2/3 210/2/3
f 212/2/3 206/2/3 211/2/3
f 213/2/3 206/2/3 212/2/3
f 214/2/3 209/2/3 208/2/3
f 215/2/3 209/2/3 214/2/3
f 219/2/3 216/2/3 215/2/3
f 220/2/3 216/2/3 219/2/3
f 222/2/3 218/2/3 217/2/3
f 223/2/3 218/2/3 222/2/3
f 226/2/3 221/2/3 220/2/3
f 227/2/3 221/2/3 226/2/3
f 228/2/3 224/2/3 223/2/3
f 229/2/3 224/2/3 228/2/3
f 231/3/3 227/3/3 226/3/3
f 231/3/3 226/3/3 225/3/3
f 232/3/3 227/3/3 231/3/3
f 233/2/3 230/2/3 229/2/3
f 234/2/3 230/2/3 233/2/3
f 235/3/3 231/3/3 225/3/3
f 237/3/3 235/3/3 225/3/3
f 237/3/3 236/3/3 235/3/3
f 238/3/3 236/3/3 237/3/3
f 241/4/3 234/4/3 233/4/3
f 242/4/3 234/4/3 241/4/3
f 243/1/3 242/1/3 241/1/3
f 244/1/3 242/1/3 243/1/3
f 245/2/3 244/2/3 243/2/3
f 246/6/3 240/6/3 239/6/3
f 247/6/3 240/6/3 246/6/3
f 248/5/3 247/5/3 246/5/3
f 249/5/3 247/5/3 248/5/3
f 250/2/3 244/2/3 245/2/3
f 251/2/3 244/2/3 250/2/3
f 256/6/3 253/6/3 252/6/3
f 257/6/3 253/6/3 256/6/3
f 258/5/3 255/5/3 254/5/3
f 260/5/3 258/5/3 254/5/3
f 260/6/3 259/6/3 258/6/3
f 261/6/3 259/6/3 260/6/3
f 264/6/3 263/6/3 262/6/3
f 265/6/3 263/6/3 264/6/3
f 266/5/3 260/5/3 254/5/3
f 267/5/3 260/5/3 266/5/3
f 270/6/3 269/6/3 268/6/3
f 271/6/3 269/6/3 270/6/3
f 272/6/4 273/6/4 274/6/4
f 274/6/4 273/6/4 275/6/4
f 276/2/4 277/2/4 280/2/4
f 280/2/4 277/2/4 281/2/4
f 281/2/4 282/2/4 283/2/4
f 278/2/4 279/2/4 284/2/4
f 284/2/4 279/2/4 285/2/4
f 281/2/4 283/2/4 286/2/4
f 286/2/4 283/2/4 287/2/4
f 287/2/4 288/2/4 291/2/4
f 291/2/4 288/2/4 292/2/4
f 289/2/4 290/2/4 294/2/4
f 294/2/4 290/2/4 295/2/4
f 292/2/4 293/2/4 298/2/4
f 298/2/4 293/2/4 299/2/4
f 295/2/4 296/2/4 300/2/4
f 300/2/4 296/2/4 301/2/4
f 298/3/4 299/3/4 303/3/4
f 297/3/4 298/3/4 303/3/4
f 303/3/4 299/3/4 304/3/4
f 301/2/4 302/2/4 305/2/4
f 305/2/4 302/2/4 306/2/4
f 297/3/4 303/3/4 307/3/4
f 297/3/4 307/3/4 309/3/4
f 307/3/4 308/3/4 309/3/4
f 309/3/4 308/3/4 310/3/4
f 305/4/4 306/4/4 311/4/4
f 311/4/4 306/4/4 312/4/4
f 312/4/4 306/4/4 315/4/4
f 315/4/4 306/4/4 316/4/4
f 315/1/4 316/1/4 317/1/4
f 317/1/4 316/1/4 318/1/4
f 317/2/4 318/2/4 319/2/4
f 319/2/4 318/2/4 320/2/4
f 313/6/4 314/6/4 321/6/4
f 321/6/4 314/6/4 322/6/4
f 321/5/4 322/5/4 323/5/4
f 323/5/4 322/5/4 324/5/4
f 320/2/4 318/2/4 325/2/4
f 325/2/4 318/2/4 326/2/4
f 327/6/4 328/6/4 331/6/4
f 331/6/4 328/6/4 332/6/4
f 329/5/4 330/5/4 333/5/4
f 329/5/4 333/5/4 335/5/4
f 333/6/4 334/6/4 335/6/4
f 335/6/4 334/6/4 336/6/4
f 337/6/4 338/6/4 339/6/4
f 339/6/4 338/6/4 340/6/4
f 329/5/4 335/5/4 341/5/4
f 341/5/4 335/5/4 342/5/4
f 343/1/4 344/1/4 348/1/4
f 344/2/4 345/2/4 349/2/4
f 348/1/4 344/1/4 349/1/4
f 349/2/4 345/2/4 350/2/4
f 350/2/4 345/2/4 351/2/4
f 345/1/4 346/1/4 352/1/4
f 351/2/4 345/2/4 352/2/4
f 346/2/4 347/2/4 353/2/4
f 352/1/4 346/1/4 353/1/4
f 351/2/4 352/2/4 354/2/4
f 353/2/4 347/2/4 354/2/4
f 352/2/4 353/2/4 354/2/4
f 354/2/4 347/2/4 355/2/4
f 350/1/4 351/1/4 356/1/4
f 351/2/4 354/2/4 357/2/4
f 356/1/4 351/1/4 357/1/4
f 357/2/4 354/2/4 358/2/4
f 358/2/4 354/2/4 359/2/4
f 354/1/4 355/1/4 360/1/4
f 360/2/4 361/2/4 362/2/4
f 359/2/4 354/2/4 364/2/4
f 354/1/4 360/1/4 365/1/4
f 364/2/4 354/2/4 365/2/4
f 362/2/4 363/2/4 366/2/4
f 365/1/4 360/1/4 366/1/4
f 360/2/4 362/2/4 366/2/4
f 366/2/4 363/2/4 367/2/4
f 364/4/4 365/4/4 368/4/4
f 365/4/4 366/4/4 368/4/4
f 366/4/4 367/4/4 368/4/4
f 368/4/4 367/4/4 369/4/4
f 368/3/4 369/3/4 370/3/4
f 370/3/4 369/3/4 371/3/4
f 370/4/4 371/4/4 372/4/4
f 372/4/4 371/4/4 373/4/4
f 373/4/4 371/4/4 374/4/4
f 374/4/4 371/4/4 375/4/4
f 373/6/4 374/6/4 376/6/4
f 374/2/4 375/2/4 376/2/4
f 376/2/4 375/2/4 377/2/4
f 373/6/4 376/6/4 378/6/4
f 376/1/4 377/1/4 378/1/4
f 377/2/4 375/2/4 379/2/4
f 378/1/4 377/1/4 379/1/4
f 378/2/4 379/2/4 380/2/4
f 379/2/4 375/2/4 380/2/4
f 380/2/4 375/2/4 381/2/4
f 378/2/4 380/2/4 382/2/4
f 380/1/4 381/1/4 382/1/4
f 382/1/4 381/1/4 383/1/4
f 373/6/4 378/6/4 384/6/4
f 378/2/4 382/2/4 384/2/4
f 382/2/4 383/2/4 384/2/4
f 384/2/4 383/2/4 385/2/4
f 373/6/4 384/6/4 386/6/4
f 384/6/4 385/6/4 386/6/4
f 386/6/4 385/6/4 387/6/4
f 390/2/5 389/2/5 388/2/5
f 391/2/5 389/2/5 390/2/5
f 394/1/5 393/1/5 392/1/5
f 395/1/5 393/1/5 394/1/5
f 398/2/5 396/2/5 395/2/5
f 399/2/5 396/2/5 398/2/5
f 400/1/5 398/1/5 397/1/5
f 401/1/5 398/1/5 400/1/5
f 404/2/5 403/2/5 402/2/5
f 405/2/5 403/2/5 404/2/5
f 411/2/5 406/2/5 405/2/5
f 412/2/5 406/2/5 411/2/5
f 413/3/5 408/3/5 407/3/5
f 414/3/5 408/3/5 413/3/5
f 415/2/5 410/2/5 409/2/5
f 416/1/5 411/1/5 410/1/5
f 416/2/5 410/2/5 415/2/5
f 417/1/5 411/1/5 416/1/5
f 420/2/5 419/2/5 418/2/5
f 421/2/5 419/2/5 420/2/5
f 426/2/5 422/2/5 421/2/5
f 427/2/5 422/2/5 426/2/5
f 428/6/5 424/6/5 423/6/5
f 429/6/5 424/6/5 428/6/5
f 430/2/5 426/2/5 425/2/5
f 431/2/5 426/2/5 430/2/5
f 435/1/5 433/1/5 432/1/5
f 436/1/5 433/1/5 435/1/5
f 437/1/5 433/1/5 436/1/5
f 438/4/5 434/4/5 433/4/5
f 438/1/5 433/1/5 437/1/5
f 439/4/5 434/4/5 438/4/5
f 440/4/5 434/4/5 439/4/5
f 441/4/5 434/4/5 440/4/5
f 442/4/5 434/4/5 441/4/5
f 449/2/5 438/2/5 437/2/5
f 450/4/5 439/4/5 438/4/5
f 451/4/5 441/4/5 440/4/5
f 452/7/5 442/7/5 441/7/5
f 452/4/5 441/4/5 451/4/5
f 453/7/5 442/7/5 452/7/5
f 454/7/5 442/7/5 453/7/5
f 455/6/5 443/6/5 442/6/5
f 455/7/5 442/7/5 454/7/5
f 456/5/5 444/5/5 443/5/5
f 456/6/5 443/6/5 455/6/5
f 457/5/5 444/5/5 456/5/5
f 458/6/5 446/6/5 445/6/5
f 459/6/5 446/6/5 458/6/5
f 460/2/5 448/2/5 447/2/5
f 460/2/5 449/2/5 448/2/5
f 461/4/5 453/4/5 452/4/5
f 461/2/5 449/2/5 460/2/5
f 461/4/5 450/4/5 438/4/5
f 461/4/5 452/4/5 451/4/5
f 461/4/5 451/4/5 450/4/5
f 461/2/5 438/2/5 449/2/5
f 462/3/5 454/3/5 453/3/5
f 462/4/5 453/4/5 461/4/5
f 463/4/5 455/4/5 454/4/5
f 463/3/5 454/3/5 462/3/5
f 464/4/5 455/4/5 463/4/5
f 467/6/5 466/6/5 465/6/5
f 468/6/5 466/6/5 467/6/5
f 469/6/5 466/6/5 468/6/5
f 470/6/5 466/6/5 469/6/5
f 471/6/5 466/6/5 470/6/5
f 472/6/5 466/6/5 471/6/5
f 473/6/5 466/6/5 472/6/5
f 476/6/5 470/6/5 469/6/5
f 477/6/5 470/6/5 476/6/5
f 478/6/5 472/6/5 471/6/5
f 479/6/5 472/6/5 478/6/5
f 481/6/5 477/6/5 476/6/5
f 481/6/5 480/6/5 479/6/5
f 481/6/5 479/6/5 478/6/5
f 481/6/5 478/6/5 477/6/5
f 481/6/5 475/6/5 474/6/5
f 481/6/5 476/6/5 475/6/5
f 482/6/5 480/6/5 481/6/5
f 485/6/5 484/6/5 483/6/5
f 486/6/5 484/6/5 485/6/5
f 487/3/6 488/3/6 489/3/6
f 489/3/6 488/3/6 490/3/6
f 491/1/6 492/1/6 495/1/6
f 492/2/6 493/2/6 496/2/6
f 495/1/6 492/1/6 496/1/6
f 493/1/6 494/1/6 497/1/6
f 496/2/6 493/2/6 497/2/6
f 497/1/6 494/1/6 498/1/6
f 498/1/6 494/1/6 499/1/6
f 499/1/6 494/1/6 500/1/6
f 498/2/6 499/2/6 504/2/6
f 504/2/6 499/2/6 505/2/6
f 505/2/6 499/2/6 506/2/6
f 501/6/6 502/6/6 508/6/6
f 508/6/6 502/6/6 509/6/6
f 503/2/6 504/2/6 510/2/6
f 504/2/6 505/2/6 510/2/6
f 506/1/6 507/1/6 511/1/6
f 510/2/6 505/2/6 511/2/6
f 505/1/6 506/1/6 511/1/6
f 511/1/6 507/1/6 512/1/6
f 513/2/6 514/2/6 518/2/6
f 518/2/6 514/2/6 519/2/6
f 515/2/6 516/2/6 520/2/6
f 520/2/6 516/2/6 521/2/6
f 517/2/6 518/2/6 522/2/6
f 522/2/6 518/2/6 523/2/6
f 523/2/6 524/2/6 525/2/6
f 525/2/6 524/2/6 526/2/6
f 527/2/6 528/2/6 534/2/6
f 528/4/6 529/4/6 535/4/6
f 534/2/6 528/2/6 535/2/6
f 529/2/6 530/2/6 536/2/6
f 535/4/6 529/4/6 536/4/6
f 536/2/6 530/2/6 537/2/6
f 530/1/6 531/1/6 538/1/6
f 537/2/6 530/2/6 538/2/6
f 531/6/6 532/6/6 539/6/6
f 538/1/6 531/1/6 539/1/6
f 539/6/6 532/6/6 540/6/6
f 540/6/6 532/6/6 541/6/6
f 533/2/6 534/2/6 542/2/6
f 542/2/6 534/2/6 543/2/6
f 539/6/6 540/6/6 551/6/6
f 551/6/6 540/6/6 552/6/6
f 543/2/6 544/2/6 554/2/6
f 544/4/6 545/4/6 555/4/6
f 554/2/6 544/2/6 555/2/6
f 545/3/6 546/3/6 556/3/6
f 555/4/6 545/4/6 556/4/6
f 546/4/6 547/4/6 557/4/6
f 556/3/6 546/3/6 557/3/6
f 547/2/6 548/2/6 558/2/6
f 557/4/6 547/4/6 558/4/6
f 548/2/6 549/2/6 558/2/6
f 549/1/6 550/1/6 559/1/6
f 558/2/6 549/2/6 559/2/6
f 550/2/6 551/2/6 560/2/6
f 559/1/6 550/1/6 560/1/6
f 552/6/6 553/6/6 561/6/6
f 560/2/6 551/2/6 561/2/6
f 551/6/6 552/6/6 561/6/6
f 561/6/6 553/6/6 562/6/6
f 563/2/6 564/2/6 572/2/6
f 564/4/6 565/4/6 573/4/6
f 572/2/6 564/2/6 573/2/6
f 565/1/6 566/1/6 574/1/6
f 573/4/6 565/4/6 574/4/6
f 566/2/6 567/2/6 575/2/6
f 574/1/6 566/1/6 575/1/6
f 575/2/6 567/2/6 576/2/6
f 568/5/6 569/5/6 577/5/6
f 577/5/6 569/5/6 578/5/6
f 570/5/6 571/5/6 579/5/6
f 579/5/6 571/5/6 580/5/6
f 581/6/6 582/6/6 583/6/6
f 583/6/6 582/6/6 584/6/6
