# MagicaVoxel @ Ephtracy

# group
o 1911 Frame

# material
mtllib Weapons-20-1911 Frame.mtl
usemtl palette

# normals
vn -1 0 0
vn 1 0 0
vn 0 0 1
vn 0 0 -1
vn 0 -1 0
vn 0 1 0

# texcoords
vt 0.310547 0.5
vt 0.974609 0.5
vt 0.978516 0.5
vt 0.982422 0.5
vt 0.994141 0.5

# verts
v -0.75 0.05 0.15
v -0.75 0.05 -0.15
v -0.75 0.15 0.15
v -0.75 0.15 -0.15
v -0.65 -0.55 0.15
v -0.65 -0.55 0.05
v -0.65 -0.55 -0.05
v -0.65 -0.55 -0.15
v -0.65 -0.15 0.15
v -0.65 -0.15 0.05
v -0.65 -0.15 -0.05
v -0.65 -0.15 -0.15
v -0.55 -0.15 0.15
v -0.55 -0.15 0.05
v -0.55 -0.15 -0.05
v -0.55 -0.15 -0.15
v -0.55 0.05 0.15
v -0.55 0.05 0.05
v -0.55 0.05 -0.05
v -0.55 0.05 -0.15
v -0.55 0.15 0.15
v -0.55 0.15 -0.15
v -0.55 0.25 0.15
v -0.55 0.25 -0.15
v -0.35 0.35 0.15
v -0.35 0.35 0.05
v -0.35 0.45 0.15
v -0.35 0.45 0.05
v 0.05 -0.05 0.05
v 0.05 -0.05 -0.05
v 0.05 0.15 0.05
v 0.05 0.15 -0.05
v 0.55 0.35 0.05
v 0.55 0.35 -0.05
v 0.55 0.45 0.05
v 0.55 0.45 -0.05
v -0.25 -0.55 0.15
v -0.25 -0.55 0.05
v -0.25 -0.55 -0.05
v -0.25 -0.55 -0.15
v -0.25 -0.15 0.15
v -0.25 -0.15 0.05
v -0.25 -0.15 -0.05
v -0.25 -0.15 -0.15
v -0.15 -0.15 0.15
v -0.15 -0.15 0.05
v -0.15 -0.15 -0.05
v -0.15 -0.15 -0.15
v -0.15 -0.05 0.05
v -0.15 -0.05 -0.05
v -0.15 0.15 0.15
v -0.15 0.15 0.05
v -0.15 0.15 -0.05
v -0.15 0.15 -0.15
v 0.05 -0.15 0.05
v 0.05 -0.15 -0.05
v 0.05 -0.05 0.05
v 0.05 -0.05 -0.05
v 0.05 0.35 0.15
v 0.05 0.35 0.05
v 0.05 0.45 0.15
v 0.05 0.45 0.05
v 0.15 -0.05 0.05
v 0.15 -0.05 -0.05
v 0.15 0.15 0.05
v 0.15 0.15 -0.05
v 0.75 0.15 0.15
v 0.75 0.15 -0.15
v 0.75 0.25 0.15
v 0.75 0.25 -0.15
v 0.75 0.35 0.05
v 0.75 0.35 -0.05
v 0.75 0.45 0.05
v 0.75 0.45 -0.05
v -0.75 0.05 0.15
v -0.75 0.15 0.15
v -0.65 -0.55 0.15
v -0.65 -0.15 0.15
v -0.55 -0.15 0.15
v -0.55 0.05 0.15
v -0.55 0.15 0.15
v -0.55 0.25 0.15
v -0.35 0.35 0.15
v -0.35 0.45 0.15
v -0.25 -0.55 0.15
v -0.25 -0.15 0.15
v -0.25 0.05 0.15
v -0.15 -0.15 0.15
v -0.15 0.15 0.15
v -0.15 0.35 0.15
v -0.15 0.45 0.15
v 0.05 0.35 0.15
v 0.05 0.45 0.15
v 0.75 0.15 0.15
v 0.75 0.25 0.15
v -0.15 -0.15 0.05
v -0.15 -0.05 0.05
v 0.05 -0.15 0.05
v 0.05 -0.05 0.05
v 0.05 0.15 0.05
v 0.15 -0.05 0.05
v 0.15 0.15 0.05
v 0.55 0.35 0.05
v 0.55 0.45 0.05
v 0.75 0.35 0.05
v 0.75 0.45 0.05
v -0.35 0.35 0.05
v -0.35 0.45 0.05
v -0.15 0.35 0.05
v -0.15 0.45 0.05
v 0.05 0.35 0.05
v 0.05 0.45 0.05
v -0.15 -0.15 -0.05
v -0.15 -0.05 -0.05
v 0.05 -0.15 -0.05
v 0.05 -0.05 -0.05
v 0.05 0.15 -0.05
v 0.15 -0.05 -0.05
v 0.15 0.15 -0.05
v 0.55 0.35 -0.05
v 0.55 0.45 -0.05
v 0.75 0.35 -0.05
v 0.75 0.45 -0.05
v -0.75 0.05 -0.15
v -0.75 0.15 -0.15
v -0.65 -0.55 -0.15
v -0.65 -0.15 -0.15
v -0.55 -0.15 -0.15
v -0.55 0.05 -0.15
v -0.55 0.15 -0.15
v -0.55 0.25 -0.15
v -0.25 -0.55 -0.15
v -0.25 -0.15 -0.15
v -0.25 0.05 -0.15
v -0.15 -0.15 -0.15
v -0.15 0.15 -0.15
v 0.75 0.15 -0.15
v 0.75 0.25 -0.15
v -0.65 -0.55 0.15
v -0.25 -0.55 0.15
v -0.65 -0.55 0.05
v -0.25 -0.55 0.05
v -0.65 -0.55 -0.05
v -0.25 -0.55 -0.05
v -0.65 -0.55 -0.15
v -0.25 -0.55 -0.15
v -0.25 -0.15 0.15
v -0.15 -0.15 0.15
v -0.25 -0.15 0.05
v -0.15 -0.15 0.05
v 0.05 -0.15 0.05
v -0.25 -0.15 -0.05
v -0.15 -0.15 -0.05
v 0.05 -0.15 -0.05
v -0.25 -0.15 -0.15
v -0.15 -0.15 -0.15
v 0.05 -0.05 0.05
v 0.15 -0.05 0.05
v 0.05 -0.05 -0.05
v 0.15 -0.05 -0.05
v -0.75 0.05 0.15
v -0.55 0.05 0.15
v -0.55 0.05 0.05
v -0.55 0.05 -0.05
v -0.75 0.05 -0.15
v -0.55 0.05 -0.15
v -0.15 0.15 0.15
v 0.75 0.15 0.15
v -0.15 0.15 0.05
v 0.05 0.15 0.05
v 0.15 0.15 0.05
v 0.65 0.15 0.05
v -0.15 0.15 -0.05
v 0.05 0.15 -0.05
v 0.15 0.15 -0.05
v 0.65 0.15 -0.05
v -0.15 0.15 -0.15
v 0.75 0.15 -0.15
v -0.35 0.35 0.15
v -0.15 0.35 0.15
v 0.05 0.35 0.15
v -0.35 0.35 0.05
v -0.15 0.35 0.05
v 0.05 0.35 0.05
v 0.55 0.35 0.05
v 0.75 0.35 0.05
v 0.55 0.35 -0.05
v 0.75 0.35 -0.05
v -0.65 -0.15 0.15
v -0.55 -0.15 0.15
v -0.65 -0.15 0.05
v -0.55 -0.15 0.05
v -0.65 -0.15 -0.05
v -0.55 -0.15 -0.05
v -0.65 -0.15 -0.15
v -0.55 -0.15 -0.15
v -0.15 -0.05 0.05
v 0.05 -0.05 0.05
v -0.15 -0.05 -0.05
v 0.05 -0.05 -0.05
v -0.75 0.15 0.15
v -0.55 0.15 0.15
v -0.75 0.15 -0.15
v -0.55 0.15 -0.15
v -0.55 0.25 0.15
v 0.75 0.25 0.15
v -0.45 0.25 0.05
v 0.65 0.25 0.05
v -0.45 0.25 -0.05
v 0.65 0.25 -0.05
v -0.55 0.25 -0.15
v 0.75 0.25 -0.15
v -0.35 0.45 0.15
v -0.15 0.45 0.15
v 0.05 0.45 0.15
v -0.35 0.45 0.05
v -0.15 0.45 0.05
v 0.05 0.45 0.05
v 0.55 0.45 0.05
v 0.75 0.45 0.05
v 0.55 0.45 -0.05
v 0.75 0.45 -0.05

# faces
f 3/3/1 2/3/1 1/3/1
f 4/3/1 2/3/1 3/3/1
f 9/1/1 6/1/1 5/1/1
f 10/3/1 7/3/1 6/3/1
f 10/1/1 6/1/1 9/1/1
f 11/1/1 8/1/1 7/1/1
f 11/3/1 7/3/1 10/3/1
f 12/1/1 8/1/1 11/1/1
f 17/1/1 14/1/1 13/1/1
f 18/3/1 15/3/1 14/3/1
f 18/1/1 14/1/1 17/1/1
f 19/1/1 16/1/1 15/1/1
f 19/3/1 15/3/1 18/3/1
f 20/1/1 16/1/1 19/1/1
f 23/4/1 22/4/1 21/4/1
f 24/4/1 22/4/1 23/4/1
f 27/5/1 26/5/1 25/5/1
f 28/5/1 26/5/1 27/5/1
f 31/3/1 30/3/1 29/3/1
f 32/3/1 30/3/1 31/3/1
f 35/4/1 34/4/1 33/4/1
f 36/4/1 34/4/1 35/4/1
f 37/1/2 38/1/2 41/1/2
f 38/3/2 39/3/2 42/3/2
f 41/1/2 38/1/2 42/1/2
f 39/1/2 40/1/2 43/1/2
f 42/3/2 39/3/2 43/3/2
f 43/1/2 40/1/2 44/1/2
f 45/3/2 46/3/2 49/3/2
f 47/3/2 48/3/2 50/3/2
f 45/3/2 49/3/2 51/3/2
f 49/3/2 50/3/2 51/3/2
f 51/3/2 50/3/2 52/3/2
f 50/3/2 48/3/2 53/3/2
f 52/3/2 50/3/2 53/3/2
f 53/3/2 48/3/2 54/3/2
f 55/3/2 56/3/2 57/3/2
f 57/3/2 56/3/2 58/3/2
f 59/2/2 60/2/2 61/2/2
f 61/2/2 60/2/2 62/2/2
f 63/3/2 64/3/2 65/3/2
f 65/3/2 64/3/2 66/3/2
f 67/4/2 68/4/2 69/4/2
f 69/4/2 68/4/2 70/4/2
f 71/4/2 72/4/2 73/4/2
f 73/4/2 72/4/2 74/4/2
f 79/1/3 78/1/3 77/1/3
f 80/3/3 76/3/3 75/3/3
f 81/3/3 76/3/3 80/3/3
f 85/1/3 79/1/3 77/1/3
f 85/1/3 80/1/3 79/1/3
f 86/1/3 80/1/3 85/1/3
f 87/3/3 81/3/3 80/3/3
f 87/1/3 80/1/3 86/1/3
f 88/3/3 87/3/3 86/3/3
f 89/4/3 82/4/3 81/4/3
f 89/3/3 87/3/3 88/3/3
f 89/3/3 81/3/3 87/3/3
f 90/5/3 84/5/3 83/5/3
f 91/5/3 84/5/3 90/5/3
f 92/2/3 91/2/3 90/2/3
f 93/2/3 91/2/3 92/2/3
f 94/4/3 82/4/3 89/4/3
f 95/4/3 82/4/3 94/4/3
f 98/3/3 97/3/3 96/3/3
f 99/3/3 97/3/3 98/3/3
f 101/3/3 100/3/3 99/3/3
f 102/3/3 100/3/3 101/3/3
f 105/4/3 104/4/3 103/4/3
f 106/4/3 104/4/3 105/4/3
f 107/5/4 108/5/4 109/5/4
f 109/5/4 108/5/4 110/5/4
f 109/2/4 110/2/4 111/2/4
f 111/2/4 110/2/4 112/2/4
f 113/3/4 114/3/4 115/3/4
f 115/3/4 114/3/4 116/3/4
f 116/3/4 117/3/4 118/3/4
f 118/3/4 117/3/4 119/3/4
f 120/4/4 121/4/4 122/4/4
f 122/4/4 121/4/4 123/4/4
f 126/1/4 127/1/4 128/1/4
f 124/3/4 125/3/4 129/3/4
f 129/3/4 125/3/4 130/3/4
f 126/1/4 128/1/4 132/1/4
f 128/1/4 129/1/4 132/1/4
f 132/1/4 129/1/4 133/1/4
f 129/3/4 130/3/4 134/3/4
f 133/1/4 129/1/4 134/1/4
f 133/3/4 134/3/4 135/3/4
f 130/4/4 131/4/4 136/4/4
f 135/3/4 134/3/4 136/3/4
f 134/3/4 130/3/4 136/3/4
f 136/4/4 131/4/4 137/4/4
f 137/4/4 131/4/4 138/4/4
f 141/1/5 140/1/5 139/1/5
f 142/1/5 140/1/5 141/1/5
f 143/3/5 142/3/5 141/3/5
f 144/3/5 142/3/5 143/3/5
f 145/1/5 144/1/5 143/1/5
f 146/1/5 144/1/5 145/1/5
f 149/3/5 148/3/5 147/3/5
f 150/3/5 148/3/5 149/3/5
f 152/3/5 150/3/5 149/3/5
f 152/3/5 151/3/5 150/3/5
f 153/3/5 151/3/5 152/3/5
f 154/3/5 151/3/5 153/3/5
f 155/3/5 153/3/5 152/3/5
f 156/3/5 153/3/5 155/3/5
f 159/3/5 158/3/5 157/3/5
f 160/3/5 158/3/5 159/3/5
f 163/3/5 162/3/5 161/3/5
f 164/3/5 163/3/5 161/3/5
f 165/3/5 164/3/5 161/3/5
f 166/3/5 164/3/5 165/3/5
f 169/4/5 168/4/5 167/4/5
f 170/4/5 168/4/5 169/4/5
f 171/4/5 168/4/5 170/4/5
f 172/4/5 168/4/5 171/4/5
f 173/3/5 170/3/5 169/3/5
f 174/3/5 170/3/5 173/3/5
f 175/3/5 172/3/5 171/3/5
f 176/4/5 168/4/5 172/4/5
f 176/3/5 172/3/5 175/3/5
f 177/4/5 175/4/5 174/4/5
f 177/4/5 174/4/5 173/4/5
f 177/4/5 176/4/5 175/4/5
f 178/4/5 168/4/5 176/4/5
f 178/4/5 176/4/5 177/4/5
f 182/5/5 180/5/5 179/5/5
f 183/2/5 181/2/5 180/2/5
f 183/5/5 180/5/5 182/5/5
f 184/2/5 181/2/5 183/2/5
f 187/4/5 186/4/5 185/4/5
f 188/4/5 186/4/5 187/4/5
f 189/1/6 190/1/6 191/1/6
f 191/1/6 190/1/6 192/1/6
f 191/3/6 192/3/6 193/3/6
f 193/3/6 192/3/6 194/3/6
f 193/1/6 194/1/6 195/1/6
f 195/1/6 194/1/6 196/1/6
f 197/3/6 198/3/6 199/3/6
f 199/3/6 198/3/6 200/3/6
f 201/3/6 202/3/6 203/3/6
f 203/3/6 202/3/6 204/3/6
f 205/4/6 206/4/6 207/4/6
f 207/4/6 206/4/6 208/4/6
f 205/4/6 207/4/6 209/4/6
f 207/3/6 208/3/6 209/3/6
f 208/4/6 206/4/6 210/4/6
f 209/3/6 208/3/6 210/3/6
f 205/4/6 209/4/6 211/4/6
f 209/4/6 210/4/6 211/4/6
f 210/4/6 206/4/6 212/4/6
f 211/4/6 210/4/6 212/4/6
f 213/5/6 214/5/6 216/5/6
f 214/2/6 215/2/6 217/2/6
f 216/5/6 214/5/6 217/5/6
f 217/2/6 215/2/6 218/2/6
f 219/4/6 220/4/6 221/4/6
f 221/4/6 220/4/6 222/4/6
