# MagicaVoxel @ Ephtracy

# group
o Garden Shaft

# material
mtllib Weapons-15-Garden Shaft.mtl
usemtl palette

# normals
vn -1 0 0
vn 1 0 0
vn 0 0 1
vn 0 0 -1
vn 0 -1 0
vn 0 1 0

# texcoords
vt 0.978516 0.5
vt 0.982422 0.5
vt 0.986328 0.5

# verts
v -0.2 -0.1 0.75
v -0.2 -0.1 -0.45
v -0.2 -0.1 -0.55
v -0.2 -0.1 -0.65
v -0.2 0 -0.55
v -0.2 0 -0.65
v -0.2 0 -0.75
v -0.2 0.1 0.75
v -0.2 0.1 -0.45
v -0.2 0.1 -0.55
v -0.2 0.1 -0.65
v -0.2 0.1 -0.75
v 0.2 -0.1 0.75
v 0.2 -0.1 -0.45
v 0.2 -0.1 -0.55
v 0.2 -0.1 -0.65
v 0.2 0 -0.55
v 0.2 0 -0.65
v 0.2 0 -0.75
v 0.2 0.1 0.75
v 0.2 0.1 -0.45
v 0.2 0.1 -0.55
v 0.2 0.1 -0.65
v 0.2 0.1 -0.75
v -0.2 -0.1 0.75
v -0.2 0.1 0.75
v 0.2 -0.1 0.75
v 0.2 0.1 0.75
v -0.2 -0.1 -0.65
v -0.2 0 -0.65
v 0.2 -0.1 -0.65
v 0.2 0 -0.65
v -0.2 0 -0.75
v -0.2 0.1 -0.75
v 0.2 0 -0.75
v 0.2 0.1 -0.75
v -0.2 -0.1 0.75
v 0.2 -0.1 0.75
v -0.2 -0.1 -0.45
v 0.2 -0.1 -0.45
v -0.2 -0.1 -0.55
v 0.2 -0.1 -0.55
v -0.2 -0.1 -0.65
v 0.2 -0.1 -0.65
v -0.2 0 -0.65
v 0.2 0 -0.65
v -0.2 0 -0.75
v 0.2 0 -0.75
v -0.2 0.1 0.75
v 0.2 0.1 0.75
v -0.2 0.1 -0.45
v 0.2 0.1 -0.45
v -0.2 0.1 -0.55
v -0.1 0.1 -0.55
v 0.1 0.1 -0.55
v 0.2 0.1 -0.55
v -0.2 0.1 -0.65
v -0.1 0.1 -0.65
v 0.1 0.1 -0.65
v 0.2 0.1 -0.65
v -0.2 0.1 -0.75
v 0.2 0.1 -0.75

# faces
f 5/2/1 3/2/1 2/2/1
f 5/3/1 4/3/1 3/3/1
f 6/3/1 4/3/1 5/3/1
f 8/3/1 2/3/1 1/3/1
f 9/2/1 5/2/1 2/2/1
f 9/3/1 2/3/1 8/3/1
f 10/1/1 6/1/1 5/1/1
f 10/2/1 5/2/1 9/2/1
f 11/2/1 7/2/1 6/2/1
f 11/1/1 6/1/1 10/1/1
f 12/2/1 7/2/1 11/2/1
f 14/2/2 15/2/2 17/2/2
f 15/3/2 16/3/2 17/3/2
f 17/3/2 16/3/2 18/3/2
f 13/3/2 14/3/2 20/3/2
f 14/2/2 17/2/2 21/2/2
f 20/3/2 14/3/2 21/3/2
f 17/1/2 18/1/2 22/1/2
f 21/2/2 17/2/2 22/2/2
f 18/2/2 19/2/2 23/2/2
f 22/1/2 18/1/2 23/1/2
f 23/2/2 19/2/2 24/2/2
f 27/3/3 26/3/3 25/3/3
f 28/3/3 26/3/3 27/3/3
f 29/3/4 30/3/4 31/3/4
f 31/3/4 30/3/4 32/3/4
f 33/2/4 34/2/4 35/2/4
f 35/2/4 34/2/4 36/2/4
f 39/3/5 38/3/5 37/3/5
f 40/3/5 38/3/5 39/3/5
f 41/2/5 40/2/5 39/2/5
f 42/2/5 40/2/5 41/2/5
f 43/3/5 42/3/5 41/3/5
f 44/3/5 42/3/5 43/3/5
f 47/2/5 46/2/5 45/2/5
f 48/2/5 46/2/5 47/2/5
f 49/3/6 50/3/6 51/3/6
f 51/3/6 50/3/6 52/3/6
f 51/2/6 52/2/6 53/2/6
f 53/2/6 52/2/6 54/2/6
f 54/2/6 52/2/6 55/2/6
f 55/2/6 52/2/6 56/2/6
f 53/1/6 54/1/6 57/1/6
f 54/3/6 55/3/6 58/3/6
f 57/1/6 54/1/6 58/1/6
f 55/1/6 56/1/6 59/1/6
f 58/3/6 55/3/6 59/3/6
f 59/1/6 56/1/6 60/1/6
f 57/2/6 58/2/6 61/2/6
f 58/2/6 59/2/6 61/2/6
f 59/2/6 60/2/6 61/2/6
f 61/2/6 60/2/6 62/2/6
