# MagicaVoxel @ Ephtracy

# group
o Floor_BoardsA

# material
mtllib SH_Enviorment-5-Floor_BoardsA.mtl
usemtl palette

# normals
vn -1 0 0
vn 1 0 0
vn 0 0 1
vn 0 0 -1
vn 0 -1 0
vn 0 1 0

# texcoords
vt 0.119141 0.5
vt 0.955078 0.5

# verts
v -0.05 -0.5 0.4
v -0.05 -0.5 0.3
v -0.05 -0.5 0.2
v -0.05 -0.5 0.1
v -0.05 -0.5 -0.1
v -0.05 -0.5 -0.2
v -0.05 -0.5 -0.4
v -0.05 -0.3 -0.2
v -0.05 -0.3 -0.3
v -0.05 0 0.4
v -0.05 0 0.3
v -0.05 0 0.1
v -0.05 0 0
v -0.05 0.1 -0.2
v -0.05 0.1 -0.3
v -0.05 0.3 -0.3
v -0.05 0.3 -0.4
v -0.05 0.5 0.4
v -0.05 0.5 0.2
v -0.05 0.5 0.1
v -0.05 0.5 0
v -0.05 0.5 -0.1
v -0.05 0.5 -0.2
v -0.05 0.5 -0.3
v -0.05 0.5 -0.4
v 0.05 -0.5 0.4
v 0.05 -0.5 0.3
v 0.05 -0.5 0.2
v 0.05 -0.5 0.1
v 0.05 -0.5 -0.1
v 0.05 -0.5 -0.2
v 0.05 -0.5 -0.4
v 0.05 -0.3 -0.2
v 0.05 -0.3 -0.3
v 0.05 0 0.4
v 0.05 0 0.3
v 0.05 0 0.1
v 0.05 0 0
v 0.05 0.1 -0.2
v 0.05 0.1 -0.3
v 0.05 0.3 -0.3
v 0.05 0.3 -0.4
v 0.05 0.5 0.4
v 0.05 0.5 0.2
v 0.05 0.5 0.1
v 0.05 0.5 0
v 0.05 0.5 -0.1
v 0.05 0.5 -0.2
v 0.05 0.5 -0.3
v 0.05 0.5 -0.4
v -0.05 -0.5 0.4
v -0.05 0 0.4
v -0.05 0.5 0.4
v 0.05 -0.5 0.4
v 0.05 0 0.4
v 0.05 0.5 0.4
v -0.05 -0.5 0.1
v -0.05 0 0.1
v -0.05 0.5 0.1
v 0.05 -0.5 0.1
v 0.05 0 0.1
v 0.05 0.5 0.1
v -0.05 -0.5 -0.2
v -0.05 -0.3 -0.2
v -0.05 0.1 -0.2
v -0.05 0.5 -0.2
v 0.05 -0.5 -0.2
v 0.05 -0.3 -0.2
v 0.05 0.1 -0.2
v 0.05 0.5 -0.2
v -0.05 -0.5 0.2
v -0.05 0.5 0.2
v 0.05 -0.5 0.2
v 0.05 0.5 0.2
v -0.05 -0.5 -0.1
v -0.05 0.5 -0.1
v 0.05 -0.5 -0.1
v 0.05 0.5 -0.1
v -0.05 -0.5 -0.4
v -0.05 0.3 -0.4
v -0.05 0.5 -0.4
v 0.05 -0.5 -0.4
v 0.05 0.3 -0.4
v 0.05 0.5 -0.4
v -0.05 -0.5 0.4
v 0.05 -0.5 0.4
v -0.05 -0.5 0.3
v 0.05 -0.5 0.3
v -0.05 -0.5 0.2
v 0.05 -0.5 0.2
v -0.05 -0.5 0.1
v 0.05 -0.5 0.1
v -0.05 -0.5 -0.1
v 0.05 -0.5 -0.1
v -0.05 -0.5 -0.2
v 0.05 -0.5 -0.2
v -0.05 -0.5 -0.4
v 0.05 -0.5 -0.4
v -0.05 0.5 0.4
v 0.05 0.5 0.4
v -0.05 0.5 0.2
v 0.05 0.5 0.2
v -0.05 0.5 0.1
v 0.05 0.5 0.1
v -0.05 0.5 0
v 0.05 0.5 0
v -0.05 0.5 -0.1
v 0.05 0.5 -0.1
v -0.05 0.5 -0.2
v 0.05 0.5 -0.2
v -0.05 0.5 -0.3
v 0.05 0.5 -0.3
v -0.05 0.5 -0.4
v 0.05 0.5 -0.4

# faces
f 8/2/1 7/2/1 6/2/1
f 9/2/1 7/2/1 8/2/1
f 10/1/1 2/1/1 1/1/1
f 11/2/1 3/2/1 2/2/1
f 11/1/1 2/1/1 10/1/1
f 12/2/1 5/2/1 4/2/1
f 13/2/1 5/2/1 12/2/1
f 14/1/1 9/1/1 8/1/1
f 15/2/1 7/2/1 9/2/1
f 15/1/1 9/1/1 14/1/1
f 16/2/1 15/2/1 14/2/1
f 16/2/1 7/2/1 15/2/1
f 17/2/1 7/2/1 16/2/1
f 18/2/1 11/2/1 10/2/1
f 19/2/1 3/2/1 11/2/1
f 19/2/1 11/2/1 18/2/1
f 20/1/1 13/1/1 12/1/1
f 21/2/1 5/2/1 13/2/1
f 21/1/1 13/1/1 20/1/1
f 22/2/1 5/2/1 21/2/1
f 23/2/1 16/2/1 14/2/1
f 24/1/1 17/1/1 16/1/1
f 24/2/1 16/2/1 23/2/1
f 25/1/1 17/1/1 24/1/1
f 31/2/2 32/2/2 33/2/2
f 33/2/2 32/2/2 34/2/2
f 26/1/2 27/1/2 35/1/2
f 27/2/2 28/2/2 36/2/2
f 35/1/2 27/1/2 36/1/2
f 29/2/2 30/2/2 37/2/2
f 37/2/2 30/2/2 38/2/2
f 33/1/2 34/1/2 39/1/2
f 34/2/2 32/2/2 40/2/2
f 39/1/2 34/1/2 40/1/2
f 39/2/2 40/2/2 41/2/2
f 40/2/2 32/2/2 41/2/2
f 41/2/2 32/2/2 42/2/2
f 35/2/2 36/2/2 43/2/2
f 36/2/2 28/2/2 44/2/2
f 43/2/2 36/2/2 44/2/2
f 37/1/2 38/1/2 45/1/2
f 38/2/2 30/2/2 46/2/2
f 45/1/2 38/1/2 46/1/2
f 46/2/2 30/2/2 47/2/2
f 39/2/2 41/2/2 48/2/2
f 41/1/2 42/1/2 49/1/2
f 48/2/2 41/2/2 49/2/2
f 49/1/2 42/1/2 50/1/2
f 54/1/3 52/1/3 51/1/3
f 55/2/3 53/2/3 52/2/3
f 55/1/3 52/1/3 54/1/3
f 56/2/3 53/2/3 55/2/3
f 60/2/3 58/2/3 57/2/3
f 61/1/3 59/1/3 58/1/3
f 61/2/3 58/2/3 60/2/3
f 62/1/3 59/1/3 61/1/3
f 67/2/3 64/2/3 63/2/3
f 68/1/3 65/1/3 64/1/3
f 68/2/3 64/2/3 67/2/3
f 69/2/3 66/2/3 65/2/3
f 69/1/3 65/1/3 68/1/3
f 70/2/3 66/2/3 69/2/3
f 71/2/4 72/2/4 73/2/4
f 73/2/4 72/2/4 74/2/4
f 75/2/4 76/2/4 77/2/4
f 77/2/4 76/2/4 78/2/4
f 79/2/4 80/2/4 82/2/4
f 80/1/4 81/1/4 83/1/4
f 82/2/4 80/2/4 83/2/4
f 83/1/4 81/1/4 84/1/4
f 87/1/5 86/1/5 85/1/5
f 88/1/5 86/1/5 87/1/5
f 89/2/5 88/2/5 87/2/5
f 90/2/5 88/2/5 89/2/5
f 93/2/5 92/2/5 91/2/5
f 94/2/5 92/2/5 93/2/5
f 97/2/5 96/2/5 95/2/5
f 98/2/5 96/2/5 97/2/5
f 99/2/6 100/2/6 101/2/6
f 101/2/6 100/2/6 102/2/6
f 103/1/6 104/1/6 105/1/6
f 105/1/6 104/1/6 106/1/6
f 105/2/6 106/2/6 107/2/6
f 107/2/6 106/2/6 108/2/6
f 109/2/6 110/2/6 111/2/6
f 111/2/6 110/2/6 112/2/6
f 111/1/6 112/1/6 113/1/6
f 113/1/6 112/1/6 114/1/6
