# MagicaVoxel @ Ephtracy

# group
o Floor_BoardsB

# material
mtllib SH_Enviorment-4-Floor_BoardsB.mtl
usemtl palette

# normals
vn -1 0 0
vn 1 0 0
vn 0 0 1
vn 0 0 -1
vn 0 -1 0
vn 0 1 0

# texcoords
vt 0.119141 0.5
vt 0.955078 0.5

# verts
v -0.05 -0.5 0.4
v -0.05 -0.5 0.3
v -0.05 -0.5 0.2
v -0.05 -0.5 0.1
v -0.05 -0.5 -0.1
v -0.05 -0.5 -0.2
v -0.05 -0.5 -0.4
v -0.05 -0.4 0.1
v -0.05 -0.4 0
v -0.05 -0.3 -0.2
v -0.05 -0.3 -0.3
v -0.05 -0.1 0
v -0.05 -0.1 -0.1
v -0.05 0 0.4
v -0.05 0 0.3
v -0.05 0.1 0.1
v -0.05 0.1 0
v -0.05 0.1 -0.2
v -0.05 0.1 -0.3
v -0.05 0.3 -0.3
v -0.05 0.3 -0.4
v -0.05 0.4 0
v -0.05 0.4 -0.1
v -0.05 0.5 0.4
v -0.05 0.5 0.2
v -0.05 0.5 0.1
v -0.05 0.5 0
v -0.05 0.5 -0.1
v -0.05 0.5 -0.2
v -0.05 0.5 -0.3
v -0.05 0.5 -0.4
v 0.05 -0.5 0.4
v 0.05 -0.5 0.3
v 0.05 -0.5 0.2
v 0.05 -0.5 0.1
v 0.05 -0.5 -0.1
v 0.05 -0.5 -0.2
v 0.05 -0.5 -0.4
v 0.05 -0.4 0.1
v 0.05 -0.4 0
v 0.05 -0.3 -0.2
v 0.05 -0.3 -0.3
v 0.05 -0.1 0
v 0.05 -0.1 -0.1
v 0.05 0 0.4
v 0.05 0 0.3
v 0.05 0.1 0.1
v 0.05 0.1 0
v 0.05 0.1 -0.2
v 0.05 0.1 -0.3
v 0.05 0.3 -0.3
v 0.05 0.3 -0.4
v 0.05 0.4 0
v 0.05 0.4 -0.1
v 0.05 0.5 0.4
v 0.05 0.5 0.2
v 0.05 0.5 0.1
v 0.05 0.5 0
v 0.05 0.5 -0.1
v 0.05 0.5 -0.2
v 0.05 0.5 -0.3
v 0.05 0.5 -0.4
v -0.05 -0.5 0.4
v -0.05 0 0.4
v -0.05 0.5 0.4
v 0.05 -0.5 0.4
v 0.05 0 0.4
v 0.05 0.5 0.4
v -0.05 -0.5 0.1
v -0.05 -0.4 0.1
v -0.05 0.1 0.1
v -0.05 0.5 0.1
v 0.05 -0.5 0.1
v 0.05 -0.4 0.1
v 0.05 0.1 0.1
v 0.05 0.5 0.1
v -0.05 -0.4 0
v -0.05 -0.1 0
v 0.05 -0.4 0
v 0.05 -0.1 0
v -0.05 -0.5 -0.2
v -0.05 -0.3 -0.2
v -0.05 0.1 -0.2
v -0.05 0.5 -0.2
v 0.05 -0.5 -0.2
v 0.05 -0.3 -0.2
v 0.05 0.1 -0.2
v 0.05 0.5 -0.2
v -0.05 -0.5 0.2
v -0.05 0.5 0.2
v 0.05 -0.5 0.2
v 0.05 0.5 0.2
v -0.05 0.1 0
v -0.05 0.4 0
v 0.05 0.1 0
v 0.05 0.4 0
v -0.05 -0.5 -0.1
v -0.05 -0.1 -0.1
v -0.05 0.4 -0.1
v -0.05 0.5 -0.1
v 0.05 -0.5 -0.1
v 0.05 -0.1 -0.1
v 0.05 0.4 -0.1
v 0.05 0.5 -0.1
v -0.05 -0.5 -0.4
v -0.05 0.3 -0.4
v -0.05 0.5 -0.4
v 0.05 -0.5 -0.4
v 0.05 0.3 -0.4
v 0.05 0.5 -0.4
v -0.05 -0.5 0.4
v 0.05 -0.5 0.4
v -0.05 -0.5 0.3
v 0.05 -0.5 0.3
v -0.05 -0.5 0.2
v 0.05 -0.5 0.2
v -0.05 -0.5 0.1
v 0.05 -0.5 0.1
v -0.05 -0.5 -0.1
v 0.05 -0.5 -0.1
v -0.05 -0.5 -0.2
v 0.05 -0.5 -0.2
v -0.05 -0.5 -0.4
v 0.05 -0.5 -0.4
v -0.05 0.1 0.1
v 0.05 0.1 0.1
v -0.05 0.1 0
v 0.05 0.1 0
v -0.05 0.4 0
v 0.05 0.4 0
v -0.05 0.4 -0.1
v 0.05 0.4 -0.1
v -0.05 -0.4 0.1
v 0.05 -0.4 0.1
v -0.05 -0.4 0
v 0.05 -0.4 0
v -0.05 -0.1 0
v 0.05 -0.1 0
v -0.05 -0.1 -0.1
v 0.05 -0.1 -0.1
v -0.05 0.5 0.4
v 0.05 0.5 0.4
v -0.05 0.5 0.2
v 0.05 0.5 0.2
v -0.05 0.5 0.1
v 0.05 0.5 0.1
v -0.05 0.5 0
v 0.05 0.5 0
v -0.05 0.5 -0.1
v 0.05 0.5 -0.1
v -0.05 0.5 -0.2
v 0.05 0.5 -0.2
v -0.05 0.5 -0.3
v 0.05 0.5 -0.3
v -0.05 0.5 -0.4
v 0.05 0.5 -0.4

# faces
f 8/2/1 5/2/1 4/2/1
f 9/2/1 5/2/1 8/2/1
f 10/2/1 7/2/1 6/2/1
f 11/2/1 7/2/1 10/2/1
f 12/2/1 5/2/1 9/2/1
f 13/2/1 5/2/1 12/2/1
f 14/1/1 2/1/1 1/1/1
f 15/2/1 3/2/1 2/2/1
f 15/1/1 2/1/1 14/1/1
f 18/1/1 11/1/1 10/1/1
f 19/2/1 7/2/1 11/2/1
f 19/1/1 11/1/1 18/1/1
f 20/2/1 19/2/1 18/2/1
f 20/2/1 7/2/1 19/2/1
f 21/2/1 7/2/1 20/2/1
f 22/1/1 17/1/1 16/1/1
f 24/2/1 15/2/1 14/2/1
f 25/2/1 3/2/1 15/2/1
f 25/2/1 15/2/1 24/2/1
f 26/1/1 22/1/1 16/1/1
f 27/2/1 23/2/1 22/2/1
f 27/1/1 22/1/1 26/1/1
f 28/2/1 23/2/1 27/2/1
f 29/2/1 20/2/1 18/2/1
f 30/1/1 21/1/1 20/1/1
f 30/2/1 20/2/1 29/2/1
f 31/1/1 21/1/1 30/1/1
f 35/2/2 36/2/2 39/2/2
f 39/2/2 36/2/2 40/2/2
f 37/2/2 38/2/2 41/2/2
f 41/2/2 38/2/2 42/2/2
f 40/2/2 36/2/2 43/2/2
f 43/2/2 36/2/2 44/2/2
f 32/1/2 33/1/2 45/1/2
f 33/2/2 34/2/2 46/2/2
f 45/1/2 33/1/2 46/1/2
f 41/1/2 42/1/2 49/1/2
f 42/2/2 38/2/2 50/2/2
f 49/1/2 42/1/2 50/1/2
f 49/2/2 50/2/2 51/2/2
f 50/2/2 38/2/2 51/2/2
f 51/2/2 38/2/2 52/2/2
f 47/1/2 48/1/2 53/1/2
f 45/2/2 46/2/2 55/2/2
f 46/2/2 34/2/2 56/2/2
f 55/2/2 46/2/2 56/2/2
f 47/1/2 53/1/2 57/1/2
f 53/2/2 54/2/2 58/2/2
f 57/1/2 53/1/2 58/1/2
f 58/2/2 54/2/2 59/2/2
f 49/2/2 51/2/2 60/2/2
f 51/1/2 52/1/2 61/1/2
f 60/2/2 51/2/2 61/2/2
f 61/1/2 52/1/2 62/1/2
f 66/1/3 64/1/3 63/1/3
f 67/2/3 65/2/3 64/2/3
f 67/1/3 64/1/3 66/1/3
f 68/2/3 65/2/3 67/2/3
f 73/2/3 70/2/3 69/2/3
f 74/2/3 70/2/3 73/2/3
f 75/1/3 72/1/3 71/1/3
f 76/1/3 72/1/3 75/1/3
f 79/2/3 78/2/3 77/2/3
f 80/2/3 78/2/3 79/2/3
f 85/2/3 82/2/3 81/2/3
f 86/1/3 83/1/3 82/1/3
f 86/2/3 82/2/3 85/2/3
f 87/2/3 84/2/3 83/2/3
f 87/1/3 83/1/3 86/1/3
f 88/2/3 84/2/3 87/2/3
f 89/2/4 90/2/4 91/2/4
f 91/2/4 90/2/4 92/2/4
f 93/1/4 94/1/4 95/1/4
f 95/1/4 94/1/4 96/1/4
f 97/2/4 98/2/4 101/2/4
f 101/2/4 98/2/4 102/2/4
f 99/2/4 100/2/4 103/2/4
f 103/2/4 100/2/4 104/2/4
f 105/2/4 106/2/4 108/2/4
f 106/1/4 107/1/4 109/1/4
f 108/2/4 106/2/4 109/2/4
f 109/1/4 107/1/4 110/1/4
f 113/1/5 112/1/5 111/1/5
f 114/1/5 112/1/5 113/1/5
f 115/2/5 114/2/5 113/2/5
f 116/2/5 114/2/5 115/2/5
f 119/2/5 118/2/5 117/2/5
f 120/2/5 118/2/5 119/2/5
f 123/2/5 122/2/5 121/2/5
f 124/2/5 122/2/5 123/2/5
f 127/1/5 126/1/5 125/1/5
f 128/1/5 126/1/5 127/1/5
f 131/2/5 130/2/5 129/2/5
f 132/2/5 130/2/5 131/2/5
f 133/2/6 134/2/6 135/2/6
f 135/2/6 134/2/6 136/2/6
f 137/2/6 138/2/6 139/2/6
f 139/2/6 138/2/6 140/2/6
f 141/2/6 142/2/6 143/2/6
f 143/2/6 142/2/6 144/2/6
f 145/1/6 146/1/6 147/1/6
f 147/1/6 146/1/6 148/1/6
f 147/2/6 148/2/6 149/2/6
f 149/2/6 148/2/6 150/2/6
f 151/2/6 152/2/6 153/2/6
f 153/2/6 152/2/6 154/2/6
f 153/1/6 154/1/6 155/1/6
f 155/1/6 154/1/6 156/1/6
