# MagicaVoxel @ Ephtracy

# group
o Brick_DetailA

# material
mtllib SH_Enviorment-8-Brick_DetailA.mtl
usemtl palette

# normals
vn -1 0 0
vn 1 0 0
vn 0 0 1
vn 0 0 -1
vn 0 -1 0
vn 0 1 0

# texcoords
vt 0.158203 0.5
vt 0.169922 0.5

# verts
v -0.2 -0.25 0.2
v -0.2 -0.25 -0.1
v -0.2 -0.15 0.2
v -0.2 -0.15 0
v -0.2 -0.15 -0.1
v -0.2 -0.15 -0.3
v -0.2 -0.05 0
v -0.2 -0.05 -0.3
v -0.2 0.05 0.4
v -0.2 0.05 0.1
v -0.2 0.15 0.4
v -0.2 0.15 0.1
v -0.2 0.25 0.1
v -0.2 0.25 -0.2
v -0.2 0.35 0.1
v -0.2 0.35 -0.2
v -0.1 -0.45 0.3
v -0.1 -0.45 -0.3
v -0.1 -0.35 0.4
v -0.1 -0.35 0.3
v -0.1 -0.35 0.1
v -0.1 -0.35 -0.1
v -0.1 -0.35 -0.3
v -0.1 -0.35 -0.4
v -0.1 -0.25 0.5
v -0.1 -0.25 0.4
v -0.1 -0.25 0.2
v -0.1 -0.25 0.1
v -0.1 -0.25 -0.1
v -0.1 -0.25 -0.4
v -0.1 -0.25 -0.5
v -0.1 -0.15 0.5
v -0.1 -0.15 0.4
v -0.1 -0.15 0.3
v -0.1 -0.15 0.2
v -0.1 -0.15 0
v -0.1 -0.15 -0.1
v -0.1 -0.15 -0.3
v -0.1 -0.15 -0.4
v -0.1 -0.15 -0.5
v -0.1 -0.05 0.5
v -0.1 -0.05 0.4
v -0.1 -0.05 0.3
v -0.1 -0.05 0.2
v -0.1 -0.05 0
v -0.1 -0.05 -0.1
v -0.1 -0.05 -0.3
v -0.1 -0.05 -0.4
v -0.1 -0.05 -0.5
v -0.1 0.05 0.5
v -0.1 0.05 0.4
v -0.1 0.05 0.2
v -0.1 0.05 0.1
v -0.1 0.05 -0.1
v -0.1 0.05 -0.4
v -0.1 0.05 -0.5
v -0.1 0.15 0.5
v -0.1 0.15 0.4
v -0.1 0.15 0.2
v -0.1 0.15 0.1
v -0.1 0.15 -0.1
v -0.1 0.15 -0.4
v -0.1 0.15 -0.5
v -0.1 0.25 0.5
v -0.1 0.25 0.4
v -0.1 0.25 0.2
v -0.1 0.25 0.1
v -0.1 0.25 -0.1
v -0.1 0.25 -0.2
v -0.1 0.25 -0.4
v -0.1 0.25 -0.5
v -0.1 0.35 0.4
v -0.1 0.35 0.3
v -0.1 0.35 0.1
v -0.1 0.35 0
v -0.1 0.35 -0.2
v -0.1 0.35 -0.3
v -0.1 0.35 -0.4
v -0.1 0.45 0.3
v -0.1 0.45 0
v -0.1 0.45 -0.3
v 0 0.05 0.4
v 0 0.05 0.3
v 0 0.05 -0.3
v 0 0.05 -0.4
v 0 0.15 0.4
v 0 0.15 0.3
v 0 0.15 -0.3
v 0 0.15 -0.4
v 0 0.35 0.3
v 0 0.35 0.2
v 0 0.35 -0.1
v 0 0.35 -0.3
v 0 0.45 0.3
v 0 0.45 0.2
v 0 0.45 -0.1
v 0 0.45 -0.3
v 0.1 -0.45 0.3
v 0.1 -0.45 0
v 0.1 -0.45 -0.3
v 0.1 -0.35 0.4
v 0.1 -0.35 0.3
v 0.1 -0.35 0.1
v 0.1 -0.35 0
v 0.1 -0.35 -0.2
v 0.1 -0.35 -0.3
v 0.1 -0.35 -0.4
v 0.1 -0.25 0.5
v 0.1 -0.25 0.4
v 0.1 -0.25 0.2
v 0.1 -0.25 0.1
v 0.1 -0.25 -0.1
v 0.1 -0.25 -0.2
v 0.1 -0.25 -0.4
v 0.1 -0.25 -0.5
v 0.1 -0.15 0.5
v 0.1 -0.15 0.4
v 0.1 -0.15 0.2
v 0.1 -0.15 0.1
v 0.1 -0.15 -0.1
v 0.1 -0.15 -0.4
v 0.1 -0.15 -0.5
v 0.1 -0.05 0.5
v 0.1 -0.05 0.4
v 0.1 -0.05 0.2
v 0.1 -0.05 0.1
v 0.1 -0.05 -0.1
v 0.1 -0.05 -0.4
v 0.1 -0.05 -0.5
v 0.1 0.05 0.5
v 0.1 0.05 0.3
v 0.1 0.05 0.2
v 0.1 0.05 0
v 0.1 0.05 -0.1
v 0.1 0.05 -0.3
v 0.1 0.05 -0.4
v 0.1 0.05 -0.5
v 0.1 0.15 0.5
v 0.1 0.15 0.3
v 0.1 0.15 0.2
v 0.1 0.15 0
v 0.1 0.15 -0.1
v 0.1 0.15 -0.3
v 0.1 0.15 -0.5
v 0.1 0.25 0.5
v 0.1 0.25 0.4
v 0.1 0.25 0.2
v 0.1 0.25 0.1
v 0.1 0.25 -0.1
v 0.1 0.25 -0.4
v 0.1 0.25 -0.5
v 0.1 0.35 0.4
v 0.1 0.35 0.2
v 0.1 0.35 0.1
v 0.1 0.35 -0.1
v 0.1 0.35 -0.4
v 0.1 0.45 0.2
v 0.1 0.45 -0.1
v 0.2 -0.35 0.1
v 0.2 -0.35 -0.2
v 0.2 -0.25 0.1
v 0.2 -0.25 -0.2
v 0.2 -0.15 0.4
v 0.2 -0.15 0.1
v 0.2 -0.05 0.4
v 0.2 -0.05 0.1
v 0.2 0.05 0
v 0.2 0.05 -0.3
v 0.2 0.15 0.2
v 0.2 0.15 0
v 0.2 0.15 -0.1
v 0.2 0.15 -0.3
v 0.2 0.25 0.2
v 0.2 0.25 -0.1
v -0.1 -0.25 0.5
v -0.1 -0.15 0.5
v -0.1 -0.05 0.5
v -0.1 0.05 0.5
v -0.1 0.15 0.5
v -0.1 0.25 0.5
v 0.1 -0.25 0.5
v 0.1 -0.15 0.5
v 0.1 -0.05 0.5
v 0.1 0.05 0.5
v 0.1 0.15 0.5
v 0.1 0.25 0.5
v -0.2 0.05 0.4
v -0.2 0.15 0.4
v -0.1 -0.35 0.4
v -0.1 -0.25 0.4
v -0.1 -0.15 0.4
v -0.1 -0.05 0.4
v -0.1 0.05 0.4
v -0.1 0.15 0.4
v -0.1 0.25 0.4
v -0.1 0.35 0.4
v 0 0.05 0.4
v 0 0.15 0.4
v 0.1 -0.35 0.4
v 0.1 -0.25 0.4
v 0.1 -0.15 0.4
v 0.1 -0.05 0.4
v 0.1 0.25 0.4
v 0.1 0.35 0.4
v 0.2 -0.15 0.4
v 0.2 -0.05 0.4
v -0.1 -0.45 0.3
v -0.1 -0.35 0.3
v -0.1 0.35 0.3
v -0.1 0.45 0.3
v 0 0.05 0.3
v 0 0.15 0.3
v 0 0.35 0.3
v 0 0.45 0.3
v 0.1 -0.45 0.3
v 0.1 -0.35 0.3
v 0.1 0.05 0.3
v 0.1 0.15 0.3
v -0.2 -0.25 0.2
v -0.2 -0.15 0.2
v -0.1 -0.25 0.2
v -0.1 -0.15 0.2
v 0 0.35 0.2
v 0 0.45 0.2
v 0.1 0.15 0.2
v 0.1 0.25 0.2
v 0.1 0.35 0.2
v 0.1 0.45 0.2
v 0.2 0.15 0.2
v 0.2 0.25 0.2
v -0.2 0.25 0.1
v -0.2 0.35 0.1
v -0.1 0.25 0.1
v -0.1 0.35 0.1
v 0.1 -0.35 0.1
v 0.1 -0.25 0.1
v 0.2 -0.35 0.1
v 0.2 -0.25 0.1
v -0.2 -0.15 0
v -0.2 -0.05 0
v -0.1 -0.15 0
v -0.1 -0.05 0
v 0.1 0.05 0
v 0.1 0.15 0
v 0.2 0.05 0
v 0.2 0.15 0
v -0.2 0.05 0.1
v -0.2 0.15 0.1
v -0.1 0.05 0.1
v -0.1 0.15 0.1
v 0.1 -0.15 0.1
v 0.1 -0.05 0.1
v 0.2 -0.15 0.1
v 0.2 -0.05 0.1
v -0.2 -0.25 -0.1
v -0.2 -0.15 -0.1
v -0.1 -0.25 -0.1
v -0.1 -0.15 -0.1
v 0 0.35 -0.1
v 0 0.45 -0.1
v 0.1 0.15 -0.1
v 0.1 0.25 -0.1
v 0.1 0.35 -0.1
v 0.1 0.45 -0.1
v 0.2 0.15 -0.1
v 0.2 0.25 -0.1
v -0.2 0.25 -0.2
v -0.2 0.35 -0.2
v -0.1 0.25 -0.2
v -0.1 0.35 -0.2
v 0.1 -0.35 -0.2
v 0.1 -0.25 -0.2
v 0.2 -0.35 -0.2
v 0.2 -0.25 -0.2
v -0.2 -0.15 -0.3
v -0.2 -0.05 -0.3
v -0.1 -0.45 -0.3
v -0.1 -0.35 -0.3
v -0.1 -0.15 -0.3
v -0.1 -0.05 -0.3
v -0.1 0.35 -0.3
v -0.1 0.45 -0.3
v 0 -0.45 -0.3
v 0 -0.35 -0.3
v 0 0.05 -0.3
v 0 0.15 -0.3
v 0 0.35 -0.3
v 0 0.45 -0.3
v 0.1 -0.45 -0.3
v 0.1 -0.35 -0.3
v 0.1 0.05 -0.3
v 0.1 0.15 -0.3
v 0.2 0.05 -0.3
v 0.2 0.15 -0.3
v -0.1 -0.35 -0.4
v -0.1 -0.25 -0.4
v -0.1 -0.15 -0.4
v -0.1 -0.05 -0.4
v -0.1 0.05 -0.4
v -0.1 0.15 -0.4
v -0.1 0.25 -0.4
v -0.1 0.35 -0.4
v 0 -0.35 -0.4
v 0 -0.25 -0.4
v 0 0.05 -0.4
v 0 0.15 -0.4
v 0 0.25 -0.4
v 0 0.35 -0.4
v 0.1 -0.35 -0.4
v 0.1 -0.25 -0.4
v 0.1 -0.15 -0.4
v 0.1 -0.05 -0.4
v 0.1 0.25 -0.4
v 0.1 0.35 -0.4
v -0.1 -0.25 -0.5
v -0.1 -0.15 -0.5
v -0.1 -0.05 -0.5
v -0.1 0.05 -0.5
v -0.1 0.15 -0.5
v -0.1 0.25 -0.5
v 0.1 -0.25 -0.5
v 0.1 -0.15 -0.5
v 0.1 -0.05 -0.5
v 0.1 0.05 -0.5
v 0.1 0.15 -0.5
v 0.1 0.25 -0.5
v -0.1 -0.45 0.3
v 0.1 -0.45 0.3
v 0 -0.45 0
v 0.1 -0.45 0
v -0.1 -0.45 -0.3
v 0 -0.45 -0.3
v 0.1 -0.45 -0.3
v -0.1 -0.35 0.4
v 0.1 -0.35 0.4
v -0.1 -0.35 0.3
v 0.1 -0.35 0.3
v 0.1 -0.35 0.1
v 0.2 -0.35 0.1
v 0.1 -0.35 0
v 0.1 -0.35 -0.2
v 0.2 -0.35 -0.2
v -0.1 -0.35 -0.3
v 0 -0.35 -0.3
v 0.1 -0.35 -0.3
v -0.1 -0.35 -0.4
v 0 -0.35 -0.4
v 0.1 -0.35 -0.4
v -0.1 -0.25 0.5
v 0.1 -0.25 0.5
v -0.1 -0.25 0.4
v 0.1 -0.25 0.4
v -0.2 -0.25 0.2
v -0.1 -0.25 0.2
v -0.1 -0.25 0.1
v -0.2 -0.25 -0.1
v -0.1 -0.25 -0.1
v -0.1 -0.25 -0.4
v 0 -0.25 -0.4
v 0.1 -0.25 -0.4
v -0.1 -0.25 -0.5
v 0.1 -0.25 -0.5
v 0.1 -0.15 0.4
v 0.2 -0.15 0.4
v 0.1 -0.15 0.2
v 0.1 -0.15 0.1
v 0.2 -0.15 0.1
v -0.2 -0.15 -0.1
v -0.1 -0.15 -0.1
v -0.2 -0.15 -0.3
v -0.1 -0.15 -0.3
v -0.1 -0.05 0.5
v 0.1 -0.05 0.5
v -0.1 -0.05 0.4
v 0.1 -0.05 0.4
v -0.1 -0.05 -0.4
v 0.1 -0.05 -0.4
v -0.1 -0.05 -0.5
v 0.1 -0.05 -0.5
v -0.2 0.05 0.4
v -0.1 0.05 0.4
v -0.1 0.05 0.2
v -0.2 0.05 0.1
v -0.1 0.05 0.1
v 0.1 0.05 0
v 0.2 0.05 0
v 0.1 0.05 -0.1
v 0.1 0.05 -0.3
v 0.2 0.05 -0.3
v -0.1 0.15 0.5
v 0.1 0.15 0.5
v -0.1 0.15 0.4
v 0 0.15 0.4
v 0 0.15 0.3
v 0.1 0.15 0.3
v 0.1 0.15 0.2
v 0.2 0.15 0.2
v 0.1 0.15 0
v 0.2 0.15 0
v 0 0.15 -0.3
v 0.1 0.15 -0.3
v -0.1 0.15 -0.4
v 0 0.15 -0.4
v -0.1 0.15 -0.5
v 0.1 0.15 -0.5
v -0.2 0.25 0.1
v -0.1 0.25 0.1
v -0.1 0.25 -0.1
v -0.2 0.25 -0.2
v -0.1 0.25 -0.2
v 0.1 -0.25 0.1
v 0.2 -0.25 0.1
v 0.1 -0.25 -0.1
v 0.1 -0.25 -0.2
v 0.2 -0.25 -0.2
v -0.1 -0.15 0.5
v 0.1 -0.15 0.5
v -0.1 -0.15 0.4
v 0.1 -0.15 0.4
v -0.2 -0.15 0.2
v -0.1 -0.15 0.2
v -0.2 -0.15 0
v -0.1 -0.15 0
v -0.1 -0.15 -0.4
v 0.1 -0.15 -0.4
v -0.1 -0.15 -0.5
v 0.1 -0.15 -0.5
v 0.1 -0.05 0.4
v 0.2 -0.05 0.4
v 0.1 -0.05 0.2
v 0.1 -0.05 0.1
v 0.2 -0.05 0.1
v -0.2 -0.05 0
v -0.1 -0.05 0
v -0.1 -0.05 -0.1
v -0.2 -0.05 -0.3
v -0.1 -0.05 -0.3
v -0.1 0.05 0.5
v 0.1 0.05 0.5
v -0.1 0.05 0.4
v 0 0.05 0.4
v 0 0.05 0.3
v 0.1 0.05 0.3
v 0 0.05 -0.3
v 0.1 0.05 -0.3
v -0.1 0.05 -0.4
v 0 0.05 -0.4
v 0.1 0.05 -0.4
v -0.1 0.05 -0.5
v 0.1 0.05 -0.5
v -0.2 0.15 0.4
v -0.1 0.15 0.4
v -0.1 0.15 0.2
v -0.2 0.15 0.1
v -0.1 0.15 0.1
v 0.1 0.15 -0.1
v 0.2 0.15 -0.1
v 0.1 0.15 -0.3
v 0.2 0.15 -0.3
v -0.1 0.25 0.5
v 0.1 0.25 0.5
v -0.1 0.25 0.4
v 0.1 0.25 0.4
v 0.1 0.25 0.2
v 0.2 0.25 0.2
v 0.1 0.25 0.1
v 0.1 0.25 -0.1
v 0.2 0.25 -0.1
v -0.1 0.25 -0.4
v 0 0.25 -0.4
v 0.1 0.25 -0.4
v -0.1 0.25 -0.5
v 0.1 0.25 -0.5
v -0.1 0.35 0.4
v 0.1 0.35 0.4
v -0.1 0.35 0.3
v 0 0.35 0.3
v 0 0.35 0.2
v 0.1 0.35 0.2
v -0.2 0.35 0.1
v -0.1 0.35 0.1
v -0.1 0.35 0
v 0 0.35 -0.1
v 0.1 0.35 -0.1
v -0.2 0.35 -0.2
v -0.1 0.35 -0.2
v -0.1 0.35 -0.3
v 0 0.35 -0.3
v -0.1 0.35 -0.4
v 0 0.35 -0.4
v 0.1 0.35 -0.4
v -0.1 0.45 0.3
v 0 0.45 0.3
v 0 0.45 0.2
v 0.1 0.45 0.2
v -0.1 0.45 0
v 0 0.45 0
v 0 0.45 -0.1
v 0.1 0.45 -0.1
v -0.1 0.45 -0.3
v 0 0.45 -0.3

# faces
f 3/2/1 2/2/1 1/2/1
f 4/2/1 2/2/1 3/2/1
f 5/2/1 2/2/1 4/2/1
f 7/1/1 6/1/1 5/1/1
f 7/1/1 5/1/1 4/1/1
f 8/1/1 6/1/1 7/1/1
f 11/1/1 10/1/1 9/1/1
f 12/1/1 10/1/1 11/1/1
f 15/2/1 14/2/1 13/2/1
f 16/2/1 14/2/1 15/2/1
f 20/1/1 18/1/1 17/1/1
f 21/1/1 18/1/1 20/1/1
f 22/1/1 18/1/1 21/1/1
f 23/1/1 18/1/1 22/1/1
f 26/2/1 20/2/1 19/2/1
f 26/2/1 21/2/1 20/2/1
f 27/2/1 21/2/1 26/2/1
f 28/1/1 22/1/1 21/1/1
f 28/2/1 21/2/1 27/2/1
f 29/2/1 24/2/1 23/2/1
f 29/1/1 22/1/1 28/1/1
f 29/2/1 23/2/1 22/2/1
f 30/2/1 24/2/1 29/2/1
f 32/1/1 26/1/1 25/1/1
f 32/1/1 27/1/1 26/1/1
f 33/1/1 27/1/1 32/1/1
f 34/1/1 27/1/1 33/1/1
f 35/1/1 27/1/1 34/1/1
f 37/1/1 31/1/1 30/1/1
f 37/1/1 30/1/1 29/1/1
f 38/1/1 31/1/1 37/1/1
f 39/1/1 31/1/1 38/1/1
f 40/1/1 31/1/1 39/1/1
f 42/1/1 34/1/1 33/1/1
f 43/2/1 36/2/1 35/2/1
f 43/2/1 35/2/1 34/2/1
f 43/1/1 34/1/1 42/1/1
f 44/2/1 36/2/1 43/2/1
f 45/2/1 36/2/1 44/2/1
f 47/1/1 39/1/1 38/1/1
f 48/1/1 39/1/1 47/1/1
f 50/2/1 42/2/1 41/2/1
f 50/2/1 43/2/1 42/2/1
f 50/2/1 44/2/1 43/2/1
f 51/2/1 44/2/1 50/2/1
f 52/1/1 46/1/1 45/1/1
f 52/2/1 44/2/1 51/2/1
f 52/1/1 45/1/1 44/1/1
f 53/1/1 46/1/1 52/1/1
f 54/2/1 48/2/1 47/2/1
f 54/1/1 46/1/1 53/1/1
f 54/2/1 47/2/1 46/2/1
f 55/1/1 49/1/1 48/1/1
f 55/2/1 48/2/1 54/2/1
f 56/1/1 49/1/1 55/1/1
f 60/1/1 54/1/1 53/1/1
f 60/1/1 55/1/1 54/1/1
f 61/1/1 55/1/1 60/1/1
f 62/1/1 55/1/1 61/1/1
f 64/1/1 59/1/1 58/1/1
f 64/1/1 58/1/1 57/1/1
f 65/1/1 59/1/1 64/1/1
f 66/2/1 60/2/1 59/2/1
f 66/1/1 59/1/1 65/1/1
f 66/2/1 61/2/1 60/2/1
f 67/2/1 61/2/1 66/2/1
f 68/1/1 63/1/1 62/1/1
f 68/2/1 61/2/1 67/2/1
f 68/1/1 62/1/1 61/1/1
f 69/1/1 63/1/1 68/1/1
f 70/1/1 63/1/1 69/1/1
f 71/1/1 63/1/1 70/1/1
f 72/2/1 67/2/1 66/2/1
f 72/2/1 66/2/1 65/2/1
f 73/2/1 67/2/1 72/2/1
f 74/2/1 67/2/1 73/2/1
f 76/1/1 70/1/1 69/1/1
f 77/1/1 70/1/1 76/1/1
f 78/1/1 70/1/1 77/1/1
f 79/1/1 75/1/1 74/1/1
f 79/1/1 74/1/1 73/1/1
f 80/2/1 77/2/1 76/2/1
f 80/1/1 75/1/1 79/1/1
f 80/2/1 76/2/1 75/2/1
f 81/2/1 77/2/1 80/2/1
f 82/1/2 83/1/2 86/1/2
f 86/1/2 83/1/2 87/1/2
f 84/1/2 85/1/2 88/1/2
f 88/1/2 85/1/2 89/1/2
f 90/1/2 91/1/2 94/1/2
f 94/1/2 91/1/2 95/1/2
f 92/2/2 93/2/2 96/2/2
f 96/2/2 93/2/2 97/2/2
f 98/1/2 99/1/2 102/1/2
f 102/1/2 99/1/2 103/1/2
f 99/2/2 100/2/2 104/2/2
f 103/1/2 99/1/2 104/1/2
f 104/2/2 100/2/2 105/2/2
f 105/2/2 100/2/2 106/2/2
f 102/2/2 103/2/2 109/2/2
f 101/2/2 102/2/2 109/2/2
f 109/2/2 103/2/2 110/2/2
f 110/2/2 103/2/2 111/2/2
f 105/1/2 106/1/2 113/1/2
f 106/1/2 107/1/2 113/1/2
f 113/1/2 107/1/2 114/1/2
f 108/1/2 109/1/2 116/1/2
f 109/1/2 110/1/2 116/1/2
f 116/1/2 110/1/2 117/1/2
f 111/2/2 112/2/2 118/2/2
f 117/1/2 110/1/2 118/1/2
f 110/2/2 111/2/2 118/2/2
f 118/2/2 112/2/2 119/2/2
f 114/1/2 115/1/2 120/1/2
f 119/2/2 112/2/2 120/2/2
f 113/1/2 114/1/2 120/1/2
f 112/1/2 113/1/2 120/1/2
f 120/1/2 115/1/2 121/1/2
f 121/1/2 115/1/2 122/1/2
f 120/1/2 121/1/2 126/1/2
f 119/1/2 120/1/2 126/1/2
f 126/1/2 121/1/2 127/1/2
f 127/1/2 121/1/2 128/1/2
f 124/2/2 125/2/2 130/2/2
f 123/2/2 124/2/2 130/2/2
f 130/2/2 125/2/2 131/2/2
f 125/1/2 126/1/2 132/1/2
f 131/2/2 125/2/2 132/2/2
f 126/1/2 127/1/2 132/1/2
f 132/1/2 127/1/2 133/1/2
f 127/2/2 128/2/2 134/2/2
f 133/1/2 127/1/2 134/1/2
f 134/2/2 128/2/2 135/2/2
f 128/1/2 129/1/2 136/1/2
f 135/2/2 128/2/2 136/2/2
f 136/1/2 129/1/2 137/1/2
f 132/2/2 133/2/2 139/2/2
f 131/2/2 132/2/2 139/2/2
f 139/2/2 133/2/2 140/2/2
f 140/2/2 133/2/2 141/2/2
f 138/1/2 139/1/2 145/1/2
f 139/1/2 140/1/2 145/1/2
f 145/1/2 140/1/2 146/1/2
f 146/1/2 140/1/2 147/1/2
f 143/1/2 144/1/2 149/1/2
f 142/1/2 143/1/2 149/1/2
f 149/1/2 144/1/2 150/1/2
f 150/1/2 144/1/2 151/1/2
f 147/2/2 148/2/2 152/2/2
f 146/2/2 147/2/2 152/2/2
f 152/2/2 148/2/2 153/2/2
f 148/1/2 149/1/2 154/1/2
f 153/2/2 148/2/2 154/2/2
f 149/2/2 150/2/2 155/2/2
f 154/1/2 149/1/2 155/1/2
f 155/2/2 150/2/2 156/2/2
f 153/1/2 154/1/2 157/1/2
f 154/1/2 155/1/2 157/1/2
f 157/1/2 155/1/2 158/1/2
f 159/2/2 160/2/2 161/2/2
f 161/2/2 160/2/2 162/2/2
f 163/1/2 164/1/2 165/1/2
f 165/1/2 164/1/2 166/1/2
f 167/1/2 168/1/2 170/1/2
f 170/1/2 168/1/2 171/1/2
f 171/1/2 168/1/2 172/1/2
f 169/2/2 170/2/2 173/2/2
f 170/2/2 171/2/2 173/2/2
f 173/2/2 171/2/2 174/2/2
f 181/1/3 176/1/3 175/1/3
f 182/1/3 176/1/3 181/1/3
f 183/2/3 178/2/3 177/2/3
f 184/2/3 178/2/3 183/2/3
f 185/1/3 180/1/3 179/1/3
f 186/1/3 180/1/3 185/1/3
f 193/1/3 188/1/3 187/1/3
f 194/1/3 188/1/3 193/1/3
f 197/1/3 194/1/3 193/1/3
f 198/1/3 194/1/3 197/1/3
f 199/2/3 190/2/3 189/2/3
f 200/2/3 190/2/3 199/2/3
f 201/1/3 192/1/3 191/1/3
f 202/1/3 192/1/3 201/1/3
f 203/2/3 196/2/3 195/2/3
f 204/2/3 196/2/3 203/2/3
f 205/1/3 202/1/3 201/1/3
f 206/1/3 202/1/3 205/1/3
f 213/1/3 210/1/3 209/1/3
f 214/1/3 210/1/3 213/1/3
f 215/1/3 208/1/3 207/1/3
f 216/1/3 208/1/3 215/1/3
f 217/2/3 212/2/3 211/2/3
f 218/2/3 212/2/3 217/2/3
f 221/2/3 220/2/3 219/2/3
f 222/2/3 220/2/3 221/2/3
f 227/1/3 224/1/3 223/1/3
f 228/1/3 224/1/3 227/1/3
f 229/2/3 226/2/3 225/2/3
f 230/2/3 226/2/3 229/2/3
f 233/2/3 232/2/3 231/2/3
f 234/2/3 232/2/3 233/2/3
f 237/2/3 236/2/3 235/2/3
f 238/2/3 236/2/3 237/2/3
f 241/1/3 240/1/3 239/1/3
f 242/1/3 240/1/3 241/1/3
f 245/1/3 244/1/3 243/1/3
f 246/1/3 244/1/3 245/1/3
f 247/1/4 248/1/4 249/1/4
f 249/1/4 248/1/4 250/1/4
f 251/1/4 252/1/4 253/1/4
f 253/1/4 252/1/4 254/1/4
f 255/2/4 256/2/4 257/2/4
f 257/2/4 256/2/4 258/2/4
f 259/1/4 260/1/4 263/1/4
f 263/1/4 260/1/4 264/1/4
f 261/2/4 262/2/4 265/2/4
f 265/2/4 262/2/4 266/2/4
f 267/2/4 268/2/4 269/2/4
f 269/2/4 268/2/4 270/2/4
f 271/2/4 272/2/4 273/2/4
f 273/2/4 272/2/4 274/2/4
f 275/1/4 276/1/4 279/1/4
f 279/1/4 276/1/4 280/1/4
f 277/1/4 278/1/4 283/1/4
f 283/1/4 278/1/4 284/1/4
f 281/2/4 282/2/4 287/2/4
f 287/2/4 282/2/4 288/2/4
f 283/2/4 284/2/4 289/2/4
f 289/2/4 284/2/4 290/2/4
f 285/1/4 286/1/4 291/1/4
f 291/1/4 286/1/4 292/1/4
f 291/1/4 292/1/4 293/1/4
f 293/1/4 292/1/4 294/1/4
f 295/2/4 296/2/4 303/2/4
f 303/2/4 296/2/4 304/2/4
f 299/1/4 300/1/4 305/1/4
f 305/1/4 300/1/4 306/1/4
f 301/1/4 302/1/4 307/1/4
f 307/1/4 302/1/4 308/1/4
f 303/1/4 304/1/4 309/1/4
f 309/1/4 304/1/4 310/1/4
f 297/1/4 298/1/4 311/1/4
f 311/1/4 298/1/4 312/1/4
f 307/2/4 308/2/4 313/2/4
f 313/2/4 308/2/4 314/2/4
f 315/1/4 316/1/4 321/1/4
f 321/1/4 316/1/4 322/1/4
f 317/1/4 318/1/4 323/1/4
f 323/1/4 318/1/4 324/1/4
f 319/1/4 320/1/4 325/1/4
f 325/1/4 320/1/4 326/1/4
f 329/1/5 328/1/5 327/1/5
f 330/1/5 328/1/5 329/1/5
f 331/1/5 329/1/5 327/1/5
f 332/2/5 330/2/5 329/2/5
f 332/1/5 329/1/5 331/1/5
f 333/2/5 330/2/5 332/2/5
f 336/2/5 335/2/5 334/2/5
f 337/2/5 335/2/5 336/2/5
f 340/2/5 339/2/5 338/2/5
f 341/2/5 339/2/5 340/2/5
f 342/2/5 339/2/5 341/2/5
f 346/2/5 344/2/5 343/2/5
f 347/1/5 345/1/5 344/1/5
f 347/2/5 344/2/5 346/2/5
f 348/1/5 345/1/5 347/1/5
f 351/1/5 350/1/5 349/1/5
f 352/1/5 350/1/5 351/1/5
f 355/2/5 354/2/5 353/2/5
f 356/2/5 355/2/5 353/2/5
f 357/2/5 355/2/5 356/2/5
f 361/1/5 359/1/5 358/1/5
f 361/1/5 360/1/5 359/1/5
f 362/1/5 360/1/5 361/1/5
f 365/1/5 364/1/5 363/1/5
f 366/1/5 364/1/5 365/1/5
f 367/1/5 364/1/5 366/1/5
f 370/1/5 369/1/5 368/1/5
f 371/1/5 369/1/5 370/1/5
f 374/2/5 373/2/5 372/2/5
f 375/2/5 373/2/5 374/2/5
f 378/1/5 377/1/5 376/1/5
f 379/1/5 377/1/5 378/1/5
f 382/1/5 381/1/5 380/1/5
f 383/1/5 382/1/5 380/1/5
f 384/1/5 382/1/5 383/1/5
f 387/1/5 386/1/5 385/1/5
f 388/1/5 386/1/5 387/1/5
f 389/1/5 386/1/5 388/1/5
f 392/1/5 391/1/5 390/1/5
f 393/1/5 391/1/5 392/1/5
f 394/1/5 391/1/5 393/1/5
f 395/1/5 391/1/5 394/1/5
f 398/2/5 397/2/5 396/2/5
f 399/2/5 397/2/5 398/2/5
f 403/1/5 401/1/5 400/1/5
f 404/1/5 403/1/5 402/1/5
f 405/1/5 401/1/5 403/1/5
f 405/1/5 403/1/5 404/1/5
f 408/2/5 407/2/5 406/2/5
f 409/2/5 408/2/5 406/2/5
f 410/2/5 408/2/5 409/2/5
f 411/2/6 412/2/6 413/2/6
f 413/2/6 412/2/6 414/2/6
f 414/2/6 412/2/6 415/2/6
f 416/1/6 417/1/6 418/1/6
f 418/1/6 417/1/6 419/1/6
f 420/2/6 421/2/6 422/2/6
f 422/2/6 421/2/6 423/2/6
f 424/1/6 425/1/6 426/1/6
f 426/1/6 425/1/6 427/1/6
f 428/1/6 429/1/6 430/1/6
f 430/1/6 429/1/6 431/1/6
f 431/1/6 429/1/6 432/1/6
f 433/1/6 434/1/6 435/1/6
f 433/1/6 435/1/6 436/1/6
f 436/1/6 435/1/6 437/1/6
f 438/2/6 439/2/6 440/2/6
f 440/2/6 439/2/6 441/2/6
f 441/2/6 439/2/6 442/2/6
f 442/2/6 439/2/6 443/2/6
f 444/2/6 445/2/6 447/2/6
f 447/2/6 445/2/6 448/2/6
f 446/1/6 447/1/6 449/1/6
f 447/1/6 448/1/6 449/1/6
f 449/1/6 448/1/6 450/1/6
f 451/1/6 452/1/6 453/1/6
f 451/1/6 453/1/6 454/1/6
f 454/1/6 453/1/6 455/1/6
f 456/1/6 457/1/6 458/1/6
f 458/1/6 457/1/6 459/1/6
f 460/1/6 461/1/6 462/1/6
f 462/1/6 461/1/6 463/1/6
f 464/2/6 465/2/6 466/2/6
f 466/2/6 465/2/6 467/2/6
f 467/2/6 465/2/6 468/2/6
f 469/1/6 470/1/6 472/1/6
f 470/1/6 471/1/6 472/1/6
f 472/1/6 471/1/6 473/1/6
f 474/2/6 475/2/6 476/2/6
f 476/2/6 475/2/6 477/2/6
f 477/2/6 475/2/6 478/2/6
f 478/2/6 475/2/6 479/2/6
f 480/2/6 481/2/6 482/2/6
f 480/2/6 482/2/6 485/2/6
f 485/2/6 482/2/6 486/2/6
f 483/2/6 484/2/6 488/2/6
f 487/1/6 488/1/6 489/1/6
f 488/2/6 484/2/6 490/2/6
f 489/1/6 488/1/6 490/1/6
f 490/2/6 484/2/6 491/2/6
f 492/1/6 493/1/6 494/1/6
f 492/1/6 494/1/6 496/1/6
f 494/1/6 495/1/6 496/1/6
f 496/1/6 495/1/6 497/1/6
f 496/2/6 497/2/6 498/2/6
f 497/1/6 495/1/6 498/1/6
f 498/1/6 495/1/6 499/1/6
f 496/2/6 498/2/6 500/2/6
f 500/2/6 498/2/6 501/2/6
