# MagicaVoxel @ Ephtracy

# group
o StoneE

# material
mtllib SH_Enviorment-9-StoneE.mtl
usemtl palette

# normals
vn -1 0 0
vn 1 0 0
vn 0 0 1
vn 0 0 -1
vn 0 -1 0
vn 0 1 0

# texcoords
vt 0.982422 0.5
vt 0.986328 0.5

# verts
v -0.2 -0.15 0.15
v -0.2 -0.15 -0.05
v -0.2 -0.05 -0.05
v -0.2 -0.05 -0.15
v -0.2 0.05 0.15
v -0.2 0.05 -0.05
v -0.2 0.05 -0.15
v -0.2 0.15 0.15
v -0.2 0.15 -0.05
v -0.1 -0.15 0.25
v -0.1 -0.15 0.15
v -0.1 -0.15 -0.05
v -0.1 -0.15 -0.25
v -0.1 -0.05 0.25
v -0.1 -0.05 0.15
v -0.1 -0.05 -0.05
v -0.1 -0.05 -0.15
v -0.1 0.05 0.25
v -0.1 0.05 0.15
v -0.1 0.05 -0.05
v -0.1 0.05 -0.15
v -0.1 0.05 -0.25
v -0.1 0.15 -0.05
v -0.1 0.15 -0.15
v 0 0.05 0.25
v 0 0.05 0.15
v 0 0.15 0.25
v 0 0.15 0.15
v 0.1 -0.15 -0.05
v 0.1 -0.15 -0.25
v 0.1 -0.05 -0.05
v 0.1 -0.05 -0.15
v 0.1 0.05 0.25
v 0.1 0.05 0.15
v 0.1 0.05 -0.15
v 0.1 0.05 -0.25
v 0.1 0.15 0.25
v 0.1 0.15 0.15
v 0.2 -0.15 0.25
v 0.2 -0.15 -0.05
v 0.2 -0.05 0.25
v 0.2 -0.05 -0.05
v 0.2 -0.05 -0.15
v 0.2 0.05 0.25
v 0.2 0.05 0.15
v 0.2 0.15 0.15
v 0.2 0.15 -0.05
v 0.2 0.15 -0.15
v -0.1 -0.15 0.25
v -0.1 -0.05 0.25
v -0.1 0.05 0.25
v 0 0.05 0.25
v 0 0.15 0.25
v 0.1 0.05 0.25
v 0.1 0.15 0.25
v 0.2 -0.15 0.25
v 0.2 -0.05 0.25
v 0.2 0.05 0.25
v -0.2 -0.15 0.15
v -0.2 0.05 0.15
v -0.2 0.15 0.15
v -0.1 -0.15 0.15
v -0.1 -0.05 0.15
v -0.1 0.05 0.15
v 0 0.05 0.15
v 0 0.15 0.15
v 0.1 0.05 0.15
v 0.1 0.15 0.15
v 0.2 0.05 0.15
v 0.2 0.15 0.15
v -0.2 -0.15 -0.05
v -0.2 -0.05 -0.05
v -0.2 0.05 -0.05
v -0.2 0.15 -0.05
v -0.1 -0.15 -0.05
v -0.1 -0.05 -0.05
v -0.1 0.05 -0.05
v -0.1 0.15 -0.05
v 0.1 -0.15 -0.05
v 0.1 -0.05 -0.05
v 0.2 -0.15 -0.05
v 0.2 -0.05 -0.05
v -0.2 -0.05 -0.15
v -0.2 0.05 -0.15
v -0.1 -0.05 -0.15
v -0.1 0.05 -0.15
v -0.1 0.15 -0.15
v 0.1 -0.05 -0.15
v 0.1 0.05 -0.15
v 0.1 0.15 -0.15
v 0.2 -0.05 -0.15
v 0.2 0.15 -0.15
v -0.1 -0.15 -0.25
v -0.1 0.05 -0.25
v 0.1 -0.15 -0.25
v 0.1 0.05 -0.25
v -0.1 -0.15 0.25
v 0.2 -0.15 0.25
v -0.2 -0.15 0.15
v -0.1 -0.15 0.15
v -0.2 -0.15 -0.05
v -0.1 -0.15 -0.05
v 0.1 -0.15 -0.05
v 0.2 -0.15 -0.05
v -0.1 -0.15 -0.25
v 0.1 -0.15 -0.25
v -0.2 -0.05 -0.05
v -0.1 -0.05 -0.05
v 0.1 -0.05 -0.05
v 0.2 -0.05 -0.05
v -0.2 -0.05 -0.15
v -0.1 -0.05 -0.15
v 0.1 -0.05 -0.15
v 0.2 -0.05 -0.15
v -0.1 0.05 0.25
v 0 0.05 0.25
v 0.1 0.05 0.25
v 0.2 0.05 0.25
v -0.1 0.05 0.15
v 0 0.05 0.15
v 0.1 0.05 0.15
v 0.2 0.05 0.15
v -0.2 0.05 -0.05
v -0.1 0.05 -0.05
v -0.2 0.05 -0.15
v -0.1 0.05 -0.15
v 0.1 0.05 -0.15
v -0.1 0.05 -0.25
v 0.1 0.05 -0.25
v 0 0.15 0.25
v 0.1 0.15 0.25
v -0.2 0.15 0.15
v 0 0.15 0.15
v 0.1 0.15 0.15
v 0.2 0.15 0.15
v -0.2 0.15 -0.05
v -0.1 0.15 -0.05
v 0.1 0.15 -0.05
v 0.2 0.15 -0.05
v -0.1 0.15 -0.15
v 0.1 0.15 -0.15
v 0.2 0.15 -0.15

# faces
f 3/2/1 2/2/1 1/2/1
f 5/2/1 3/2/1 1/2/1
f 5/2/1 4/2/1 3/2/1
f 6/2/1 4/2/1 5/2/1
f 7/2/1 4/2/1 6/2/1
f 8/1/1 6/1/1 5/1/1
f 9/1/1 6/1/1 8/1/1
f 14/2/1 11/2/1 10/2/1
f 15/2/1 11/2/1 14/2/1
f 16/2/1 13/2/1 12/2/1
f 17/2/1 13/2/1 16/2/1
f 18/1/1 15/1/1 14/1/1
f 19/1/1 15/1/1 18/1/1
f 21/2/1 13/2/1 17/2/1
f 22/2/1 13/2/1 21/2/1
f 23/1/1 21/1/1 20/1/1
f 24/1/1 21/1/1 23/1/1
f 27/1/1 26/1/1 25/1/1
f 28/1/1 26/1/1 27/1/1
f 29/2/2 30/2/2 31/2/2
f 31/2/2 30/2/2 32/2/2
f 32/2/2 30/2/2 35/2/2
f 35/2/2 30/2/2 36/2/2
f 33/1/2 34/1/2 37/1/2
f 37/1/2 34/1/2 38/1/2
f 39/2/2 40/2/2 41/2/2
f 41/2/2 40/2/2 42/2/2
f 41/1/2 42/1/2 44/1/2
f 44/1/2 42/1/2 45/1/2
f 45/1/2 42/1/2 46/1/2
f 42/2/2 43/2/2 47/2/2
f 46/1/2 42/1/2 47/1/2
f 47/2/2 43/2/2 48/2/2
f 52/1/3 51/1/3 50/1/3
f 54/1/3 52/1/3 50/1/3
f 54/1/3 53/1/3 52/1/3
f 55/1/3 53/1/3 54/1/3
f 56/2/3 50/2/3 49/2/3
f 57/1/3 54/1/3 50/1/3
f 57/2/3 50/2/3 56/2/3
f 58/1/3 54/1/3 57/1/3
f 62/2/3 60/2/3 59/2/3
f 63/2/3 60/2/3 62/2/3
f 64/1/3 61/1/3 60/1/3
f 64/2/3 60/2/3 63/2/3
f 65/1/3 61/1/3 64/1/3
f 66/1/3 61/1/3 65/1/3
f 69/1/3 68/1/3 67/1/3
f 70/1/3 68/1/3 69/1/3
f 71/2/4 72/2/4 75/2/4
f 75/2/4 72/2/4 76/2/4
f 73/1/4 74/1/4 77/1/4
f 77/1/4 74/1/4 78/1/4
f 79/2/4 80/2/4 81/2/4
f 81/2/4 80/2/4 82/2/4
f 83/2/4 84/2/4 85/2/4
f 85/2/4 84/2/4 86/2/4
f 86/1/4 87/1/4 89/1/4
f 89/1/4 87/1/4 90/1/4
f 88/2/4 89/2/4 91/2/4
f 89/2/4 90/2/4 91/2/4
f 91/2/4 90/2/4 92/2/4
f 93/2/4 94/2/4 95/2/4
f 95/2/4 94/2/4 96/2/4
f 100/2/5 98/2/5 97/2/5
f 101/2/5 100/2/5 99/2/5
f 102/2/5 98/2/5 100/2/5
f 102/2/5 100/2/5 101/2/5
f 103/2/5 98/2/5 102/2/5
f 104/2/5 98/2/5 103/2/5
f 105/2/5 103/2/5 102/2/5
f 106/2/5 103/2/5 105/2/5
f 111/2/5 108/2/5 107/2/5
f 112/2/5 108/2/5 111/2/5
f 113/2/5 110/2/5 109/2/5
f 114/2/5 110/2/5 113/2/5
f 115/1/6 116/1/6 119/1/6
f 119/1/6 116/1/6 120/1/6
f 117/1/6 118/1/6 121/1/6
f 121/1/6 118/1/6 122/1/6
f 123/2/6 124/2/6 125/2/6
f 125/2/6 124/2/6 126/2/6
f 126/2/6 127/2/6 128/2/6
f 128/2/6 127/2/6 129/2/6
f 130/1/6 131/1/6 133/1/6
f 133/1/6 131/1/6 134/1/6
f 132/1/6 133/1/6 136/1/6
f 134/1/6 135/1/6 136/1/6
f 133/1/6 134/1/6 136/1/6
f 136/1/6 135/1/6 137/1/6
f 137/1/6 135/1/6 138/1/6
f 138/1/6 135/1/6 139/1/6
f 137/1/6 138/1/6 140/1/6
f 138/2/6 139/2/6 141/2/6
f 140/1/6 138/1/6 141/1/6
f 141/2/6 139/2/6 142/2/6
