# MagicaVoxel @ Ephtracy

# group
o Landmine_Teller

# material
mtllib SH_Enviorment-1-Landmine_Teller.mtl
usemtl palette

# normals
vn -1 0 0
vn 1 0 0
vn 0 0 1
vn 0 0 -1
vn 0 -1 0
vn 0 1 0

# texcoords
vt 0.955078 0.5
vt 0.978516 0.5
vt 0.982422 0.5
vt 0.986328 0.5
vt 0.990234 0.5

# verts
v -0.25 -0.05 0.15
v -0.25 -0.05 -0.05
v -0.25 -0.05 -0.15
v -0.25 0.05 0.15
v -0.25 0.05 -0.05
v -0.25 0.05 -0.15
v -0.15 -0.05 0.25
v -0.15 -0.05 0.15
v -0.15 -0.05 -0.15
v -0.15 -0.05 -0.25
v -0.15 0.05 0.25
v -0.15 0.05 0.15
v -0.15 0.05 -0.15
v -0.15 0.05 -0.25
v 0.15 -0.05 0.25
v 0.15 -0.05 0.15
v 0.15 -0.05 -0.15
v 0.15 -0.05 -0.25
v 0.15 0.05 0.25
v 0.15 0.05 0.15
v 0.15 0.05 -0.15
v 0.15 0.05 -0.25
v 0.25 -0.05 0.15
v 0.25 -0.05 -0.15
v 0.25 0.05 0.15
v 0.25 0.05 -0.15
v -0.15 -0.05 0.25
v -0.15 0.05 0.25
v 0.15 -0.05 0.25
v 0.15 0.05 0.25
v -0.25 -0.05 0.15
v -0.25 0.05 0.15
v -0.15 -0.05 0.15
v -0.15 0.05 0.15
v 0.15 -0.05 0.15
v 0.15 0.05 0.15
v 0.25 -0.05 0.15
v 0.25 0.05 0.15
v -0.25 -0.05 -0.15
v -0.25 0.05 -0.15
v -0.15 -0.05 -0.15
v -0.15 0.05 -0.15
v 0.15 -0.05 -0.15
v 0.15 0.05 -0.15
v 0.25 -0.05 -0.15
v 0.25 0.05 -0.15
v -0.15 -0.05 -0.25
v -0.15 0.05 -0.25
v -0.05 -0.05 -0.25
v -0.05 0.05 -0.25
v 0.05 -0.05 -0.25
v 0.05 0.05 -0.25
v 0.15 -0.05 -0.25
v 0.15 0.05 -0.25
v -0.15 -0.05 0.25
v 0.15 -0.05 0.25
v -0.25 -0.05 0.15
v -0.15 -0.05 0.15
v 0.05 -0.05 0.15
v 0.15 -0.05 0.15
v 0.25 -0.05 0.15
v -0.15 -0.05 0.05
v -0.05 -0.05 0.05
v 0.05 -0.05 0.05
v 0.15 -0.05 0.05
v -0.25 -0.05 -0.05
v -0.15 -0.05 -0.05
v -0.05 -0.05 -0.05
v 0.05 -0.05 -0.05
v -0.25 -0.05 -0.15
v -0.15 -0.05 -0.15
v -0.05 -0.05 -0.15
v 0.05 -0.05 -0.15
v 0.15 -0.05 -0.15
v 0.25 -0.05 -0.15
v -0.15 -0.05 -0.25
v -0.05 -0.05 -0.25
v 0.05 -0.05 -0.25
v 0.15 -0.05 -0.25
v -0.15 0.05 0.25
v 0.15 0.05 0.25
v -0.25 0.05 0.15
v -0.15 0.05 0.15
v 0.05 0.05 0.15
v 0.15 0.05 0.15
v 0.25 0.05 0.15
v -0.15 0.05 0.05
v -0.05 0.05 0.05
v 0.05 0.05 0.05
v 0.15 0.05 0.05
v -0.25 0.05 -0.05
v -0.15 0.05 -0.05
v -0.05 0.05 -0.05
v 0.05 0.05 -0.05
v -0.25 0.05 -0.15
v -0.15 0.05 -0.15
v -0.05 0.05 -0.15
v 0.05 0.05 -0.15
v 0.15 0.05 -0.15
v 0.25 0.05 -0.15
v -0.15 0.05 -0.25
v -0.05 0.05 -0.25
v 0.05 0.05 -0.25
v 0.15 0.05 -0.25

# faces
f 4/1/1 2/1/1 1/1/1
f 5/4/1 3/4/1 2/4/1
f 5/1/1 2/1/1 4/1/1
f 6/4/1 3/4/1 5/4/1
f 11/4/1 8/4/1 7/4/1
f 12/4/1 8/4/1 11/4/1
f 13/1/1 10/1/1 9/1/1
f 14/1/1 10/1/1 13/1/1
f 15/4/2 16/4/2 19/4/2
f 19/4/2 16/4/2 20/4/2
f 17/1/2 18/1/2 21/1/2
f 21/1/2 18/1/2 22/1/2
f 23/1/2 24/1/2 25/1/2
f 25/1/2 24/1/2 26/1/2
f 29/4/3 28/4/3 27/4/3
f 30/4/3 28/4/3 29/4/3
f 33/1/3 32/1/3 31/1/3
f 34/1/3 32/1/3 33/1/3
f 37/1/3 36/1/3 35/1/3
f 38/1/3 36/1/3 37/1/3
f 39/4/4 40/4/4 41/4/4
f 41/4/4 40/4/4 42/4/4
f 43/1/4 44/1/4 45/1/4
f 45/1/4 44/1/4 46/1/4
f 47/1/4 48/1/4 49/1/4
f 49/1/4 48/1/4 50/1/4
f 49/4/4 50/4/4 51/4/4
f 51/4/4 50/4/4 52/4/4
f 51/1/4 52/1/4 53/1/4
f 53/1/4 52/1/4 54/1/4
f 58/4/5 56/4/5 55/4/5
f 59/4/5 56/4/5 58/4/5
f 60/4/5 56/4/5 59/4/5
f 62/1/5 58/1/5 57/1/5
f 62/3/5 59/3/5 58/3/5
f 63/3/5 59/3/5 62/3/5
f 64/2/5 60/2/5 59/2/5
f 64/3/5 59/3/5 63/3/5
f 65/1/5 61/1/5 60/1/5
f 65/2/5 60/2/5 64/2/5
f 66/1/5 62/1/5 57/1/5
f 67/4/5 63/4/5 62/4/5
f 67/1/5 62/1/5 66/1/5
f 68/5/5 64/5/5 63/5/5
f 68/4/5 63/4/5 67/4/5
f 69/4/5 65/4/5 64/4/5
f 69/5/5 64/5/5 68/5/5
f 70/4/5 67/4/5 66/4/5
f 70/4/5 68/4/5 67/4/5
f 70/4/5 69/4/5 68/4/5
f 71/4/5 69/4/5 70/4/5
f 72/4/5 69/4/5 71/4/5
f 73/4/5 65/4/5 69/4/5
f 73/4/5 69/4/5 72/4/5
f 74/1/5 61/1/5 65/1/5
f 74/4/5 65/4/5 73/4/5
f 75/1/5 61/1/5 74/1/5
f 76/1/5 72/1/5 71/1/5
f 77/4/5 73/4/5 72/4/5
f 77/1/5 72/1/5 76/1/5
f 78/1/5 74/1/5 73/1/5
f 78/4/5 73/4/5 77/4/5
f 79/1/5 74/1/5 78/1/5
f 80/4/6 81/4/6 83/4/6
f 83/4/6 81/4/6 84/4/6
f 84/4/6 81/4/6 85/4/6
f 82/1/6 83/1/6 87/1/6
f 83/3/6 84/3/6 87/3/6
f 87/3/6 84/3/6 88/3/6
f 84/2/6 85/2/6 89/2/6
f 88/3/6 84/3/6 89/3/6
f 85/1/6 86/1/6 90/1/6
f 89/2/6 85/2/6 90/2/6
f 82/1/6 87/1/6 91/1/6
f 87/4/6 88/4/6 92/4/6
f 91/1/6 87/1/6 92/1/6
f 88/5/6 89/5/6 93/5/6
f 92/4/6 88/4/6 93/4/6
f 89/4/6 90/4/6 94/4/6
f 93/5/6 89/5/6 94/5/6
f 91/4/6 92/4/6 95/4/6
f 92/4/6 93/4/6 95/4/6
f 93/4/6 94/4/6 95/4/6
f 95/4/6 94/4/6 96/4/6
f 96/4/6 94/4/6 97/4/6
f 94/4/6 90/4/6 98/4/6
f 97/4/6 94/4/6 98/4/6
f 90/1/6 86/1/6 99/1/6
f 98/4/6 90/4/6 99/4/6
f 99/1/6 86/1/6 100/1/6
f 96/1/6 97/1/6 101/1/6
f 97/4/6 98/4/6 102/4/6
f 101/1/6 97/1/6 102/1/6
f 98/1/6 99/1/6 103/1/6
f 102/4/6 98/4/6 103/4/6
f 103/1/6 99/1/6 104/1/6
