# MagicaVoxel @ Ephtracy

# group
o Landmine_Smine

# material
mtllib SH_Enviorment-0-Landmine_Smine.mtl
usemtl palette

# normals
vn -1 0 0
vn 1 0 0
vn 0 0 1
vn 0 0 -1
vn 0 -1 0
vn 0 1 0

# texcoords
vt 0.111328 0.5
vt 0.955078 0.5
vt 0.978516 0.5
vt 0.982422 0.5
vt 0.986328 0.5

# verts
v -0.15 -0.25 0.15
v -0.15 -0.25 -0.15
v -0.15 -0.15 0.15
v -0.15 -0.15 -0.15
v -0.15 0.05 0.15
v -0.15 0.05 -0.15
v -0.05 0.05 0.05
v -0.05 0.05 -0.05
v -0.05 0.15 0.05
v -0.05 0.15 -0.05
v -0.05 0.25 0.05
v -0.05 0.25 -0.05
v 0.05 0.05 0.05
v 0.05 0.05 -0.05
v 0.05 0.15 0.05
v 0.05 0.15 -0.05
v 0.05 0.25 0.05
v 0.05 0.25 -0.05
v 0.15 -0.25 0.15
v 0.15 -0.25 0.05
v 0.15 -0.25 -0.15
v 0.15 -0.15 0.05
v 0.15 -0.15 -0.15
v 0.15 0.05 0.15
v 0.15 0.05 -0.15
v -0.15 -0.25 0.15
v -0.15 -0.15 0.15
v -0.15 0.05 0.15
v 0.05 -0.25 0.15
v 0.05 -0.15 0.15
v 0.05 0.05 0.15
v 0.15 -0.25 0.15
v 0.15 0.05 0.15
v -0.05 0.05 0.05
v -0.05 0.15 0.05
v -0.05 0.25 0.05
v 0.05 0.05 0.05
v 0.05 0.15 0.05
v 0.05 0.25 0.05
v -0.05 0.05 -0.05
v -0.05 0.15 -0.05
v -0.05 0.25 -0.05
v 0.05 0.05 -0.05
v 0.05 0.15 -0.05
v 0.05 0.25 -0.05
v -0.15 -0.25 -0.15
v -0.15 -0.15 -0.15
v -0.15 0.05 -0.15
v -0.05 -0.25 -0.15
v -0.05 -0.15 -0.15
v -0.05 0.05 -0.15
v 0.05 -0.25 -0.15
v 0.05 -0.15 -0.15
v 0.15 -0.25 -0.15
v 0.15 -0.15 -0.15
v 0.15 0.05 -0.15
v -0.15 -0.25 0.15
v 0.05 -0.25 0.15
v 0.15 -0.25 0.15
v 0.05 -0.25 0.05
v 0.15 -0.25 0.05
v -0.05 -0.25 -0.05
v 0.05 -0.25 -0.05
v -0.15 -0.25 -0.15
v -0.05 -0.25 -0.15
v 0.05 -0.25 -0.15
v 0.15 -0.25 -0.15
v -0.15 0.05 0.15
v 0.05 0.05 0.15
v 0.15 0.05 0.15
v -0.05 0.05 0.05
v 0.05 0.05 0.05
v -0.05 0.05 -0.05
v 0.05 0.05 -0.05
v -0.15 0.05 -0.15
v -0.05 0.05 -0.15
v 0.15 0.05 -0.15
v -0.05 0.25 0.05
v 0.05 0.25 0.05
v -0.05 0.25 -0.05
v 0.05 0.25 -0.05

# faces
f 3/2/1 2/2/1 1/2/1
f 4/2/1 2/2/1 3/2/1
f 5/4/1 4/4/1 3/4/1
f 6/4/1 4/4/1 5/4/1
f 9/3/1 8/3/1 7/3/1
f 10/3/1 8/3/1 9/3/1
f 11/1/1 10/1/1 9/1/1
f 12/1/1 10/1/1 11/1/1
f 13/3/2 14/3/2 15/3/2
f 15/3/2 14/3/2 16/3/2
f 15/1/2 16/1/2 17/1/2
f 17/1/2 16/1/2 18/1/2
f 19/5/2 20/5/2 22/5/2
f 20/2/2 21/2/2 22/2/2
f 22/2/2 21/2/2 23/2/2
f 19/5/2 22/5/2 24/5/2
f 22/5/2 23/5/2 24/5/2
f 24/5/2 23/5/2 25/5/2
f 29/2/3 27/2/3 26/2/3
f 30/4/3 28/4/3 27/4/3
f 30/2/3 27/2/3 29/2/3
f 31/4/3 28/4/3 30/4/3
f 32/5/3 30/5/3 29/5/3
f 32/5/3 31/5/3 30/5/3
f 33/5/3 31/5/3 32/5/3
f 37/3/3 35/3/3 34/3/3
f 38/1/3 36/1/3 35/1/3
f 38/3/3 35/3/3 37/3/3
f 39/1/3 36/1/3 38/1/3
f 40/3/4 41/3/4 43/3/4
f 41/1/4 42/1/4 44/1/4
f 43/3/4 41/3/4 44/3/4
f 44/1/4 42/1/4 45/1/4
f 46/2/4 47/2/4 49/2/4
f 47/4/4 48/4/4 50/4/4
f 49/2/4 47/2/4 50/2/4
f 50/4/4 48/4/4 51/4/4
f 49/5/4 50/5/4 52/5/4
f 50/5/4 51/5/4 52/5/4
f 52/5/4 51/5/4 53/5/4
f 52/2/4 53/2/4 54/2/4
f 53/5/4 51/5/4 55/5/4
f 54/2/4 53/2/4 55/2/4
f 55/5/4 51/5/4 56/5/4
f 60/2/5 58/2/5 57/2/5
f 60/5/5 59/5/5 58/5/5
f 61/5/5 59/5/5 60/5/5
f 62/2/5 60/2/5 57/2/5
f 62/2/5 61/2/5 60/2/5
f 63/2/5 61/2/5 62/2/5
f 64/2/5 62/2/5 57/2/5
f 65/5/5 63/5/5 62/5/5
f 65/2/5 62/2/5 64/2/5
f 66/2/5 61/2/5 63/2/5
f 66/5/5 63/5/5 65/5/5
f 67/2/5 61/2/5 66/2/5
f 68/4/6 69/4/6 71/4/6
f 69/5/6 70/5/6 72/5/6
f 71/4/6 69/4/6 72/4/6
f 68/4/6 71/4/6 73/4/6
f 72/5/6 70/5/6 74/5/6
f 68/4/6 73/4/6 75/4/6
f 73/5/6 74/5/6 76/5/6
f 75/4/6 73/4/6 76/4/6
f 74/5/6 70/5/6 77/5/6
f 76/5/6 74/5/6 77/5/6
f 78/1/6 79/1/6 80/1/6
f 80/1/6 79/1/6 81/1/6
