# MagicaVoxel @ Ephtracy

# group
o Crate_C

# material
mtllib SH_Enviorment-29-Crate_C.mtl
usemtl palette

# normals
vn -1 0 0
vn 1 0 0
vn 0 0 1
vn 0 0 -1
vn 0 -1 0
vn 0 1 0

# texcoords
vt 0.224609 0.5
vt 0.279297 0.5
vt 0.326172 0.5

# verts
v -0.3 -0.3 0.3
v -0.3 -0.3 0.2
v -0.3 -0.3 -0.2
v -0.3 -0.3 -0.3
v -0.3 -0.2 0.3
v -0.3 -0.2 0.2
v -0.3 -0.2 0.1
v -0.3 -0.2 -0.2
v -0.3 -0.2 -0.3
v -0.3 -0.1 0.2
v -0.3 -0.1 0.1
v -0.3 -0.1 0
v -0.3 0 0.1
v -0.3 0 0
v -0.3 0 -0.1
v -0.3 0.1 0
v -0.3 0.1 -0.1
v -0.3 0.1 -0.2
v -0.3 0.2 0.3
v -0.3 0.2 0.2
v -0.3 0.2 -0.1
v -0.3 0.2 -0.2
v -0.3 0.2 -0.3
v -0.3 0.3 0.3
v -0.3 0.3 0.2
v -0.3 0.3 -0.2
v -0.3 0.3 -0.3
v -0.2 -0.2 0.1
v -0.2 -0.2 -0.2
v -0.2 -0.1 0.2
v -0.2 -0.1 0.1
v -0.2 -0.1 0
v -0.2 0 0.1
v -0.2 0 0
v -0.2 0 -0.1
v -0.2 0.1 0
v -0.2 0.1 -0.1
v -0.2 0.1 -0.2
v -0.2 0.2 0.2
v -0.2 0.2 -0.1
v -0.1 -0.3 0.1
v -0.1 -0.3 0
v -0.1 -0.2 0.1
v -0.1 -0.2 0
v -0.1 -0.1 0.3
v -0.1 -0.1 0.2
v -0.1 0 0.3
v -0.1 0 0.2
v -0.1 0 -0.2
v -0.1 0 -0.3
v -0.1 0.1 -0.2
v -0.1 0.1 -0.3
v -0.1 0.2 0
v -0.1 0.2 -0.1
v -0.1 0.3 0
v -0.1 0.3 -0.1
v 0 -0.3 0
v 0 -0.3 -0.1
v 0 -0.2 0
v 0 -0.2 -0.1
v 0 -0.1 -0.2
v 0 -0.1 -0.3
v 0 0 0.3
v 0 0 0.2
v 0 0 -0.2
v 0 0 -0.3
v 0 0.1 0.3
v 0 0.1 0.2
v 0 0.2 0.1
v 0 0.2 0
v 0 0.3 0.1
v 0 0.3 0
v 0.1 -0.3 -0.1
v 0.1 -0.3 -0.2
v 0.1 -0.2 -0.1
v 0.1 -0.2 -0.2
v 0.1 -0.2 -0.3
v 0.1 -0.1 -0.2
v 0.1 -0.1 -0.3
v 0.1 0.1 0.3
v 0.1 0.1 0.2
v 0.1 0.2 0.3
v 0.1 0.2 0.2
v 0.1 0.2 0.1
v 0.1 0.3 0.2
v 0.1 0.3 0.1
v 0.2 -0.3 0.2
v 0.2 -0.3 -0.1
v 0.2 -0.2 0.3
v 0.2 -0.2 0.2
v 0.2 -0.2 -0.1
v 0.2 -0.1 -0.2
v 0.2 -0.1 -0.3
v 0.2 0.1 0.3
v 0.2 0.1 0.2
v 0.2 0.2 0.1
v 0.2 0.2 -0.2
v 0.2 0.2 -0.3
v 0.2 0.3 0.1
v 0.2 0.3 -0.2
v -0.2 -0.3 0.1
v -0.2 -0.3 -0.2
v -0.2 -0.2 0.1
v -0.2 -0.2 -0.2
v -0.2 -0.2 -0.3
v -0.2 -0.1 0.3
v -0.2 -0.1 0.2
v -0.2 0.1 -0.2
v -0.2 0.1 -0.3
v -0.2 0.2 0.3
v -0.2 0.2 0.2
v -0.2 0.2 -0.1
v -0.2 0.3 0.2
v -0.2 0.3 -0.1
v -0.1 -0.3 0.2
v -0.1 -0.3 0.1
v -0.1 -0.2 0.3
v -0.1 -0.2 0.2
v -0.1 -0.2 0.1
v -0.1 -0.1 0.3
v -0.1 -0.1 0.2
v -0.1 0.1 -0.2
v -0.1 0.1 -0.3
v -0.1 0.2 -0.1
v -0.1 0.2 -0.2
v -0.1 0.2 -0.3
v -0.1 0.3 -0.1
v -0.1 0.3 -0.2
v 0 -0.3 0.1
v 0 -0.3 0
v 0 -0.2 0.1
v 0 -0.2 0
v 0 -0.1 0.3
v 0 -0.1 0.2
v 0 0 0.3
v 0 0 0.2
v 0 0 -0.2
v 0 0 -0.3
v 0 0.1 -0.2
v 0 0.1 -0.3
v 0 0.2 0
v 0 0.2 -0.1
v 0 0.3 0
v 0 0.3 -0.1
v 0.1 -0.3 0
v 0.1 -0.3 -0.1
v 0.1 -0.2 0
v 0.1 -0.2 -0.1
v 0.1 -0.1 -0.2
v 0.1 -0.1 -0.3
v 0.1 0 0.3
v 0.1 0 0.2
v 0.1 0 -0.2
v 0.1 0 -0.3
v 0.1 0.1 0.3
v 0.1 0.1 0.2
v 0.1 0.2 0.1
v 0.1 0.2 0
v 0.1 0.3 0.1
v 0.1 0.3 0
v 0.2 -0.2 0.2
v 0.2 -0.2 -0.1
v 0.2 -0.1 0
v 0.2 -0.1 -0.1
v 0.2 -0.1 -0.2
v 0.2 0 0.1
v 0.2 0 0
v 0.2 0 -0.1
v 0.2 0.1 0.2
v 0.2 0.1 0.1
v 0.2 0.1 0
v 0.2 0.2 0.1
v 0.2 0.2 -0.2
v 0.3 -0.3 0.3
v 0.3 -0.3 0.2
v 0.3 -0.3 -0.2
v 0.3 -0.3 -0.3
v 0.3 -0.2 0.3
v 0.3 -0.2 0.2
v 0.3 -0.2 -0.1
v 0.3 -0.2 -0.2
v 0.3 -0.2 -0.3
v 0.3 -0.1 0
v 0.3 -0.1 -0.1
v 0.3 -0.1 -0.2
v 0.3 0 0.1
v 0.3 0 0
v 0.3 0 -0.1
v 0.3 0.1 0.2
v 0.3 0.1 0.1
v 0.3 0.1 0
v 0.3 0.2 0.3
v 0.3 0.2 0.2
v 0.3 0.2 0.1
v 0.3 0.2 -0.2
v 0.3 0.2 -0.3
v 0.3 0.3 0.3
v 0.3 0.3 0.2
v 0.3 0.3 -0.2
v 0.3 0.3 -0.3
v -0.3 -0.3 0.3
v -0.3 -0.2 0.3
v -0.3 0.2 0.3
v -0.3 0.3 0.3
v -0.2 -0.3 0.3
v -0.2 -0.2 0.3
v -0.2 -0.1 0.3
v -0.2 0.2 0.3
v -0.2 0.3 0.3
v -0.1 -0.2 0.3
v -0.1 -0.1 0.3
v -0.1 0 0.3
v 0 -0.1 0.3
v 0 0 0.3
v 0 0.1 0.3
v 0.1 0 0.3
v 0.1 0.1 0.3
v 0.1 0.2 0.3
v 0.2 -0.3 0.3
v 0.2 -0.2 0.3
v 0.2 0.1 0.3
v 0.2 0.2 0.3
v 0.2 0.3 0.3
v 0.3 -0.3 0.3
v 0.3 -0.2 0.3
v 0.3 0.2 0.3
v 0.3 0.3 0.3
v -0.2 -0.1 0.2
v -0.2 0.2 0.2
v -0.1 -0.2 0.2
v -0.1 -0.1 0.2
v -0.1 0 0.2
v 0 -0.1 0.2
v 0 0 0.2
v 0 0.1 0.2
v 0.1 0 0.2
v 0.1 0.1 0.2
v 0.1 0.2 0.2
v 0.2 -0.2 0.2
v 0.2 0.1 0.2
v -0.3 -0.1 0.1
v -0.3 0 0.1
v -0.2 -0.1 0.1
v -0.2 0 0.1
v -0.1 -0.3 0.1
v -0.1 -0.2 0.1
v 0 -0.3 0.1
v 0 -0.2 0.1
v 0 0.2 0.1
v 0 0.3 0.1
v 0.1 0.2 0.1
v 0.1 0.3 0.1
v 0.2 0 0.1
v 0.2 0.1 0.1
v 0.3 0 0.1
v 0.3 0.1 0.1
v -0.3 0 0
v -0.3 0.1 0
v -0.2 0 0
v -0.2 0.1 0
v -0.1 0.2 0
v -0.1 0.3 0
v 0 -0.3 0
v 0 -0.2 0
v 0 0.2 0
v 0 0.3 0
v 0.1 -0.3 0
v 0.1 -0.2 0
v 0.2 -0.1 0
v 0.2 0 0
v 0.3 -0.1 0
v 0.3 0 0
v -0.3 0.1 -0.1
v -0.3 0.2 -0.1
v -0.2 0.1 -0.1
v -0.2 0.2 -0.1
v -0.2 0.3 -0.1
v -0.1 0.2 -0.1
v -0.1 0.3 -0.1
v 0.1 -0.3 -0.1
v 0.1 -0.2 -0.1
v 0.2 -0.3 -0.1
v 0.2 -0.2 -0.1
v 0.2 -0.1 -0.1
v 0.3 -0.2 -0.1
v 0.3 -0.1 -0.1
v -0.3 -0.2 -0.2
v -0.3 0.1 -0.2
v -0.2 -0.3 -0.2
v -0.2 -0.2 -0.2
v -0.2 0.1 -0.2
v -0.1 0.2 -0.2
v -0.1 0.3 -0.2
v 0.1 -0.3 -0.2
v 0.1 -0.2 -0.2
v 0.2 -0.1 -0.2
v 0.2 0.2 -0.2
v 0.2 0.3 -0.2
v 0.3 -0.1 -0.2
v 0.3 0.2 -0.2
v -0.3 -0.1 0.2
v -0.3 0.2 0.2
v -0.2 -0.1 0.2
v -0.2 0.2 0.2
v -0.2 0.3 0.2
v -0.1 -0.3 0.2
v -0.1 -0.2 0.2
v 0.1 0.2 0.2
v 0.1 0.3 0.2
v 0.2 -0.3 0.2
v 0.2 -0.2 0.2
v 0.2 0.1 0.2
v 0.3 -0.2 0.2
v 0.3 0.1 0.2
v -0.3 -0.2 0.1
v -0.3 -0.1 0.1
v -0.2 -0.3 0.1
v -0.2 -0.2 0.1
v -0.2 -0.1 0.1
v -0.1 -0.3 0.1
v -0.1 -0.2 0.1
v 0.1 0.2 0.1
v 0.1 0.3 0.1
v 0.2 0.1 0.1
v 0.2 0.2 0.1
v 0.2 0.3 0.1
v 0.3 0.1 0.1
v 0.3 0.2 0.1
v -0.3 -0.1 0
v -0.3 0 0
v -0.2 -0.1 0
v -0.2 0 0
v -0.1 -0.3 0
v -0.1 -0.2 0
v 0 -0.3 0
v 0 -0.2 0
v 0 0.2 0
v 0 0.3 0
v 0.1 0.2 0
v 0.1 0.3 0
v 0.2 0 0
v 0.2 0.1 0
v 0.3 0 0
v 0.3 0.1 0
v -0.3 0 -0.1
v -0.3 0.1 -0.1
v -0.2 0 -0.1
v -0.2 0.1 -0.1
v -0.1 0.2 -0.1
v -0.1 0.3 -0.1
v 0 -0.3 -0.1
v 0 -0.2 -0.1
v 0 0.2 -0.1
v 0 0.3 -0.1
v 0.1 -0.3 -0.1
v 0.1 -0.2 -0.1
v 0.2 -0.1 -0.1
v 0.2 0 -0.1
v 0.3 -0.1 -0.1
v 0.3 0 -0.1
v -0.2 -0.2 -0.2
v -0.2 0.1 -0.2
v -0.1 0 -0.2
v -0.1 0.1 -0.2
v -0.1 0.2 -0.2
v 0 -0.1 -0.2
v 0 0 -0.2
v 0 0.1 -0.2
v 0.1 -0.2 -0.2
v 0.1 -0.1 -0.2
v 0.1 0 -0.2
v 0.2 -0.1 -0.2
v 0.2 0.2 -0.2
v -0.3 -0.3 -0.3
v -0.3 -0.2 -0.3
v -0.3 0.2 -0.3
v -0.3 0.3 -0.3
v -0.2 -0.3 -0.3
v -0.2 -0.2 -0.3
v -0.2 0.1 -0.3
v -0.2 0.2 -0.3
v -0.2 0.3 -0.3
v -0.1 0 -0.3
v -0.1 0.1 -0.3
v -0.1 0.2 -0.3
v 0 -0.1 -0.3
v 0 0 -0.3
v 0 0.1 -0.3
v 0.1 -0.2 -0.3
v 0.1 -0.1 -0.3
v 0.1 0 -0.3
v 0.2 -0.3 -0.3
v 0.2 -0.2 -0.3
v 0.2 -0.1 -0.3
v 0.2 0.2 -0.3
v 0.2 0.3 -0.3
v 0.3 -0.3 -0.3
v 0.3 -0.2 -0.3
v 0.3 0.2 -0.3
v 0.3 0.3 -0.3
v -0.3 -0.3 0.3
v -0.2 -0.3 0.3
v 0.2 -0.3 0.3
v 0.3 -0.3 0.3
v -0.3 -0.3 0.2
v -0.2 -0.3 0.2
v -0.1 -0.3 0.2
v 0.2 -0.3 0.2
v 0.3 -0.3 0.2
v -0.2 -0.3 0.1
v -0.1 -0.3 0.1
v 0 -0.3 0.1
v -0.1 -0.3 0
v 0 -0.3 0
v 0.1 -0.3 0
v 0 -0.3 -0.1
v 0.1 -0.3 -0.1
v 0.2 -0.3 -0.1
v -0.3 -0.3 -0.2
v -0.2 -0.3 -0.2
v 0.1 -0.3 -0.2
v 0.2 -0.3 -0.2
v 0.3 -0.3 -0.2
v -0.3 -0.3 -0.3
v -0.2 -0.3 -0.3
v 0.2 -0.3 -0.3
v 0.3 -0.3 -0.3
v -0.1 -0.2 0.2
v 0.2 -0.2 0.2
v -0.2 -0.2 0.1
v -0.1 -0.2 0.1
v 0 -0.2 0.1
v -0.1 -0.2 0
v 0 -0.2 0
v 0.1 -0.2 0
v 0 -0.2 -0.1
v 0.1 -0.2 -0.1
v 0.2 -0.2 -0.1
v -0.2 -0.2 -0.2
v 0.1 -0.2 -0.2
v -0.1 -0.1 0.3
v 0 -0.1 0.3
v -0.1 -0.1 0.2
v 0 -0.1 0.2
v -0.3 -0.1 0.1
v -0.2 -0.1 0.1
v -0.3 -0.1 0
v -0.2 -0.1 0
v 0.2 -0.1 0
v 0.3 -0.1 0
v 0.2 -0.1 -0.1
v 0.3 -0.1 -0.1
v 0 -0.1 -0.2
v 0.1 -0.1 -0.2
v 0 -0.1 -0.3
v 0.1 -0.1 -0.3
v 0 0 0.3
v 0.1 0 0.3
v 0 0 0.2
v 0.1 0 0.2
v 0.2 0 0.1
v 0.3 0 0.1
v -0.3 0 0
v -0.2 0 0
v 0.2 0 0
v 0.3 0 0
v -0.3 0 -0.1
v -0.2 0 -0.1
v -0.1 0 -0.2
v 0 0 -0.2
v -0.1 0 -0.3
v 0 0 -0.3
v 0.1 0.1 0.3
v 0.2 0.1 0.3
v 0.1 0.1 0.2
v 0.2 0.1 0.2
v 0.3 0.1 0.2
v 0.2 0.1 0.1
v 0.3 0.1 0.1
v -0.3 0.1 -0.1
v -0.2 0.1 -0.1
v -0.3 0.1 -0.2
v -0.2 0.1 -0.2
v -0.1 0.1 -0.2
v -0.2 0.1 -0.3
v -0.1 0.1 -0.3
v -0.2 0.2 0.3
v 0.1 0.2 0.3
v -0.3 0.2 0.2
v -0.2 0.2 0.2
v 0.1 0.2 0.2
v 0.2 0.2 0.1
v 0.3 0.2 0.1
v -0.3 0.2 -0.1
v -0.2 0.2 -0.1
v -0.1 0.2 -0.2
v 0.2 0.2 -0.2
v 0.3 0.2 -0.2
v -0.1 0.2 -0.3
v 0.2 0.2 -0.3
v -0.1 -0.2 0.3
v 0.2 -0.2 0.3
v -0.1 -0.2 0.2
v 0.2 -0.2 0.2
v 0.3 -0.2 0.2
v -0.3 -0.2 0.1
v -0.2 -0.2 0.1
v 0.2 -0.2 -0.1
v 0.3 -0.2 -0.1
v -0.3 -0.2 -0.2
v -0.2 -0.2 -0.2
v 0.1 -0.2 -0.2
v -0.2 -0.2 -0.3
v 0.1 -0.2 -0.3
v -0.2 -0.1 0.3
v -0.1 -0.1 0.3
v -0.3 -0.1 0.2
v -0.2 -0.1 0.2
v -0.1 -0.1 0.2
v -0.3 -0.1 0.1
v -0.2 -0.1 0.1
v 0.2 -0.1 -0.1
v 0.3 -0.1 -0.1
v 0.1 -0.1 -0.2
v 0.2 -0.1 -0.2
v 0.3 -0.1 -0.2
v 0.1 -0.1 -0.3
v 0.2 -0.1 -0.3
v -0.1 0 0.3
v 0 0 0.3
v -0.1 0 0.2
v 0 0 0.2
v -0.3 0 0.1
v -0.2 0 0.1
v -0.3 0 0
v -0.2 0 0
v 0.2 0 0
v 0.3 0 0
v 0.2 0 -0.1
v 0.3 0 -0.1
v 0 0 -0.2
v 0.1 0 -0.2
v 0 0 -0.3
v 0.1 0 -0.3
v 0 0.1 0.3
v 0.1 0.1 0.3
v 0 0.1 0.2
v 0.1 0.1 0.2
v 0.2 0.1 0.1
v 0.3 0.1 0.1
v -0.3 0.1 0
v -0.2 0.1 0
v 0.2 0.1 0
v 0.3 0.1 0
v -0.3 0.1 -0.1
v -0.2 0.1 -0.1
v -0.1 0.1 -0.2
v 0 0.1 -0.2
v -0.1 0.1 -0.3
v 0 0.1 -0.3
v -0.2 0.2 0.2
v 0.1 0.2 0.2
v 0 0.2 0.1
v 0.1 0.2 0.1
v 0.2 0.2 0.1
v -0.1 0.2 0
v 0 0.2 0
v 0.1 0.2 0
v -0.2 0.2 -0.1
v -0.1 0.2 -0.1
v 0 0.2 -0.1
v -0.1 0.2 -0.2
v 0.2 0.2 -0.2
v -0.3 0.3 0.3
v -0.2 0.3 0.3
v 0.2 0.3 0.3
v 0.3 0.3 0.3
v -0.3 0.3 0.2
v -0.2 0.3 0.2
v 0.1 0.3 0.2
v 0.2 0.3 0.2
v 0.3 0.3 0.2
v 0 0.3 0.1
v 0.1 0.3 0.1
v 0.2 0.3 0.1
v -0.1 0.3 0
v 0 0.3 0
v 0.1 0.3 0
v -0.2 0.3 -0.1
v -0.1 0.3 -0.1
v 0 0.3 -0.1
v -0.3 0.3 -0.2
v -0.2 0.3 -0.2
v -0.1 0.3 -0.2
v 0.2 0.3 -0.2
v 0.3 0.3 -0.2
v -0.3 0.3 -0.3
v -0.2 0.3 -0.3
v 0.2 0.3 -0.3
v 0.3 0.3 -0.3

# faces
f 5/1/1 2/1/1 1/1/1
f 6/3/1 3/3/1 2/3/1
f 6/1/1 2/1/1 5/1/1
f 7/3/1 3/3/1 6/3/1
f 8/1/1 4/1/1 3/1/1
f 8/3/1 3/3/1 7/3/1
f 9/1/1 4/1/1 8/1/1
f 10/3/1 7/3/1 6/3/1
f 10/3/1 6/3/1 5/3/1
f 11/3/1 7/3/1 10/3/1
f 13/3/1 12/3/1 11/3/1
f 14/3/1 12/3/1 13/3/1
f 16/3/1 15/3/1 14/3/1
f 17/3/1 15/3/1 16/3/1
f 18/3/1 9/3/1 8/3/1
f 19/3/1 10/3/1 5/3/1
f 20/3/1 10/3/1 19/3/1
f 21/3/1 18/3/1 17/3/1
f 22/3/1 9/3/1 18/3/1
f 22/3/1 18/3/1 21/3/1
f 23/3/1 9/3/1 22/3/1
f 24/1/1 20/1/1 19/1/1
f 25/3/1 21/3/1 20/3/1
f 25/1/1 20/1/1 24/1/1
f 25/3/1 22/3/1 21/3/1
f 26/1/1 23/1/1 22/1/1
f 26/3/1 22/3/1 25/3/1
f 27/1/1 23/1/1 26/1/1
f 31/2/1 29/2/1 28/2/1
f 32/2/1 29/2/1 31/2/1
f 33/2/1 31/2/1 30/2/1
f 34/2/1 29/2/1 32/2/1
f 35/2/1 29/2/1 34/2/1
f 36/2/1 34/2/1 33/2/1
f 37/2/1 29/2/1 35/2/1
f 38/2/1 29/2/1 37/2/1
f 39/2/1 33/2/1 30/2/1
f 39/2/1 36/2/1 33/2/1
f 39/2/1 37/2/1 36/2/1
f 40/2/1 37/2/1 39/2/1
f 43/3/1 42/3/1 41/3/1
f 44/3/1 42/3/1 43/3/1
f 47/3/1 46/3/1 45/3/1
f 48/3/1 46/3/1 47/3/1
f 51/3/1 50/3/1 49/3/1
f 52/3/1 50/3/1 51/3/1
f 55/3/1 54/3/1 53/3/1
f 56/3/1 54/3/1 55/3/1
f 59/3/1 58/3/1 57/3/1
f 60/3/1 58/3/1 59/3/1
f 65/3/1 62/3/1 61/3/1
f 66/3/1 62/3/1 65/3/1
f 67/3/1 64/3/1 63/3/1
f 68/3/1 64/3/1 67/3/1
f 71/3/1 70/3/1 69/3/1
f 72/3/1 70/3/1 71/3/1
f 75/3/1 74/3/1 73/3/1
f 76/3/1 74/3/1 75/3/1
f 78/3/1 77/3/1 76/3/1
f 79/3/1 77/3/1 78/3/1
f 82/3/1 81/3/1 80/3/1
f 83/3/1 81/3/1 82/3/1
f 85/3/1 84/3/1 83/3/1
f 86/3/1 84/3/1 85/3/1
f 90/3/1 88/3/1 87/3/1
f 91/3/1 88/3/1 90/3/1
f 94/3/1 90/3/1 89/3/1
f 95/3/1 90/3/1 94/3/1
f 97/3/1 93/3/1 92/3/1
f 98/3/1 93/3/1 97/3/1
f 99/3/1 97/3/1 96/3/1
f 100/3/1 97/3/1 99/3/1
f 101/3/2 102/3/2 103/3/2
f 103/3/2 102/3/2 104/3/2
f 104/3/2 105/3/2 108/3/2
f 108/3/2 105/3/2 109/3/2
f 106/3/2 107/3/2 110/3/2
f 110/3/2 107/3/2 111/3/2
f 111/3/2 112/3/2 113/3/2
f 113/3/2 112/3/2 114/3/2
f 115/3/2 116/3/2 118/3/2
f 118/3/2 116/3/2 119/3/2
f 117/3/2 118/3/2 120/3/2
f 120/3/2 118/3/2 121/3/2
f 122/3/2 123/3/2 125/3/2
f 125/3/2 123/3/2 126/3/2
f 124/3/2 125/3/2 127/3/2
f 127/3/2 125/3/2 128/3/2
f 129/3/2 130/3/2 131/3/2
f 131/3/2 130/3/2 132/3/2
f 133/3/2 134/3/2 135/3/2
f 135/3/2 134/3/2 136/3/2
f 137/3/2 138/3/2 139/3/2
f 139/3/2 138/3/2 140/3/2
f 141/3/2 142/3/2 143/3/2
f 143/3/2 142/3/2 144/3/2
f 145/3/2 146/3/2 147/3/2
f 147/3/2 146/3/2 148/3/2
f 149/3/2 150/3/2 153/3/2
f 153/3/2 150/3/2 154/3/2
f 151/3/2 152/3/2 155/3/2
f 155/3/2 152/3/2 156/3/2
f 157/3/2 158/3/2 159/3/2
f 159/3/2 158/3/2 160/3/2
f 161/2/2 162/2/2 163/2/2
f 163/2/2 162/2/2 164/2/2
f 161/2/2 163/2/2 166/2/2
f 166/2/2 163/2/2 167/2/2
f 164/2/2 165/2/2 168/2/2
f 161/2/2 166/2/2 169/2/2
f 169/2/2 166/2/2 170/2/2
f 167/2/2 168/2/2 171/2/2
f 170/2/2 171/2/2 172/2/2
f 171/2/2 168/2/2 173/2/2
f 172/2/2 171/2/2 173/2/2
f 168/2/2 165/2/2 173/2/2
f 174/1/2 175/1/2 178/1/2
f 175/3/2 176/3/2 179/3/2
f 178/1/2 175/1/2 179/1/2
f 179/3/2 176/3/2 180/3/2
f 176/1/2 177/1/2 181/1/2
f 180/3/2 176/3/2 181/3/2
f 181/1/2 177/1/2 182/1/2
f 180/3/2 181/3/2 184/3/2
f 181/3/2 182/3/2 184/3/2
f 184/3/2 182/3/2 185/3/2
f 183/3/2 184/3/2 187/3/2
f 187/3/2 184/3/2 188/3/2
f 178/3/2 179/3/2 189/3/2
f 186/3/2 187/3/2 190/3/2
f 190/3/2 187/3/2 191/3/2
f 178/3/2 189/3/2 192/3/2
f 189/3/2 190/3/2 192/3/2
f 192/3/2 190/3/2 193/3/2
f 193/3/2 190/3/2 194/3/2
f 185/3/2 182/3/2 195/3/2
f 195/3/2 182/3/2 196/3/2
f 192/1/2 193/1/2 197/1/2
f 193/3/2 194/3/2 198/3/2
f 197/1/2 193/1/2 198/1/2
f 194/3/2 195/3/2 198/3/2
f 195/1/2 196/1/2 199/1/2
f 198/3/2 195/3/2 199/3/2
f 199/1/2 196/1/2 200/1/2
f 205/1/3 202/1/3 201/1/3
f 206/3/3 203/3/3 202/3/3
f 206/1/3 202/1/3 205/1/3
f 207/3/3 203/3/3 206/3/3
f 208/1/3 204/1/3 203/1/3
f 208/3/3 203/3/3 207/3/3
f 209/1/3 204/1/3 208/1/3
f 210/3/3 207/3/3 206/3/3
f 210/3/3 206/3/3 205/3/3
f 211/3/3 207/3/3 210/3/3
f 213/3/3 212/3/3 211/3/3
f 214/3/3 212/3/3 213/3/3
f 216/3/3 215/3/3 214/3/3
f 217/3/3 215/3/3 216/3/3
f 218/3/3 209/3/3 208/3/3
f 219/3/3 210/3/3 205/3/3
f 220/3/3 210/3/3 219/3/3
f 221/3/3 218/3/3 217/3/3
f 222/3/3 209/3/3 218/3/3
f 222/3/3 218/3/3 221/3/3
f 223/3/3 209/3/3 222/3/3
f 224/1/3 220/1/3 219/1/3
f 225/3/3 221/3/3 220/3/3
f 225/1/3 220/1/3 224/1/3
f 225/3/3 222/3/3 221/3/3
f 226/1/3 223/1/3 222/1/3
f 226/3/3 222/3/3 225/3/3
f 227/1/3 223/1/3 226/1/3
f 231/2/3 229/2/3 228/2/3
f 232/2/3 229/2/3 231/2/3
f 233/2/3 231/2/3 230/2/3
f 234/2/3 229/2/3 232/2/3
f 235/2/3 229/2/3 234/2/3
f 236/2/3 234/2/3 233/2/3
f 237/2/3 229/2/3 235/2/3
f 238/2/3 229/2/3 237/2/3
f 239/2/3 233/2/3 230/2/3
f 239/2/3 236/2/3 233/2/3
f 239/2/3 237/2/3 236/2/3
f 240/2/3 237/2/3 239/2/3
f 243/3/3 242/3/3 241/3/3
f 244/3/3 242/3/3 243/3/3
f 247/3/3 246/3/3 245/3/3
f 248/3/3 246/3/3 247/3/3
f 251/3/3 250/3/3 249/3/3
f 252/3/3 250/3/3 251/3/3
f 255/3/3 254/3/3 253/3/3
f 256/3/3 254/3/3 255/3/3
f 259/3/3 258/3/3 257/3/3
f 260/3/3 258/3/3 259/3/3
f 265/3/3 262/3/3 261/3/3
f 266/3/3 262/3/3 265/3/3
f 267/3/3 264/3/3 263/3/3
f 268/3/3 264/3/3 267/3/3
f 271/3/3 270/3/3 269/3/3
f 272/3/3 270/3/3 271/3/3
f 275/3/3 274/3/3 273/3/3
f 276/3/3 274/3/3 275/3/3
f 278/3/3 277/3/3 276/3/3
f 279/3/3 277/3/3 278/3/3
f 282/3/3 281/3/3 280/3/3
f 283/3/3 281/3/3 282/3/3
f 285/3/3 284/3/3 283/3/3
f 286/3/3 284/3/3 285/3/3
f 290/3/3 288/3/3 287/3/3
f 291/3/3 288/3/3 290/3/3
f 294/3/3 290/3/3 289/3/3
f 295/3/3 290/3/3 294/3/3
f 297/3/3 293/3/3 292/3/3
f 298/3/3 293/3/3 297/3/3
f 299/3/3 297/3/3 296/3/3
f 300/3/3 297/3/3 299/3/3
f 301/3/4 302/3/4 303/3/4
f 303/3/4 302/3/4 304/3/4
f 304/3/4 305/3/4 308/3/4
f 308/3/4 305/3/4 309/3/4
f 306/3/4 307/3/4 310/3/4
f 310/3/4 307/3/4 311/3/4
f 311/3/4 312/3/4 313/3/4
f 313/3/4 312/3/4 314/3/4
f 315/3/4 316/3/4 318/3/4
f 318/3/4 316/3/4 319/3/4
f 317/3/4 318/3/4 320/3/4
f 320/3/4 318/3/4 321/3/4
f 322/3/4 323/3/4 325/3/4
f 325/3/4 323/3/4 326/3/4
f 324/3/4 325/3/4 327/3/4
f 327/3/4 325/3/4 328/3/4
f 329/3/4 330/3/4 331/3/4
f 331/3/4 330/3/4 332/3/4
f 333/3/4 334/3/4 335/3/4
f 335/3/4 334/3/4 336/3/4
f 337/3/4 338/3/4 339/3/4
f 339/3/4 338/3/4 340/3/4
f 341/3/4 342/3/4 343/3/4
f 343/3/4 342/3/4 344/3/4
f 345/3/4 346/3/4 347/3/4
f 347/3/4 346/3/4 348/3/4
f 349/3/4 350/3/4 353/3/4
f 353/3/4 350/3/4 354/3/4
f 351/3/4 352/3/4 355/3/4
f 355/3/4 352/3/4 356/3/4
f 357/3/4 358/3/4 359/3/4
f 359/3/4 358/3/4 360/3/4
f 361/2/4 362/2/4 363/2/4
f 363/2/4 362/2/4 364/2/4
f 361/2/4 363/2/4 366/2/4
f 366/2/4 363/2/4 367/2/4
f 364/2/4 365/2/4 368/2/4
f 361/2/4 366/2/4 369/2/4
f 369/2/4 366/2/4 370/2/4
f 367/2/4 368/2/4 371/2/4
f 370/2/4 371/2/4 372/2/4
f 371/2/4 368/2/4 373/2/4
f 372/2/4 371/2/4 373/2/4
f 368/2/4 365/2/4 373/2/4
f 374/1/4 375/1/4 378/1/4
f 375/3/4 376/3/4 379/3/4
f 378/1/4 375/1/4 379/1/4
f 379/3/4 376/3/4 380/3/4
f 376/1/4 377/1/4 381/1/4
f 380/3/4 376/3/4 381/3/4
f 381/1/4 377/1/4 382/1/4
f 380/3/4 381/3/4 384/3/4
f 381/3/4 382/3/4 384/3/4
f 384/3/4 382/3/4 385/3/4
f 383/3/4 384/3/4 387/3/4
f 387/3/4 384/3/4 388/3/4
f 378/3/4 379/3/4 389/3/4
f 386/3/4 387/3/4 390/3/4
f 390/3/4 387/3/4 391/3/4
f 378/3/4 389/3/4 392/3/4
f 389/3/4 390/3/4 392/3/4
f 392/3/4 390/3/4 393/3/4
f 393/3/4 390/3/4 394/3/4
f 385/3/4 382/3/4 395/3/4
f 395/3/4 382/3/4 396/3/4
f 392/1/4 393/1/4 397/1/4
f 393/3/4 394/3/4 398/3/4
f 397/1/4 393/1/4 398/1/4
f 394/3/4 395/3/4 398/3/4
f 395/1/4 396/1/4 399/1/4
f 398/3/4 395/3/4 399/3/4
f 399/1/4 396/1/4 400/1/4
f 405/1/5 402/1/5 401/1/5
f 406/3/5 403/3/5 402/3/5
f 406/1/5 402/1/5 405/1/5
f 407/3/5 403/3/5 406/3/5
f 408/1/5 404/1/5 403/1/5
f 408/3/5 403/3/5 407/3/5
f 409/1/5 404/1/5 408/1/5
f 410/3/5 407/3/5 406/3/5
f 410/3/5 406/3/5 405/3/5
f 411/3/5 407/3/5 410/3/5
f 413/3/5 412/3/5 411/3/5
f 414/3/5 412/3/5 413/3/5
f 416/3/5 415/3/5 414/3/5
f 417/3/5 415/3/5 416/3/5
f 418/3/5 409/3/5 408/3/5
f 419/3/5 410/3/5 405/3/5
f 420/3/5 410/3/5 419/3/5
f 421/3/5 418/3/5 417/3/5
f 422/3/5 409/3/5 418/3/5
f 422/3/5 418/3/5 421/3/5
f 423/3/5 409/3/5 422/3/5
f 424/1/5 420/1/5 419/1/5
f 425/3/5 421/3/5 420/3/5
f 425/1/5 420/1/5 424/1/5
f 425/3/5 422/3/5 421/3/5
f 426/1/5 423/1/5 422/1/5
f 426/3/5 422/3/5 425/3/5
f 427/1/5 423/1/5 426/1/5
f 431/2/5 429/2/5 428/2/5
f 432/2/5 429/2/5 431/2/5
f 433/2/5 431/2/5 430/2/5
f 434/2/5 429/2/5 432/2/5
f 435/2/5 429/2/5 434/2/5
f 436/2/5 434/2/5 433/2/5
f 437/2/5 429/2/5 435/2/5
f 438/2/5 429/2/5 437/2/5
f 439/2/5 433/2/5 430/2/5
f 439/2/5 436/2/5 433/2/5
f 439/2/5 437/2/5 436/2/5
f 440/2/5 437/2/5 439/2/5
f 443/3/5 442/3/5 441/3/5
f 444/3/5 442/3/5 443/3/5
f 447/3/5 446/3/5 445/3/5
f 448/3/5 446/3/5 447/3/5
f 451/3/5 450/3/5 449/3/5
f 452/3/5 450/3/5 451/3/5
f 455/3/5 454/3/5 453/3/5
f 456/3/5 454/3/5 455/3/5
f 459/3/5 458/3/5 457/3/5
f 460/3/5 458/3/5 459/3/5
f 465/3/5 462/3/5 461/3/5
f 466/3/5 462/3/5 465/3/5
f 467/3/5 464/3/5 463/3/5
f 468/3/5 464/3/5 467/3/5
f 471/3/5 470/3/5 469/3/5
f 472/3/5 470/3/5 471/3/5
f 475/3/5 474/3/5 473/3/5
f 476/3/5 474/3/5 475/3/5
f 478/3/5 477/3/5 476/3/5
f 479/3/5 477/3/5 478/3/5
f 482/3/5 481/3/5 480/3/5
f 483/3/5 481/3/5 482/3/5
f 485/3/5 484/3/5 483/3/5
f 486/3/5 484/3/5 485/3/5
f 490/3/5 488/3/5 487/3/5
f 491/3/5 488/3/5 490/3/5
f 494/3/5 490/3/5 489/3/5
f 495/3/5 490/3/5 494/3/5
f 497/3/5 493/3/5 492/3/5
f 498/3/5 493/3/5 497/3/5
f 499/3/5 497/3/5 496/3/5
f 500/3/5 497/3/5 499/3/5
f 501/3/6 502/3/6 503/3/6
f 503/3/6 502/3/6 504/3/6
f 504/3/6 505/3/6 508/3/6
f 508/3/6 505/3/6 509/3/6
f 506/3/6 507/3/6 510/3/6
f 510/3/6 507/3/6 511/3/6
f 511/3/6 512/3/6 513/3/6
f 513/3/6 512/3/6 514/3/6
f 515/3/6 516/3/6 518/3/6
f 518/3/6 516/3/6 519/3/6
f 517/3/6 518/3/6 520/3/6
f 520/3/6 518/3/6 521/3/6
f 522/3/6 523/3/6 525/3/6
f 525/3/6 523/3/6 526/3/6
f 524/3/6 525/3/6 527/3/6
f 527/3/6 525/3/6 528/3/6
f 529/3/6 530/3/6 531/3/6
f 531/3/6 530/3/6 532/3/6
f 533/3/6 534/3/6 535/3/6
f 535/3/6 534/3/6 536/3/6
f 537/3/6 538/3/6 539/3/6
f 539/3/6 538/3/6 540/3/6
f 541/3/6 542/3/6 543/3/6
f 543/3/6 542/3/6 544/3/6
f 545/3/6 546/3/6 547/3/6
f 547/3/6 546/3/6 548/3/6
f 549/3/6 550/3/6 553/3/6
f 553/3/6 550/3/6 554/3/6
f 551/3/6 552/3/6 555/3/6
f 555/3/6 552/3/6 556/3/6
f 557/3/6 558/3/6 559/3/6
f 559/3/6 558/3/6 560/3/6
f 561/2/6 562/2/6 563/2/6
f 563/2/6 562/2/6 564/2/6
f 561/2/6 563/2/6 566/2/6
f 566/2/6 563/2/6 567/2/6
f 564/2/6 565/2/6 568/2/6
f 561/2/6 566/2/6 569/2/6
f 569/2/6 566/2/6 570/2/6
f 567/2/6 568/2/6 571/2/6
f 570/2/6 571/2/6 572/2/6
f 571/2/6 568/2/6 573/2/6
f 572/2/6 571/2/6 573/2/6
f 568/2/6 565/2/6 573/2/6
f 574/1/6 575/1/6 578/1/6
f 575/3/6 576/3/6 579/3/6
f 578/1/6 575/1/6 579/1/6
f 579/3/6 576/3/6 580/3/6
f 576/1/6 577/1/6 581/1/6
f 580/3/6 576/3/6 581/3/6
f 581/1/6 577/1/6 582/1/6
f 580/3/6 581/3/6 584/3/6
f 581/3/6 582/3/6 584/3/6
f 584/3/6 582/3/6 585/3/6
f 583/3/6 584/3/6 587/3/6
f 587/3/6 584/3/6 588/3/6
f 578/3/6 579/3/6 589/3/6
f 586/3/6 587/3/6 590/3/6
f 590/3/6 587/3/6 591/3/6
f 578/3/6 589/3/6 592/3/6
f 589/3/6 590/3/6 592/3/6
f 592/3/6 590/3/6 593/3/6
f 593/3/6 590/3/6 594/3/6
f 585/3/6 582/3/6 595/3/6
f 595/3/6 582/3/6 596/3/6
f 592/1/6 593/1/6 597/1/6
f 593/3/6 594/3/6 598/3/6
f 597/1/6 593/1/6 598/1/6
f 594/3/6 595/3/6 598/3/6
f 595/1/6 596/1/6 599/1/6
f 598/3/6 595/3/6 599/3/6
f 599/1/6 596/1/6 600/1/6
