# MagicaVoxel @ Ephtracy

# group
o Large_BoardB

# material
mtllib SH_Enviorment-18-Large_BoardB.mtl
usemtl palette

# normals
vn -1 0 0
vn 1 0 0
vn 0 0 1
vn 0 0 -1
vn 0 -1 0
vn 0 1 0

# texcoords
vt 0.119141 0.5
vt 0.955078 0.5

# verts
v -0.05 -0.75 0.15
v -0.05 -0.75 0.05
v -0.05 -0.75 -0.15
v -0.05 -0.35 -0.05
v -0.05 -0.35 -0.15
v -0.05 -0.05 0.15
v -0.05 -0.05 0.05
v -0.05 -0.05 -0.05
v -0.05 0.15 -0.05
v -0.05 0.15 -0.15
v -0.05 0.45 0.15
v -0.05 0.45 0.05
v 0.05 -0.75 0.15
v 0.05 -0.75 0.05
v 0.05 -0.75 -0.15
v 0.05 -0.35 -0.05
v 0.05 -0.35 -0.15
v 0.05 -0.05 0.15
v 0.05 -0.05 0.05
v 0.05 -0.05 -0.05
v 0.05 0.15 -0.05
v 0.05 0.15 -0.15
v 0.05 0.45 0.15
v 0.05 0.45 0.05
v -0.05 -0.75 0.15
v -0.05 -0.05 0.15
v -0.05 0.45 0.15
v 0.05 -0.75 0.15
v 0.05 -0.05 0.15
v 0.05 0.45 0.15
v -0.05 -0.05 -0.05
v -0.05 0.15 -0.05
v 0.05 -0.05 -0.05
v 0.05 0.15 -0.05
v -0.05 -0.05 0.05
v -0.05 0.45 0.05
v 0.05 -0.05 0.05
v 0.05 0.45 0.05
v -0.05 -0.75 -0.15
v -0.05 -0.35 -0.15
v -0.05 0.15 -0.15
v 0.05 -0.75 -0.15
v 0.05 -0.35 -0.15
v 0.05 0.15 -0.15
v -0.05 -0.75 0.15
v 0.05 -0.75 0.15
v -0.05 -0.75 0.05
v 0.05 -0.75 0.05
v -0.05 -0.75 -0.15
v 0.05 -0.75 -0.15
v -0.05 -0.05 0.05
v 0.05 -0.05 0.05
v -0.05 -0.05 -0.05
v 0.05 -0.05 -0.05
v -0.05 0.15 -0.05
v 0.05 0.15 -0.05
v -0.05 0.15 -0.15
v 0.05 0.15 -0.15
v -0.05 0.45 0.15
v 0.05 0.45 0.15
v -0.05 0.45 0.05
v 0.05 0.45 0.05

# faces
f 4/2/1 3/2/1 2/2/1
f 5/2/1 3/2/1 4/2/1
f 6/1/1 2/1/1 1/1/1
f 7/2/1 4/2/1 2/2/1
f 7/1/1 2/1/1 6/1/1
f 8/1/1 5/1/1 4/1/1
f 8/2/1 4/2/1 7/2/1
f 9/1/1 5/1/1 8/1/1
f 10/1/1 5/1/1 9/1/1
f 11/2/1 7/2/1 6/2/1
f 12/2/1 7/2/1 11/2/1
f 14/2/2 15/2/2 16/2/2
f 16/2/2 15/2/2 17/2/2
f 13/1/2 14/1/2 18/1/2
f 14/2/2 16/2/2 19/2/2
f 18/1/2 14/1/2 19/1/2
f 16/1/2 17/1/2 20/1/2
f 19/2/2 16/2/2 20/2/2
f 20/1/2 17/1/2 21/1/2
f 21/1/2 17/1/2 22/1/2
f 18/2/2 19/2/2 23/2/2
f 23/2/2 19/2/2 24/2/2
f 28/1/3 26/1/3 25/1/3
f 29/2/3 27/2/3 26/2/3
f 29/1/3 26/1/3 28/1/3
f 30/2/3 27/2/3 29/2/3
f 33/1/3 32/1/3 31/1/3
f 34/1/3 32/1/3 33/1/3
f 35/2/4 36/2/4 37/2/4
f 37/2/4 36/2/4 38/2/4
f 39/2/4 40/2/4 42/2/4
f 40/1/4 41/1/4 43/1/4
f 42/2/4 40/2/4 43/2/4
f 43/1/4 41/1/4 44/1/4
f 47/1/5 46/1/5 45/1/5
f 48/1/5 46/1/5 47/1/5
f 49/2/5 48/2/5 47/2/5
f 50/2/5 48/2/5 49/2/5
f 51/2/6 52/2/6 53/2/6
f 53/2/6 52/2/6 54/2/6
f 55/1/6 56/1/6 57/1/6
f 57/1/6 56/1/6 58/1/6
f 59/2/6 60/2/6 61/2/6
f 61/2/6 60/2/6 62/2/6
